<svg width="50" height="50" viewBox="0 0 50 50" fill="none" xmlns="http://www.w3.org/2000/svg">
  <g clip-path="url(#clip0)">
    <path d="M31.8965 18.1152C31.2498 18.1152 30.7256 18.6394 30.7256 19.2862V41.4173C30.7256 42.0637 31.2498 42.5883 31.8965 42.5883C32.5433 42.5883 33.0675 42.0637 33.0675 41.4173V19.2862C33.0675 18.6394 32.5433 18.1152 31.8965 18.1152Z" fill="#B2B2B2"/>
    <path d="M18.0792 18.1152C17.4324 18.1152 16.9082 18.6394 16.9082 19.2862V41.4173C16.9082 42.0637 17.4324 42.5883 18.0792 42.5883C18.7259 42.5883 19.2501 42.0637 19.2501 41.4173V19.2862C19.2501 18.6394 18.7259 18.1152 18.0792 18.1152Z" fill="#B2B2B2"/>
    <path d="M8.0093 14.8855V43.7354C8.0093 45.4406 8.63457 47.042 9.72686 48.191C10.8141 49.3432 12.3272 49.9972 13.9107 50H36.0656C37.6496 49.9972 39.1627 49.3432 40.2495 48.191C41.3418 47.042 41.967 45.4406 41.967 43.7354V14.8855C44.1383 14.3092 45.5453 12.2115 45.2549 9.98347C44.964 7.75591 43.0662 6.08958 40.8194 6.08913H34.8242V4.62543C34.8311 3.39456 34.3444 2.21262 33.473 1.34309C32.6017 0.474025 31.4179 -0.00990905 30.187 0.000153854H19.7893C18.5584 -0.00990905 17.3747 0.474025 16.5033 1.34309C15.632 2.21262 15.1453 3.39456 15.1521 4.62543V6.08913H9.15693C6.91016 6.08958 5.01238 7.75591 4.72147 9.98347C4.43102 12.2115 5.838 14.3092 8.0093 14.8855ZM36.0656 47.6581H13.9107C11.9087 47.6581 10.3512 45.9382 10.3512 43.7354V14.9884H39.6251V43.7354C39.6251 45.9382 38.0677 47.6581 36.0656 47.6581ZM17.4941 4.62543C17.4863 4.01571 17.726 3.42886 18.1587 2.99844C18.5909 2.56802 19.1791 2.33155 19.7893 2.34207H30.187C30.7972 2.33155 31.3854 2.56802 31.8177 2.99844C32.2504 3.4284 32.4901 4.01571 32.4823 4.62543V6.08913H17.4941V4.62543ZM9.15693 8.43104H40.8194C41.9835 8.43104 42.9271 9.37467 42.9271 10.5388C42.9271 11.7029 41.9835 12.6465 40.8194 12.6465H9.15693C7.99283 12.6465 7.04921 11.7029 7.04921 10.5388C7.04921 9.37467 7.99283 8.43104 9.15693 8.43104Z" fill="#B2B2B2"/>
    <path d="M24.9883 18.1152C24.3416 18.1152 23.8174 18.6394 23.8174 19.2862V41.4173C23.8174 42.0637 24.3416 42.5883 24.9883 42.5883C25.6351 42.5883 26.1593 42.0637 26.1593 41.4173V19.2862C26.1593 18.6394 25.6351 18.1152 24.9883 18.1152Z" fill="#B2B2B2"/>
  </g>
  <defs>
    <clipPath id="clip0">
      <rect width="50" height="50" fill="white"/>
    </clipPath>
  </defs>
</svg>
