<svg width="360" height="253" viewBox="0 0 360 253" fill="none" xmlns="http://www.w3.org/2000/svg">
<rect y="247" width="360" height="1" fill="white" fill-opacity="0.07"/>
<rect y="167" width="360" height="1" fill="white" fill-opacity="0.07"/>
<rect y="86" width="360" height="1" fill="white" fill-opacity="0.07"/>
<rect y="5" width="360" height="1" fill="white" fill-opacity="0.07"/>
<path d="M11.7391 216.268L7.82609 248H360V35.5183L356.087 37.9283L352.174 31.5017L348.261 21.0583L344.348 7L340.435 20.6567L336.522 37.5267L332.609 28.69L328.696 48.3717L324.783 39.9367L320.87 50.38L316.957 61.6267L313.043 57.61L309.13 60.02L305.217 68.0533L301.304 70.865L297.391 80.1033L293.478 82.5133L289.565 66.045L285.652 59.2167L281.739 62.8317L277.826 60.4217L273.913 39.9367L270 33.1083H262.174L258.261 54.3967L254.348 51.1833L250.435 62.0283L246.522 62.8317L242.609 69.2583L238.696 70.865L234.783 67.25L230.87 56.8067L226.957 72.07L223.043 69.2583L219.13 74.48L215.217 77.2917L211.304 74.48L207.391 83.3167L203.478 84.9233L199.565 106.613L195.652 110.63H187.826L183.913 114.647L180 122.278L176.087 135.533L172.174 137.542L168.261 131.115L164.348 129.107L160.435 118.663L156.522 123.082H148.696L144.783 130.312L140.87 132.722L136.957 127.902L133.043 129.508L129.13 137.14L125.217 143.968L121.304 147.182L117.391 145.575L113.478 147.985L109.565 153.608L105.652 151.198L101.739 157.625L97.8261 159.232H93.913L90 172.487L86.087 168.47L82.1739 170.077L78.2609 178.913L74.3478 181.323L70.4348 191.767L66.5217 193.775L62.6087 211.448L58.6957 201.808L54.7826 205.825L50.8696 203.817L46.9565 211.047L43.0435 214.662H35.2174L31.3043 220.687L27.3913 223.097L23.4783 217.875L19.5652 214.26L15.6522 216.268H11.7391Z" fill="url(#paint0_linear)"/>
<path d="M0 248H3.91304H7.82609L11.7391 216.268H15.6522L19.5652 214.26L23.4783 217.875L27.3913 223.097L31.3043 220.687L35.2174 214.662H43.0435L46.9565 211.047L50.8696 203.817L54.7826 205.825L58.6957 201.808L62.6087 211.448L66.5217 193.775L70.4348 191.767L74.3478 181.323L78.2609 178.913L82.1739 170.077L86.087 168.47L90 172.487L93.913 159.232H97.8261L101.739 157.625L105.652 151.198L109.565 153.608L113.478 147.985L117.391 145.575L121.304 147.182L125.217 143.968L129.13 137.14L133.043 129.508L136.957 127.902L140.87 132.722L144.783 130.312L148.696 123.082H156.522L160.435 118.663L164.348 129.107L168.261 131.115L172.174 137.542L176.087 135.533L180 122.278L183.913 114.647L187.826 110.63H195.652L199.565 106.613L203.478 84.9233L207.391 83.3167L211.304 74.48L215.217 77.2917L219.13 74.48L223.043 69.2583L226.957 72.07L230.87 56.8067L234.783 67.25L238.696 70.865L242.609 69.2583L246.522 62.8317L250.435 62.0283L254.348 51.1833L258.261 54.3967L262.174 33.1083H270L273.913 39.9367L277.826 60.4217L281.739 62.8317L285.652 59.2167L289.565 66.045L293.478 82.5133L297.391 80.1033L301.304 70.865L305.217 68.0533L309.13 60.02L313.043 57.61L316.957 61.6267L320.87 50.38L324.783 39.9367L328.696 48.3717L332.609 28.69L336.522 37.5267L340.435 20.6567L344.348 7L348.261 21.0583L352.174 31.5017L356.087 37.9283L360 35.5183" stroke="white" stroke-opacity="0.5" stroke-linejoin="round"/>
<rect x="10" y="242" width="37.0588" height="11" fill="#242424"/>
<path d="M16.2005 251.09C15.6965 251.09 15.2465 250.964 14.8505 250.712C14.4545 250.454 14.1425 250.082 13.9145 249.596C13.6865 249.104 13.5725 248.522 13.5725 247.85C13.5725 247.178 13.6865 246.599 13.9145 246.113C14.1425 245.621 14.4545 245.249 14.8505 244.997C15.2465 244.739 15.6965 244.61 16.2005 244.61C16.7045 244.61 17.1545 244.739 17.5505 244.997C17.9525 245.249 18.2675 245.621 18.4955 246.113C18.7235 246.599 18.8375 247.178 18.8375 247.85C18.8375 248.522 18.7235 249.104 18.4955 249.596C18.2675 250.082 17.9525 250.454 17.5505 250.712C17.1545 250.964 16.7045 251.09 16.2005 251.09ZM16.2005 250.073C16.6505 250.073 17.0045 249.887 17.2625 249.515C17.5265 249.143 17.6585 248.588 17.6585 247.85C17.6585 247.112 17.5265 246.557 17.2625 246.185C17.0045 245.813 16.6505 245.627 16.2005 245.627C15.7565 245.627 15.4025 245.813 15.1385 246.185C14.8805 246.557 14.7515 247.112 14.7515 247.85C14.7515 248.588 14.8805 249.143 15.1385 249.515C15.4025 249.887 15.7565 250.073 16.2005 250.073ZM25.2745 251.09C24.4045 251.09 23.7265 250.847 23.2405 250.361C22.7545 249.869 22.5115 249.167 22.5115 248.255V244.7H23.6815V248.21C23.6815 249.446 24.2155 250.064 25.2835 250.064C26.3455 250.064 26.8765 249.446 26.8765 248.21V244.7H28.0285V248.255C28.0285 249.167 27.7855 249.869 27.2995 250.361C26.8195 250.847 26.1445 251.09 25.2745 251.09ZM31.62 251.09C31.134 251.09 30.663 251.021 30.207 250.883C29.757 250.745 29.4 250.562 29.136 250.334L29.541 249.425C29.799 249.629 30.114 249.797 30.486 249.929C30.864 250.055 31.242 250.118 31.62 250.118C32.088 250.118 32.436 250.043 32.664 249.893C32.898 249.743 33.015 249.545 33.015 249.299C33.015 249.119 32.949 248.972 32.817 248.858C32.691 248.738 32.529 248.645 32.331 248.579C32.133 248.513 31.863 248.438 31.521 248.354C31.041 248.24 30.651 248.126 30.351 248.012C30.057 247.898 29.802 247.721 29.586 247.481C29.376 247.235 29.271 246.905 29.271 246.491C29.271 246.143 29.364 245.828 29.55 245.546C29.742 245.258 30.027 245.03 30.405 244.862C30.789 244.694 31.257 244.61 31.809 244.61C32.193 244.61 32.571 244.658 32.943 244.754C33.315 244.85 33.636 244.988 33.906 245.168L33.537 246.077C33.261 245.915 32.973 245.792 32.673 245.708C32.373 245.624 32.082 245.582 31.8 245.582C31.338 245.582 30.993 245.66 30.765 245.816C30.543 245.972 30.432 246.179 30.432 246.437C30.432 246.617 30.495 246.764 30.621 246.878C30.753 246.992 30.918 247.082 31.116 247.148C31.314 247.214 31.584 247.289 31.926 247.373C32.394 247.481 32.778 247.595 33.078 247.715C33.378 247.829 33.633 248.006 33.843 248.246C34.059 248.486 34.167 248.81 34.167 249.218C34.167 249.566 34.071 249.881 33.879 250.163C33.693 250.445 33.408 250.67 33.024 250.838C32.64 251.006 32.172 251.09 31.62 251.09ZM35.3272 244.7H38.0812C38.7532 244.7 39.3502 244.832 39.8722 245.096C40.3942 245.354 40.7992 245.723 41.0872 246.203C41.3752 246.677 41.5192 247.226 41.5192 247.85C41.5192 248.474 41.3752 249.026 41.0872 249.506C40.7992 249.98 40.3942 250.349 39.8722 250.613C39.3502 250.871 38.7532 251 38.0812 251H35.3272V244.7ZM38.0272 250.01C38.4892 250.01 38.8942 249.923 39.2422 249.749C39.5962 249.569 39.8662 249.317 40.0522 248.993C40.2442 248.663 40.3402 248.282 40.3402 247.85C40.3402 247.418 40.2442 247.04 40.0522 246.716C39.8662 246.386 39.5962 246.134 39.2422 245.96C38.8942 245.78 38.4892 245.69 38.0272 245.69H36.4972V250.01H38.0272Z" fill="#737373"/>
<rect x="10" y="162" width="55.0588" height="11" fill="#242424"/>
<path d="M15.7505 164.7V171H14.5805V165.681H13.2485V164.7H15.7505ZM24.0506 170.01V171H19.4066V170.217L21.9086 167.841C22.1906 167.571 22.3796 167.337 22.4756 167.139C22.5776 166.935 22.6286 166.734 22.6286 166.536C22.6286 166.242 22.5296 166.017 22.3316 165.861C22.1336 165.705 21.8426 165.627 21.4586 165.627C20.8166 165.627 20.3246 165.846 19.9826 166.284L19.1636 165.654C19.4096 165.324 19.7396 165.069 20.1536 164.889C20.5736 164.703 21.0416 164.61 21.5576 164.61C22.2416 164.61 22.7876 164.772 23.1956 165.096C23.6036 165.42 23.8076 165.861 23.8076 166.419C23.8076 166.761 23.7356 167.082 23.5916 167.382C23.4476 167.682 23.1716 168.024 22.7636 168.408L21.0806 170.01H24.0506ZM27.3275 171.09C26.8235 171.09 26.3735 170.964 25.9775 170.712C25.5815 170.454 25.2695 170.082 25.0415 169.596C24.8135 169.104 24.6995 168.522 24.6995 167.85C24.6995 167.178 24.8135 166.599 25.0415 166.113C25.2695 165.621 25.5815 165.249 25.9775 164.997C26.3735 164.739 26.8235 164.61 27.3275 164.61C27.8315 164.61 28.2815 164.739 28.6775 164.997C29.0795 165.249 29.3945 165.621 29.6225 166.113C29.8505 166.599 29.9645 167.178 29.9645 167.85C29.9645 168.522 29.8505 169.104 29.6225 169.596C29.3945 170.082 29.0795 170.454 28.6775 170.712C28.2815 170.964 27.8315 171.09 27.3275 171.09ZM27.3275 170.073C27.7775 170.073 28.1315 169.887 28.3895 169.515C28.6535 169.143 28.7855 168.588 28.7855 167.85C28.7855 167.112 28.6535 166.557 28.3895 166.185C28.1315 165.813 27.7775 165.627 27.3275 165.627C26.8835 165.627 26.5295 165.813 26.2655 166.185C26.0075 166.557 25.8785 167.112 25.8785 167.85C25.8785 168.588 26.0075 169.143 26.2655 169.515C26.5295 169.887 26.8835 170.073 27.3275 170.073ZM33.3831 171.09C32.8791 171.09 32.4291 170.964 32.0331 170.712C31.6371 170.454 31.3251 170.082 31.0971 169.596C30.8691 169.104 30.7551 168.522 30.7551 167.85C30.7551 167.178 30.8691 166.599 31.0971 166.113C31.3251 165.621 31.6371 165.249 32.0331 164.997C32.4291 164.739 32.8791 164.61 33.3831 164.61C33.8871 164.61 34.3371 164.739 34.7331 164.997C35.1351 165.249 35.4501 165.621 35.6781 166.113C35.9061 166.599 36.0201 167.178 36.0201 167.85C36.0201 168.522 35.9061 169.104 35.6781 169.596C35.4501 170.082 35.1351 170.454 34.7331 170.712C34.3371 170.964 33.8871 171.09 33.3831 171.09ZM33.3831 170.073C33.8331 170.073 34.1871 169.887 34.4451 169.515C34.7091 169.143 34.8411 168.588 34.8411 167.85C34.8411 167.112 34.7091 166.557 34.4451 166.185C34.1871 165.813 33.8331 165.627 33.3831 165.627C32.9391 165.627 32.5851 165.813 32.3211 166.185C32.0631 166.557 31.9341 167.112 31.9341 167.85C31.9341 168.588 32.0631 169.143 32.3211 169.515C32.5851 169.887 32.9391 170.073 33.3831 170.073ZM42.4571 171.09C41.5871 171.09 40.9091 170.847 40.4231 170.361C39.9371 169.869 39.6941 169.167 39.6941 168.255V164.7H40.8641V168.21C40.8641 169.446 41.3981 170.064 42.4661 170.064C43.5281 170.064 44.0591 169.446 44.0591 168.21V164.7H45.2111V168.255C45.2111 169.167 44.9681 169.869 44.4821 170.361C44.0021 170.847 43.3271 171.09 42.4571 171.09ZM48.8027 171.09C48.3167 171.09 47.8457 171.021 47.3897 170.883C46.9397 170.745 46.5827 170.562 46.3187 170.334L46.7237 169.425C46.9817 169.629 47.2967 169.797 47.6687 169.929C48.0467 170.055 48.4247 170.118 48.8027 170.118C49.2707 170.118 49.6187 170.043 49.8467 169.893C50.0807 169.743 50.1977 169.545 50.1977 169.299C50.1977 169.119 50.1317 168.972 49.9997 168.858C49.8737 168.738 49.7117 168.645 49.5137 168.579C49.3157 168.513 49.0457 168.438 48.7037 168.354C48.2237 168.24 47.8337 168.126 47.5337 168.012C47.2397 167.898 46.9847 167.721 46.7687 167.481C46.5587 167.235 46.4537 166.905 46.4537 166.491C46.4537 166.143 46.5467 165.828 46.7327 165.546C46.9247 165.258 47.2097 165.03 47.5877 164.862C47.9717 164.694 48.4397 164.61 48.9917 164.61C49.3757 164.61 49.7537 164.658 50.1257 164.754C50.4977 164.85 50.8187 164.988 51.0887 165.168L50.7197 166.077C50.4437 165.915 50.1557 165.792 49.8557 165.708C49.5557 165.624 49.2647 165.582 48.9827 165.582C48.5207 165.582 48.1757 165.66 47.9477 165.816C47.7257 165.972 47.6147 166.179 47.6147 166.437C47.6147 166.617 47.6777 166.764 47.8037 166.878C47.9357 166.992 48.1007 167.082 48.2987 167.148C48.4967 167.214 48.7667 167.289 49.1087 167.373C49.5767 167.481 49.9607 167.595 50.2607 167.715C50.5607 167.829 50.8157 168.006 51.0257 168.246C51.2417 168.486 51.3497 168.81 51.3497 169.218C51.3497 169.566 51.2537 169.881 51.0617 170.163C50.8757 170.445 50.5907 170.67 50.2067 170.838C49.8227 171.006 49.3547 171.09 48.8027 171.09ZM52.5098 164.7H55.2638C55.9358 164.7 56.5328 164.832 57.0548 165.096C57.5768 165.354 57.9818 165.723 58.2698 166.203C58.5578 166.677 58.7018 167.226 58.7018 167.85C58.7018 168.474 58.5578 169.026 58.2698 169.506C57.9818 169.98 57.5768 170.349 57.0548 170.613C56.5328 170.871 55.9358 171 55.2638 171H52.5098V164.7ZM55.2098 170.01C55.6718 170.01 56.0768 169.923 56.4248 169.749C56.7788 169.569 57.0488 169.317 57.2348 168.993C57.4268 168.663 57.5228 168.282 57.5228 167.85C57.5228 167.418 57.4268 167.04 57.2348 166.716C57.0488 166.386 56.7788 166.134 56.4248 165.96C56.0768 165.78 55.6718 165.69 55.2098 165.69H53.6798V170.01H55.2098Z" fill="#737373"/>
<rect x="10" y="81" width="58.2353" height="11" fill="#242424"/>
<path d="M18.1355 89.01V90H13.4915V89.217L15.9935 86.841C16.2755 86.571 16.4645 86.337 16.5605 86.139C16.6625 85.935 16.7135 85.734 16.7135 85.536C16.7135 85.242 16.6145 85.017 16.4165 84.861C16.2185 84.705 15.9275 84.627 15.5435 84.627C14.9015 84.627 14.4095 84.846 14.0675 85.284L13.2485 84.654C13.4945 84.324 13.8245 84.069 14.2385 83.889C14.6585 83.703 15.1265 83.61 15.6425 83.61C16.3265 83.61 16.8725 83.772 17.2805 84.096C17.6885 84.42 17.8925 84.861 17.8925 85.419C17.8925 85.761 17.8205 86.082 17.6765 86.382C17.5325 86.682 17.2565 87.024 16.8485 87.408L15.1655 89.01H18.1355ZM26.9141 88.569H25.7981V90H24.6641V88.569H21.2081V87.759L24.3131 83.7H25.5641L22.6391 87.579H24.7001V86.31H25.7981V87.579H26.9141V88.569ZM30.0345 90.09C29.5305 90.09 29.0805 89.964 28.6845 89.712C28.2885 89.454 27.9765 89.082 27.7485 88.596C27.5205 88.104 27.4065 87.522 27.4065 86.85C27.4065 86.178 27.5205 85.599 27.7485 85.113C27.9765 84.621 28.2885 84.249 28.6845 83.997C29.0805 83.739 29.5305 83.61 30.0345 83.61C30.5385 83.61 30.9885 83.739 31.3845 83.997C31.7865 84.249 32.1015 84.621 32.3295 85.113C32.5575 85.599 32.6715 86.178 32.6715 86.85C32.6715 87.522 32.5575 88.104 32.3295 88.596C32.1015 89.082 31.7865 89.454 31.3845 89.712C30.9885 89.964 30.5385 90.09 30.0345 90.09ZM30.0345 89.073C30.4845 89.073 30.8385 88.887 31.0965 88.515C31.3605 88.143 31.4925 87.588 31.4925 86.85C31.4925 86.112 31.3605 85.557 31.0965 85.185C30.8385 84.813 30.4845 84.627 30.0345 84.627C29.5905 84.627 29.2365 84.813 28.9725 85.185C28.7145 85.557 28.5855 86.112 28.5855 86.85C28.5855 87.588 28.7145 88.143 28.9725 88.515C29.2365 88.887 29.5905 89.073 30.0345 89.073ZM36.0902 90.09C35.5862 90.09 35.1362 89.964 34.7402 89.712C34.3442 89.454 34.0322 89.082 33.8042 88.596C33.5762 88.104 33.4622 87.522 33.4622 86.85C33.4622 86.178 33.5762 85.599 33.8042 85.113C34.0322 84.621 34.3442 84.249 34.7402 83.997C35.1362 83.739 35.5862 83.61 36.0902 83.61C36.5942 83.61 37.0442 83.739 37.4402 83.997C37.8422 84.249 38.1572 84.621 38.3852 85.113C38.6132 85.599 38.7272 86.178 38.7272 86.85C38.7272 87.522 38.6132 88.104 38.3852 88.596C38.1572 89.082 37.8422 89.454 37.4402 89.712C37.0442 89.964 36.5942 90.09 36.0902 90.09ZM36.0902 89.073C36.5402 89.073 36.8942 88.887 37.1522 88.515C37.4162 88.143 37.5482 87.588 37.5482 86.85C37.5482 86.112 37.4162 85.557 37.1522 85.185C36.8942 84.813 36.5402 84.627 36.0902 84.627C35.6462 84.627 35.2922 84.813 35.0282 85.185C34.7702 85.557 34.6412 86.112 34.6412 86.85C34.6412 87.588 34.7702 88.143 35.0282 88.515C35.2922 88.887 35.6462 89.073 36.0902 89.073ZM45.1641 90.09C44.2941 90.09 43.6161 89.847 43.1301 89.361C42.6441 88.869 42.4011 88.167 42.4011 87.255V83.7H43.5711V87.21C43.5711 88.446 44.1051 89.064 45.1731 89.064C46.2351 89.064 46.7661 88.446 46.7661 87.21V83.7H47.9181V87.255C47.9181 88.167 47.6751 88.869 47.1891 89.361C46.7091 89.847 46.0341 90.09 45.1641 90.09ZM51.5097 90.09C51.0237 90.09 50.5527 90.021 50.0967 89.883C49.6467 89.745 49.2897 89.562 49.0257 89.334L49.4307 88.425C49.6887 88.629 50.0037 88.797 50.3757 88.929C50.7537 89.055 51.1317 89.118 51.5097 89.118C51.9777 89.118 52.3257 89.043 52.5537 88.893C52.7877 88.743 52.9047 88.545 52.9047 88.299C52.9047 88.119 52.8387 87.972 52.7067 87.858C52.5807 87.738 52.4187 87.645 52.2207 87.579C52.0227 87.513 51.7527 87.438 51.4107 87.354C50.9307 87.24 50.5407 87.126 50.2407 87.012C49.9467 86.898 49.6917 86.721 49.4757 86.481C49.2657 86.235 49.1607 85.905 49.1607 85.491C49.1607 85.143 49.2537 84.828 49.4397 84.546C49.6317 84.258 49.9167 84.03 50.2947 83.862C50.6787 83.694 51.1467 83.61 51.6987 83.61C52.0827 83.61 52.4607 83.658 52.8327 83.754C53.2047 83.85 53.5257 83.988 53.7957 84.168L53.4267 85.077C53.1507 84.915 52.8627 84.792 52.5627 84.708C52.2627 84.624 51.9717 84.582 51.6897 84.582C51.2277 84.582 50.8827 84.66 50.6547 84.816C50.4327 84.972 50.3217 85.179 50.3217 85.437C50.3217 85.617 50.3847 85.764 50.5107 85.878C50.6427 85.992 50.8077 86.082 51.0057 86.148C51.2037 86.214 51.4737 86.289 51.8157 86.373C52.2837 86.481 52.6677 86.595 52.9677 86.715C53.2677 86.829 53.5227 87.006 53.7327 87.246C53.9487 87.486 54.0567 87.81 54.0567 88.218C54.0567 88.566 53.9607 88.881 53.7687 89.163C53.5827 89.445 53.2977 89.67 52.9137 89.838C52.5297 90.006 52.0617 90.09 51.5097 90.09ZM55.2168 83.7H57.9708C58.6428 83.7 59.2398 83.832 59.7618 84.096C60.2839 84.354 60.6888 84.723 60.9768 85.203C61.2649 85.677 61.4089 86.226 61.4089 86.85C61.4089 87.474 61.2649 88.026 60.9768 88.506C60.6888 88.98 60.2839 89.349 59.7618 89.613C59.2398 89.871 58.6428 90 57.9708 90H55.2168V83.7ZM57.9168 89.01C58.3788 89.01 58.7838 88.923 59.1319 88.749C59.4858 88.569 59.7558 88.317 59.9418 87.993C60.1338 87.663 60.2298 87.282 60.2298 86.85C60.2298 86.418 60.1338 86.04 59.9418 85.716C59.7558 85.386 59.4858 85.134 59.1319 84.96C58.7838 84.78 58.3788 84.69 57.9168 84.69H56.3868V89.01H57.9168Z" fill="#737373"/>
<rect x="10" width="58.2353" height="11" fill="#242424"/>
<path d="M16.2545 5.301C16.8365 5.373 17.2805 5.571 17.5865 5.895C17.8925 6.219 18.0455 6.624 18.0455 7.11C18.0455 7.476 17.9525 7.809 17.7665 8.109C17.5805 8.409 17.2985 8.649 16.9205 8.829C16.5485 9.003 16.0925 9.09 15.5525 9.09C15.1025 9.09 14.6675 9.027 14.2475 8.901C13.8335 8.769 13.4795 8.589 13.1855 8.361L13.6895 7.452C13.9175 7.644 14.1935 7.797 14.5175 7.911C14.8475 8.019 15.1865 8.073 15.5345 8.073C15.9485 8.073 16.2725 7.989 16.5065 7.821C16.7465 7.647 16.8665 7.413 16.8665 7.119C16.8665 6.825 16.7525 6.597 16.5245 6.435C16.3025 6.267 15.9605 6.183 15.4985 6.183H14.9225V5.382L16.3535 3.681H13.4915V2.7H17.7845V3.483L16.2545 5.301ZM24.1601 5.112C24.5741 5.112 24.9461 5.193 25.2761 5.355C25.6061 5.511 25.8641 5.736 26.0501 6.03C26.2361 6.324 26.3291 6.663 26.3291 7.047C26.3291 7.455 26.2271 7.815 26.0231 8.127C25.8191 8.433 25.5431 8.67 25.1951 8.838C24.8471 9.006 24.4571 9.09 24.0251 9.09C23.1611 9.09 22.4891 8.82 22.0091 8.28C21.5351 7.74 21.2981 6.966 21.2981 5.958C21.2981 5.25 21.4271 4.647 21.6851 4.149C21.9431 3.645 22.3031 3.264 22.7651 3.006C23.2331 2.742 23.7731 2.61 24.3851 2.61C24.7091 2.61 25.0121 2.646 25.2941 2.718C25.5821 2.784 25.8311 2.883 26.0411 3.015L25.6091 3.897C25.2971 3.693 24.8981 3.591 24.4121 3.591C23.8061 3.591 23.3321 3.777 22.9901 4.149C22.6481 4.521 22.4771 5.058 22.4771 5.76V5.769C22.6631 5.553 22.9001 5.391 23.1881 5.283C23.4761 5.169 23.8001 5.112 24.1601 5.112ZM23.9621 8.172C24.3281 8.172 24.6251 8.076 24.8531 7.884C25.0811 7.686 25.1951 7.425 25.1951 7.101C25.1951 6.771 25.0811 6.51 24.8531 6.318C24.6251 6.126 24.3191 6.03 23.9351 6.03C23.5571 6.03 23.2481 6.132 23.0081 6.336C22.7741 6.54 22.6571 6.798 22.6571 7.11C22.6571 7.416 22.7711 7.671 22.9991 7.875C23.2331 8.073 23.5541 8.172 23.9621 8.172ZM29.5687 9.09C29.0647 9.09 28.6147 8.964 28.2187 8.712C27.8227 8.454 27.5107 8.082 27.2827 7.596C27.0547 7.104 26.9407 6.522 26.9407 5.85C26.9407 5.178 27.0547 4.599 27.2827 4.113C27.5107 3.621 27.8227 3.249 28.2187 2.997C28.6147 2.739 29.0647 2.61 29.5687 2.61C30.0727 2.61 30.5227 2.739 30.9187 2.997C31.3207 3.249 31.6357 3.621 31.8637 4.113C32.0917 4.599 32.2057 5.178 32.2057 5.85C32.2057 6.522 32.0917 7.104 31.8637 7.596C31.6357 8.082 31.3207 8.454 30.9187 8.712C30.5227 8.964 30.0727 9.09 29.5687 9.09ZM29.5687 8.073C30.0187 8.073 30.3727 7.887 30.6307 7.515C30.8947 7.143 31.0267 6.588 31.0267 5.85C31.0267 5.112 30.8947 4.557 30.6307 4.185C30.3727 3.813 30.0187 3.627 29.5687 3.627C29.1247 3.627 28.7707 3.813 28.5067 4.185C28.2487 4.557 28.1197 5.112 28.1197 5.85C28.1197 6.588 28.2487 7.143 28.5067 7.515C28.7707 7.887 29.1247 8.073 29.5687 8.073ZM35.6243 9.09C35.1203 9.09 34.6703 8.964 34.2743 8.712C33.8783 8.454 33.5663 8.082 33.3383 7.596C33.1103 7.104 32.9963 6.522 32.9963 5.85C32.9963 5.178 33.1103 4.599 33.3383 4.113C33.5663 3.621 33.8783 3.249 34.2743 2.997C34.6703 2.739 35.1203 2.61 35.6243 2.61C36.1283 2.61 36.5783 2.739 36.9743 2.997C37.3763 3.249 37.6913 3.621 37.9193 4.113C38.1473 4.599 38.2613 5.178 38.2613 5.85C38.2613 6.522 38.1473 7.104 37.9193 7.596C37.6913 8.082 37.3763 8.454 36.9743 8.712C36.5783 8.964 36.1283 9.09 35.6243 9.09ZM35.6243 8.073C36.0743 8.073 36.4283 7.887 36.6863 7.515C36.9503 7.143 37.0823 6.588 37.0823 5.85C37.0823 5.112 36.9503 4.557 36.6863 4.185C36.4283 3.813 36.0743 3.627 35.6243 3.627C35.1803 3.627 34.8263 3.813 34.5623 4.185C34.3043 4.557 34.1753 5.112 34.1753 5.85C34.1753 6.588 34.3043 7.143 34.5623 7.515C34.8263 7.887 35.1803 8.073 35.6243 8.073ZM44.6983 9.09C43.8283 9.09 43.1503 8.847 42.6643 8.361C42.1783 7.869 41.9353 7.167 41.9353 6.255V2.7H43.1053V6.21C43.1053 7.446 43.6393 8.064 44.7073 8.064C45.7693 8.064 46.3003 7.446 46.3003 6.21V2.7H47.4523V6.255C47.4523 7.167 47.2093 7.869 46.7233 8.361C46.2433 8.847 45.5683 9.09 44.6983 9.09ZM51.0439 9.09C50.5579 9.09 50.0869 9.021 49.6309 8.883C49.1809 8.745 48.8239 8.562 48.5599 8.334L48.9649 7.425C49.2229 7.629 49.5379 7.797 49.9099 7.929C50.2879 8.055 50.6659 8.118 51.0439 8.118C51.5119 8.118 51.8599 8.043 52.0879 7.893C52.3219 7.743 52.4389 7.545 52.4389 7.299C52.4389 7.119 52.3729 6.972 52.2409 6.858C52.1149 6.738 51.9529 6.645 51.7549 6.579C51.5569 6.513 51.2869 6.438 50.9449 6.354C50.4649 6.24 50.0749 6.126 49.7749 6.012C49.4809 5.898 49.2259 5.721 49.0099 5.481C48.7999 5.235 48.6949 4.905 48.6949 4.491C48.6949 4.143 48.7879 3.828 48.9739 3.546C49.1659 3.258 49.4509 3.03 49.8289 2.862C50.2129 2.694 50.6809 2.61 51.2329 2.61C51.6169 2.61 51.9949 2.658 52.3669 2.754C52.7389 2.85 53.0599 2.988 53.3299 3.168L52.9609 4.077C52.6849 3.915 52.3969 3.792 52.0969 3.708C51.7969 3.624 51.5059 3.582 51.2239 3.582C50.7619 3.582 50.4169 3.66 50.1889 3.816C49.9669 3.972 49.8559 4.179 49.8559 4.437C49.8559 4.617 49.9189 4.764 50.0449 4.878C50.1769 4.992 50.3419 5.082 50.5399 5.148C50.7379 5.214 51.0079 5.289 51.3499 5.373C51.8179 5.481 52.2019 5.595 52.5019 5.715C52.8019 5.829 53.0569 6.006 53.2669 6.246C53.4829 6.486 53.5909 6.81 53.5909 7.218C53.5909 7.566 53.4949 7.881 53.3029 8.163C53.1169 8.445 52.8319 8.67 52.4479 8.838C52.0639 9.006 51.5959 9.09 51.0439 9.09ZM54.751 2.7H57.505C58.177 2.7 58.774 2.832 59.296 3.096C59.818 3.354 60.223 3.723 60.511 4.203C60.799 4.677 60.943 5.226 60.943 5.85C60.943 6.474 60.799 7.026 60.511 7.506C60.223 7.98 59.818 8.349 59.296 8.613C58.774 8.871 58.177 9 57.505 9H54.751V2.7ZM57.451 8.01C57.913 8.01 58.318 7.923 58.666 7.749C59.02 7.569 59.29 7.317 59.476 6.993C59.668 6.663 59.764 6.282 59.764 5.85C59.764 5.418 59.668 5.04 59.476 4.716C59.29 4.386 59.02 4.134 58.666 3.96C58.318 3.78 57.913 3.69 57.451 3.69H55.921V8.01H57.451Z" fill="#737373"/>
<defs>
<linearGradient id="paint0_linear" x1="180" y1="7" x2="180" y2="248" gradientUnits="userSpaceOnUse">
<stop stop-color="white" stop-opacity="0.1"/>
<stop offset="1" stop-color="white" stop-opacity="0"/>
</linearGradient>
</defs>
</svg>
