<svg width="360" height="253" viewBox="0 0 360 253" fill="none" xmlns="http://www.w3.org/2000/svg">
  <rect y="247" width="360" height="1" fill="white" fill-opacity="0.07"/>
  <rect y="167" width="360" height="1" fill="white" fill-opacity="0.07"/>
  <rect y="86" width="360" height="1" fill="white" fill-opacity="0.07"/>
  <rect y="5" width="360" height="1" fill="white" fill-opacity="0.07"/>
  <path d="M11.7391 216.268L7.82609 248H360V35.5183L356.087 37.9283L352.174 31.5017L348.261 21.0583L344.348 7L340.435 20.6567L336.522 37.5267L332.609 28.69L328.696 48.3717L324.783 39.9367L320.87 50.38L316.957 61.6267L313.043 57.61L309.13 60.02L305.217 68.0533L301.304 70.865L297.391 80.1033L293.478 82.5133L289.565 66.045L285.652 59.2167L281.739 62.8317L277.826 60.4217L273.913 39.9367L270 33.1083H262.174L258.261 54.3967L254.348 51.1833L250.435 62.0283L246.522 62.8317L242.609 69.2583L238.696 70.865L234.783 67.25L230.87 56.8067L226.957 72.07L223.043 69.2583L219.13 74.48L215.217 77.2917L211.304 74.48L207.391 83.3167L203.478 84.9233L199.565 106.613L195.652 110.63H187.826L183.913 114.647L180 122.278L176.087 135.533L172.174 137.542L168.261 131.115L164.348 129.107L160.435 118.663L156.522 123.082H148.696L144.783 130.312L140.87 132.722L136.957 127.902L133.043 129.508L129.13 137.14L125.217 143.968L121.304 147.182L117.391 145.575L113.478 147.985L109.565 153.608L105.652 151.198L101.739 157.625L97.8261 159.232H93.913L90 172.487L86.087 168.47L82.1739 170.077L78.2609 178.913L74.3478 181.323L70.4348 191.767L66.5217 193.775L62.6087 211.448L58.6957 201.808L54.7826 205.825L50.8696 203.817L46.9565 211.047L43.0435 214.662H35.2174L31.3043 220.687L27.3913 223.097L23.4783 217.875L19.5652 214.26L15.6522 216.268H11.7391Z" fill="url(#paint0_linear)"/>
  <path d="M0 248H3.91304H7.82609L11.7391 216.268H15.6522L19.5652 214.26L23.4783 217.875L27.3913 223.097L31.3043 220.687L35.2174 214.662H43.0435L46.9565 211.047L50.8696 203.817L54.7826 205.825L58.6957 201.808L62.6087 211.448L66.5217 193.775L70.4348 191.767L74.3478 181.323L78.2609 178.913L82.1739 170.077L86.087 168.47L90 172.487L93.913 159.232H97.8261L101.739 157.625L105.652 151.198L109.565 153.608L113.478 147.985L117.391 145.575L121.304 147.182L125.217 143.968L129.13 137.14L133.043 129.508L136.957 127.902L140.87 132.722L144.783 130.312L148.696 123.082H156.522L160.435 118.663L164.348 129.107L168.261 131.115L172.174 137.542L176.087 135.533L180 122.278L183.913 114.647L187.826 110.63H195.652L199.565 106.613L203.478 84.9233L207.391 83.3167L211.304 74.48L215.217 77.2917L219.13 74.48L223.043 69.2583L226.957 72.07L230.87 56.8067L234.783 67.25L238.696 70.865L242.609 69.2583L246.522 62.8317L250.435 62.0283L254.348 51.1833L258.261 54.3967L262.174 33.1083H270L273.913 39.9367L277.826 60.4217L281.739 62.8317L285.652 59.2167L289.565 66.045L293.478 82.5133L297.391 80.1033L301.304 70.865L305.217 68.0533L309.13 60.02L313.043 57.61L316.957 61.6267L320.87 50.38L324.783 39.9367L328.696 48.3717L332.609 28.69L336.522 37.5267L340.435 20.6567L344.348 7L348.261 21.0583L352.174 31.5017L356.087 37.9283L360 35.5183" stroke="white" stroke-opacity="0.5" stroke-linejoin="round"/>
  <rect y="242" width="25.0696" height="11" fill="#242424"/>
  <path d="M6.36836 251.1C5.80836 251.1 5.30836 250.96 4.86836 250.68C4.42836 250.393 4.0817 249.98 3.82836 249.44C3.57503 248.893 3.44836 248.247 3.44836 247.5C3.44836 246.753 3.57503 246.11 3.82836 245.57C4.0817 245.023 4.42836 244.61 4.86836 244.33C5.30836 244.043 5.80836 243.9 6.36836 243.9C6.92836 243.9 7.42836 244.043 7.86836 244.33C8.31503 244.61 8.66503 245.023 8.91836 245.57C9.1717 246.11 9.29836 246.753 9.29836 247.5C9.29836 248.247 9.1717 248.893 8.91836 249.44C8.66503 249.98 8.31503 250.393 7.86836 250.68C7.42836 250.96 6.92836 251.1 6.36836 251.1ZM6.36836 249.97C6.86836 249.97 7.2617 249.763 7.54836 249.35C7.8417 248.937 7.98836 248.32 7.98836 247.5C7.98836 246.68 7.8417 246.063 7.54836 245.65C7.2617 245.237 6.86836 245.03 6.36836 245.03C5.87503 245.03 5.4817 245.237 5.18836 245.65C4.9017 246.063 4.75836 246.68 4.75836 247.5C4.75836 248.32 4.9017 248.937 5.18836 249.35C5.4817 249.763 5.87503 249.97 6.36836 249.97ZM14.5005 247.77C14.0005 247.77 13.5972 247.593 13.2905 247.24C12.9839 246.887 12.8305 246.423 12.8305 245.85C12.8305 245.277 12.9839 244.813 13.2905 244.46C13.5972 244.107 14.0005 243.93 14.5005 243.93C15.0005 243.93 15.4039 244.107 15.7105 244.46C16.0239 244.807 16.1805 245.27 16.1805 245.85C16.1805 246.43 16.0239 246.897 15.7105 247.25C15.4039 247.597 15.0005 247.77 14.5005 247.77ZM18.7005 244H19.6805L14.9005 251H13.9205L18.7005 244ZM14.5005 247.07C14.7739 247.07 14.9839 246.963 15.1305 246.75C15.2839 246.537 15.3605 246.237 15.3605 245.85C15.3605 245.463 15.2839 245.163 15.1305 244.95C14.9839 244.737 14.7739 244.63 14.5005 244.63C14.2405 244.63 14.0305 244.74 13.8705 244.96C13.7172 245.173 13.6405 245.47 13.6405 245.85C13.6405 246.23 13.7172 246.53 13.8705 246.75C14.0305 246.963 14.2405 247.07 14.5005 247.07ZM19.0905 251.07C18.5905 251.07 18.1872 250.893 17.8805 250.54C17.5739 250.187 17.4205 249.723 17.4205 249.15C17.4205 248.577 17.5739 248.113 17.8805 247.76C18.1872 247.407 18.5905 247.23 19.0905 247.23C19.5905 247.23 19.9939 247.407 20.3005 247.76C20.6139 248.113 20.7705 248.577 20.7705 249.15C20.7705 249.723 20.6139 250.187 20.3005 250.54C19.9939 250.893 19.5905 251.07 19.0905 251.07ZM19.0905 250.37C19.3572 250.37 19.5672 250.263 19.7205 250.05C19.8739 249.83 19.9505 249.53 19.9505 249.15C19.9505 248.77 19.8739 248.473 19.7205 248.26C19.5672 248.04 19.3572 247.93 19.0905 247.93C18.8239 247.93 18.6139 248.037 18.4605 248.25C18.3072 248.463 18.2305 248.763 18.2305 249.15C18.2305 249.537 18.3072 249.837 18.4605 250.05C18.6139 250.263 18.8239 250.37 19.0905 250.37Z" fill="#737373"/>
  <rect y="162" width="35.0975" height="11" fill="#242424"/>
  <path d="M5.86836 164V171H4.56836V165.09H3.08836V164H5.86836ZM10.177 171.1C9.61696 171.1 9.11696 170.96 8.67696 170.68C8.23696 170.393 7.89029 169.98 7.63696 169.44C7.38362 168.893 7.25696 168.247 7.25696 167.5C7.25696 166.753 7.38362 166.11 7.63696 165.57C7.89029 165.023 8.23696 164.61 8.67696 164.33C9.11696 164.043 9.61696 163.9 10.177 163.9C10.737 163.9 11.237 164.043 11.677 164.33C12.1236 164.61 12.4736 165.023 12.727 165.57C12.9803 166.11 13.107 166.753 13.107 167.5C13.107 168.247 12.9803 168.893 12.727 169.44C12.4736 169.98 12.1236 170.393 11.677 170.68C11.237 170.96 10.737 171.1 10.177 171.1ZM10.177 169.97C10.677 169.97 11.0703 169.763 11.357 169.35C11.6503 168.937 11.797 168.32 11.797 167.5C11.797 166.68 11.6503 166.063 11.357 165.65C11.0703 165.237 10.677 165.03 10.177 165.03C9.68362 165.03 9.29029 165.237 8.99696 165.65C8.71029 166.063 8.56696 166.68 8.56696 167.5C8.56696 168.32 8.71029 168.937 8.99696 169.35C9.29029 169.763 9.68362 169.97 10.177 169.97ZM16.9055 171.1C16.3455 171.1 15.8455 170.96 15.4055 170.68C14.9655 170.393 14.6188 169.98 14.3655 169.44C14.1121 168.893 13.9855 168.247 13.9855 167.5C13.9855 166.753 14.1121 166.11 14.3655 165.57C14.6188 165.023 14.9655 164.61 15.4055 164.33C15.8455 164.043 16.3455 163.9 16.9055 163.9C17.4655 163.9 17.9655 164.043 18.4055 164.33C18.8521 164.61 19.2021 165.023 19.4555 165.57C19.7088 166.11 19.8355 166.753 19.8355 167.5C19.8355 168.247 19.7088 168.893 19.4555 169.44C19.2021 169.98 18.8521 170.393 18.4055 170.68C17.9655 170.96 17.4655 171.1 16.9055 171.1ZM16.9055 169.97C17.4055 169.97 17.7988 169.763 18.0855 169.35C18.3788 168.937 18.5255 168.32 18.5255 167.5C18.5255 166.68 18.3788 166.063 18.0855 165.65C17.7988 165.237 17.4055 165.03 16.9055 165.03C16.4121 165.03 16.0188 165.237 15.7255 165.65C15.4388 166.063 15.2955 166.68 15.2955 167.5C15.2955 168.32 15.4388 168.937 15.7255 169.35C16.0188 169.763 16.4121 169.97 16.9055 169.97ZM25.0377 167.77C24.5377 167.77 24.1343 167.593 23.8277 167.24C23.521 166.887 23.3677 166.423 23.3677 165.85C23.3677 165.277 23.521 164.813 23.8277 164.46C24.1343 164.107 24.5377 163.93 25.0377 163.93C25.5377 163.93 25.941 164.107 26.2477 164.46C26.561 164.807 26.7177 165.27 26.7177 165.85C26.7177 166.43 26.561 166.897 26.2477 167.25C25.941 167.597 25.5377 167.77 25.0377 167.77ZM29.2377 164H30.2177L25.4377 171H24.4577L29.2377 164ZM25.0377 167.07C25.311 167.07 25.521 166.963 25.6677 166.75C25.821 166.537 25.8977 166.237 25.8977 165.85C25.8977 165.463 25.821 165.163 25.6677 164.95C25.521 164.737 25.311 164.63 25.0377 164.63C24.7777 164.63 24.5677 164.74 24.4077 164.96C24.2543 165.173 24.1777 165.47 24.1777 165.85C24.1777 166.23 24.2543 166.53 24.4077 166.75C24.5677 166.963 24.7777 167.07 25.0377 167.07ZM29.6277 171.07C29.1277 171.07 28.7243 170.893 28.4177 170.54C28.111 170.187 27.9577 169.723 27.9577 169.15C27.9577 168.577 28.111 168.113 28.4177 167.76C28.7243 167.407 29.1277 167.23 29.6277 167.23C30.1277 167.23 30.531 167.407 30.8377 167.76C31.151 168.113 31.3077 168.577 31.3077 169.15C31.3077 169.723 31.151 170.187 30.8377 170.54C30.531 170.893 30.1277 171.07 29.6277 171.07ZM29.6277 170.37C29.8943 170.37 30.1043 170.263 30.2577 170.05C30.411 169.83 30.4877 169.53 30.4877 169.15C30.4877 168.77 30.411 168.473 30.2577 168.26C30.1043 168.04 29.8943 167.93 29.6277 167.93C29.361 167.93 29.151 168.037 28.9977 168.25C28.8443 168.463 28.7677 168.763 28.7677 169.15C28.7677 169.537 28.8443 169.837 28.9977 170.05C29.151 170.263 29.361 170.37 29.6277 170.37Z" fill="#737373"/>
  <rect y="81" width="37.1031" height="11" fill="#242424"/>
  <path d="M8.51836 88.9V90H3.35836V89.13L6.13836 86.49C6.4517 86.19 6.6617 85.93 6.76836 85.71C6.8817 85.4833 6.93836 85.26 6.93836 85.04C6.93836 84.7133 6.82836 84.4633 6.60836 84.29C6.38836 84.1167 6.06503 84.03 5.63836 84.03C4.92503 84.03 4.37836 84.2733 3.99836 84.76L3.08836 84.06C3.3617 83.6933 3.72836 83.41 4.18836 83.21C4.65503 83.0033 5.17503 82.9 5.74836 82.9C6.50836 82.9 7.11503 83.08 7.56836 83.44C8.0217 83.8 8.24836 84.29 8.24836 84.91C8.24836 85.29 8.16836 85.6467 8.00836 85.98C7.84836 86.3133 7.5417 86.6933 7.08836 87.12L5.21836 88.9H8.51836ZM12.1594 90.1C11.5994 90.1 11.0994 89.96 10.6594 89.68C10.2194 89.3933 9.87271 88.98 9.61938 88.44C9.36604 87.8933 9.23938 87.2467 9.23938 86.5C9.23938 85.7533 9.36604 85.11 9.61938 84.57C9.87271 84.0233 10.2194 83.61 10.6594 83.33C11.0994 83.0433 11.5994 82.9 12.1594 82.9C12.7194 82.9 13.2194 83.0433 13.6594 83.33C14.106 83.61 14.456 84.0233 14.7094 84.57C14.9627 85.11 15.0894 85.7533 15.0894 86.5C15.0894 87.2467 14.9627 87.8933 14.7094 88.44C14.456 88.98 14.106 89.3933 13.6594 89.68C13.2194 89.96 12.7194 90.1 12.1594 90.1ZM12.1594 88.97C12.6594 88.97 13.0527 88.7633 13.3394 88.35C13.6327 87.9367 13.7794 87.32 13.7794 86.5C13.7794 85.68 13.6327 85.0633 13.3394 84.65C13.0527 84.2367 12.6594 84.03 12.1594 84.03C11.666 84.03 11.2727 84.2367 10.9794 84.65C10.6927 85.0633 10.5494 85.68 10.5494 86.5C10.5494 87.32 10.6927 87.9367 10.9794 88.35C11.2727 88.7633 11.666 88.97 12.1594 88.97ZM18.8879 90.1C18.3279 90.1 17.8279 89.96 17.3879 89.68C16.9479 89.3933 16.6012 88.98 16.3479 88.44C16.0946 87.8933 15.9679 87.2467 15.9679 86.5C15.9679 85.7533 16.0946 85.11 16.3479 84.57C16.6012 84.0233 16.9479 83.61 17.3879 83.33C17.8279 83.0433 18.3279 82.9 18.8879 82.9C19.4479 82.9 19.9479 83.0433 20.3879 83.33C20.8346 83.61 21.1846 84.0233 21.4379 84.57C21.6912 85.11 21.8179 85.7533 21.8179 86.5C21.8179 87.2467 21.6912 87.8933 21.4379 88.44C21.1846 88.98 20.8346 89.3933 20.3879 89.68C19.9479 89.96 19.4479 90.1 18.8879 90.1ZM18.8879 88.97C19.3879 88.97 19.7812 88.7633 20.0679 88.35C20.3612 87.9367 20.5079 87.32 20.5079 86.5C20.5079 85.68 20.3612 85.0633 20.0679 84.65C19.7812 84.2367 19.3879 84.03 18.8879 84.03C18.3946 84.03 18.0012 84.2367 17.7079 84.65C17.4212 85.0633 17.2779 85.68 17.2779 86.5C17.2779 87.32 17.4212 87.9367 17.7079 88.35C18.0012 88.7633 18.3946 88.97 18.8879 88.97ZM27.0201 86.77C26.5201 86.77 26.1167 86.5933 25.8101 86.24C25.5034 85.8867 25.3501 85.4233 25.3501 84.85C25.3501 84.2767 25.5034 83.8133 25.8101 83.46C26.1167 83.1067 26.5201 82.93 27.0201 82.93C27.5201 82.93 27.9234 83.1067 28.2301 83.46C28.5434 83.8067 28.7001 84.27 28.7001 84.85C28.7001 85.43 28.5434 85.8967 28.2301 86.25C27.9234 86.5967 27.5201 86.77 27.0201 86.77ZM31.2201 83H32.2001L27.4201 90H26.4401L31.2201 83ZM27.0201 86.07C27.2934 86.07 27.5034 85.9633 27.6501 85.75C27.8034 85.5367 27.8801 85.2367 27.8801 84.85C27.8801 84.4633 27.8034 84.1633 27.6501 83.95C27.5034 83.7367 27.2934 83.63 27.0201 83.63C26.7601 83.63 26.5501 83.74 26.3901 83.96C26.2367 84.1733 26.1601 84.47 26.1601 84.85C26.1601 85.23 26.2367 85.53 26.3901 85.75C26.5501 85.9633 26.7601 86.07 27.0201 86.07ZM31.6101 90.07C31.1101 90.07 30.7067 89.8933 30.4001 89.54C30.0934 89.1867 29.9401 88.7233 29.9401 88.15C29.9401 87.5767 30.0934 87.1133 30.4001 86.76C30.7067 86.4067 31.1101 86.23 31.6101 86.23C32.1101 86.23 32.5134 86.4067 32.8201 86.76C33.1334 87.1133 33.2901 87.5767 33.2901 88.15C33.2901 88.7233 33.1334 89.1867 32.8201 89.54C32.5134 89.8933 32.1101 90.07 31.6101 90.07ZM31.6101 89.37C31.8767 89.37 32.0867 89.2633 32.2401 89.05C32.3934 88.83 32.4701 88.53 32.4701 88.15C32.4701 87.77 32.3934 87.4733 32.2401 87.26C32.0867 87.04 31.8767 86.93 31.6101 86.93C31.3434 86.93 31.1334 87.0367 30.9801 87.25C30.8267 87.4633 30.7501 87.7633 30.7501 88.15C30.7501 88.5367 30.8267 88.8367 30.9801 89.05C31.1334 89.2633 31.3434 89.37 31.6101 89.37Z" fill="#737373"/>
  <rect width="37.1031" height="11" fill="#242424"/>
  <path d="M6.42836 4.89C7.07503 4.97 7.56836 5.19 7.90836 5.55C8.24836 5.91 8.41836 6.36 8.41836 6.9C8.41836 7.30667 8.31503 7.67667 8.10836 8.01C7.9017 8.34333 7.58836 8.61 7.16836 8.81C6.75503 9.00333 6.24836 9.1 5.64836 9.1C5.14836 9.1 4.66503 9.03 4.19836 8.89C3.73836 8.74333 3.34503 8.54333 3.01836 8.29L3.57836 7.28C3.8317 7.49333 4.13836 7.66333 4.49836 7.79C4.86503 7.91 5.2417 7.97 5.62836 7.97C6.08836 7.97 6.44836 7.87667 6.70836 7.69C6.97503 7.49667 7.10836 7.23667 7.10836 6.91C7.10836 6.58333 6.9817 6.33 6.72836 6.15C6.4817 5.96333 6.1017 5.87 5.58836 5.87H4.94836V4.98L6.53836 3.09H3.35836V2H8.12836V2.87L6.42836 4.89ZM12.1887 9.1C11.6287 9.1 11.1287 8.96 10.6887 8.68C10.2487 8.39333 9.90201 7.98 9.64867 7.44C9.39534 6.89333 9.26867 6.24667 9.26867 5.5C9.26867 4.75333 9.39534 4.11 9.64867 3.57C9.90201 3.02333 10.2487 2.61 10.6887 2.33C11.1287 2.04333 11.6287 1.9 12.1887 1.9C12.7487 1.9 13.2487 2.04333 13.6887 2.33C14.1353 2.61 14.4853 3.02333 14.7387 3.57C14.992 4.11 15.1187 4.75333 15.1187 5.5C15.1187 6.24667 14.992 6.89333 14.7387 7.44C14.4853 7.98 14.1353 8.39333 13.6887 8.68C13.2487 8.96 12.7487 9.1 12.1887 9.1ZM12.1887 7.97C12.6887 7.97 13.082 7.76333 13.3687 7.35C13.662 6.93667 13.8087 6.32 13.8087 5.5C13.8087 4.68 13.662 4.06333 13.3687 3.65C13.082 3.23667 12.6887 3.03 12.1887 3.03C11.6953 3.03 11.302 3.23667 11.0087 3.65C10.722 4.06333 10.5787 4.68 10.5787 5.5C10.5787 6.32 10.722 6.93667 11.0087 7.35C11.302 7.76333 11.6953 7.97 12.1887 7.97ZM18.9172 9.1C18.3572 9.1 17.8572 8.96 17.4172 8.68C16.9772 8.39333 16.6305 7.98 16.3772 7.44C16.1239 6.89333 15.9972 6.24667 15.9972 5.5C15.9972 4.75333 16.1239 4.11 16.3772 3.57C16.6305 3.02333 16.9772 2.61 17.4172 2.33C17.8572 2.04333 18.3572 1.9 18.9172 1.9C19.4772 1.9 19.9772 2.04333 20.4172 2.33C20.8639 2.61 21.2139 3.02333 21.4672 3.57C21.7205 4.11 21.8472 4.75333 21.8472 5.5C21.8472 6.24667 21.7205 6.89333 21.4672 7.44C21.2139 7.98 20.8639 8.39333 20.4172 8.68C19.9772 8.96 19.4772 9.1 18.9172 9.1ZM18.9172 7.97C19.4172 7.97 19.8105 7.76333 20.0972 7.35C20.3905 6.93667 20.5372 6.32 20.5372 5.5C20.5372 4.68 20.3905 4.06333 20.0972 3.65C19.8105 3.23667 19.4172 3.03 18.9172 3.03C18.4239 3.03 18.0305 3.23667 17.7372 3.65C17.4505 4.06333 17.3072 4.68 17.3072 5.5C17.3072 6.32 17.4505 6.93667 17.7372 7.35C18.0305 7.76333 18.4239 7.97 18.9172 7.97ZM27.0494 5.77C26.5494 5.77 26.146 5.59333 25.8394 5.24C25.5327 4.88667 25.3794 4.42333 25.3794 3.85C25.3794 3.27667 25.5327 2.81333 25.8394 2.46C26.146 2.10667 26.5494 1.93 27.0494 1.93C27.5494 1.93 27.9527 2.10667 28.2594 2.46C28.5727 2.80667 28.7294 3.27 28.7294 3.85C28.7294 4.43 28.5727 4.89667 28.2594 5.25C27.9527 5.59667 27.5494 5.77 27.0494 5.77ZM31.2494 2H32.2294L27.4494 9H26.4694L31.2494 2ZM27.0494 5.07C27.3227 5.07 27.5327 4.96333 27.6794 4.75C27.8327 4.53667 27.9094 4.23667 27.9094 3.85C27.9094 3.46333 27.8327 3.16333 27.6794 2.95C27.5327 2.73667 27.3227 2.63 27.0494 2.63C26.7894 2.63 26.5794 2.74 26.4194 2.96C26.266 3.17333 26.1894 3.47 26.1894 3.85C26.1894 4.23 26.266 4.53 26.4194 4.75C26.5794 4.96333 26.7894 5.07 27.0494 5.07ZM31.6394 9.07C31.1394 9.07 30.736 8.89333 30.4294 8.54C30.1227 8.18667 29.9694 7.72333 29.9694 7.15C29.9694 6.57667 30.1227 6.11333 30.4294 5.76C30.736 5.40667 31.1394 5.23 31.6394 5.23C32.1394 5.23 32.5427 5.40667 32.8494 5.76C33.1627 6.11333 33.3194 6.57667 33.3194 7.15C33.3194 7.72333 33.1627 8.18667 32.8494 8.54C32.5427 8.89333 32.1394 9.07 31.6394 9.07ZM31.6394 8.37C31.906 8.37 32.116 8.26333 32.2694 8.05C32.4227 7.83 32.4994 7.53 32.4994 7.15C32.4994 6.77 32.4227 6.47333 32.2694 6.26C32.116 6.04 31.906 5.93 31.6394 5.93C31.3727 5.93 31.1627 6.03667 31.0094 6.25C30.856 6.46333 30.7794 6.76333 30.7794 7.15C30.7794 7.53667 30.856 7.83667 31.0094 8.05C31.1627 8.26333 31.3727 8.37 31.6394 8.37Z" fill="#737373"/>
  <defs>
    <linearGradient id="paint0_linear" x1="180" y1="7" x2="180" y2="248" gradientUnits="userSpaceOnUse">
      <stop stop-color="white" stop-opacity="0.1"/>
      <stop offset="1" stop-color="white" stop-opacity="0"/>
    </linearGradient>
  </defs>
</svg>
