<svg width="20" height="20" viewBox="0 0 20 20" fill="none" xmlns="http://www.w3.org/2000/svg">
<g clip-path="url(#clip0)">
<path d="M19.4141 0H0.585938C0.262344 0 0 0.251413 0 0.561523V14.9964C0 15.3065 0.262344 15.5579 0.585938 15.5579H9.41406V18.0436H8.11719C7.79359 18.0436 7.53125 18.295 7.53125 18.6051C7.53125 18.9153 7.79359 19.1667 8.11719 19.1667H11.8828C12.2064 19.1667 12.4688 18.9153 12.4688 18.6051C12.4688 18.295 12.2064 18.0436 11.8828 18.0436H10.5859V15.5579H19.4141C19.7377 15.5579 20 15.3065 20 14.9964V0.561523C20 0.251413 19.7377 0 19.4141 0ZM18.8281 14.4349H1.17188V1.12305H18.8281V14.4349Z" fill="#E52525"/>
<path d="M15.6484 3.60864H4.35156C4.02797 3.60864 3.76562 3.86006 3.76562 4.17017V11.3876C3.76562 11.6977 4.02797 11.9491 4.35156 11.9491H15.6484C15.972 11.9491 16.2344 11.6977 16.2344 11.3876V4.17017C16.2344 3.86006 15.972 3.60864 15.6484 3.60864ZM15.0625 10.8261H4.9375V7.36463H15.0625V10.8261ZM15.0625 6.24159H4.9375V4.73169H15.0625V6.24159Z" fill="#E52525"/>
<path d="M13.3047 8.48779H11.1719C10.8483 8.48779 10.5859 8.73921 10.5859 9.04932C10.5859 9.35943 10.8483 9.61085 11.1719 9.61085H13.3047C13.6283 9.61085 13.8906 9.35943 13.8906 9.04932C13.8906 8.73921 13.6283 8.48779 13.3047 8.48779Z" fill="#E52525"/>
</g>
<defs>
<clipPath id="clip0">
<rect width="20" height="19.1667" fill="white"/>
</clipPath>
</defs>
</svg>
