<svg width="16" height="20" viewBox="0 0 16 20" fill="none" xmlns="http://www.w3.org/2000/svg">
<path d="M14.868 4.20161C15.116 4.17061 15.3176 3.98456 15.3796 3.7365C15.4416 3.50394 15.3641 3.24037 15.178 3.08533C13.5656 1.72099 11.5036 0.961304 9.37958 0.961304C4.40284 0.961304 0.34082 5.00782 0.34082 10.0001C0.34082 14.9923 4.38733 19.0388 9.37958 19.0388C11.6121 19.0388 13.7672 18.2016 15.4416 16.6977C15.6276 16.5272 15.6897 16.2636 15.6276 16.0311C15.5656 15.7985 15.3486 15.628 15.1005 15.597C12.2168 15.2559 10.0307 12.8063 10.0307 9.89154C10.0152 7.02332 12.0618 4.63572 14.868 4.20161ZM8.74392 9.87603C8.74392 12.9458 10.7284 15.597 13.5501 16.5427C12.3098 17.3334 10.868 17.7675 9.37958 17.7675C5.10051 17.7675 1.62764 14.2791 1.62764 10.0156C1.62764 5.752 5.11601 2.26363 9.37958 2.26363C10.7594 2.26363 12.1083 2.63572 13.2866 3.31789C10.5889 4.31014 8.74392 6.88378 8.74392 9.87603Z" fill="#737373"/>
</svg>
