<svg width="20" height="20" viewBox="0 0 20 20" fill="none" xmlns="http://www.w3.org/2000/svg">
<path d="M17.0711 2.80687C15.1823 0.996816 12.6711 0 10 0C7.32891 0 4.81766 0.996816 2.92891 2.80687C1.0402 4.61692 0 7.02354 0 9.58333C0 12.1431 1.0402 14.5497 2.92891 16.3598C4.81766 18.1698 7.32891 19.1667 10 19.1667C12.6711 19.1667 15.1823 18.1698 17.0711 16.3598C18.9598 14.5497 20 12.1431 20 9.58333C20 7.02354 18.9598 4.61692 17.0711 2.80687ZM10 18.0436C5.13215 18.0436 1.17188 14.2484 1.17188 9.58333C1.17188 4.91831 5.13215 1.12305 10 1.12305C14.8679 1.12305 18.8281 4.91831 18.8281 9.58333C18.8281 14.2484 14.8679 18.0436 10 18.0436Z" fill="#737373"/>
<path d="M10.6276 9.02188H9.37241C8.65729 9.02188 8.07553 8.46436 8.07553 7.77908C8.07553 7.09375 8.65733 6.53624 9.37241 6.53624H11.8828C12.2064 6.53624 12.4688 6.28482 12.4688 5.97471C12.4688 5.6646 12.2064 5.41319 11.8828 5.41319H10.586V4.17035C10.586 3.86024 10.3236 3.60883 10 3.60883C9.67643 3.60883 9.41409 3.86024 9.41409 4.17035V5.41319H9.37245C8.01116 5.41319 6.9037 6.47454 6.9037 7.77908C6.9037 9.08361 8.0112 10.1449 9.37245 10.1449H10.6277C11.3428 10.1449 11.9245 10.7025 11.9245 11.3878C11.9245 12.073 11.3428 12.6306 10.6277 12.6306H8.11725C7.79366 12.6306 7.53131 12.882 7.53131 13.1921C7.53131 13.5022 7.79366 13.7536 8.11725 13.7536H9.41409V14.9965C9.41409 15.3066 9.67643 15.558 10 15.558C10.3236 15.558 10.586 15.3066 10.586 14.9965V13.7536H10.6276C11.9889 13.7536 13.0964 12.6923 13.0964 11.3878C13.0964 10.0832 11.9889 9.02188 10.6276 9.02188Z" fill="#737373"/>
</svg>
