<svg width="20" height="20" viewBox="0 0 20 20" fill="none" xmlns="http://www.w3.org/2000/svg">
<g clip-path="url(#clip0)">
<path d="M19.9213 18.1113L18.5483 14.1155C19.2087 12.7806 19.558 11.2926 19.5603 9.79546C19.5643 7.21726 18.5667 4.77941 16.7514 2.93113C14.9357 1.0825 12.5162 0.0419579 9.93867 0.00105948C8.58824 -0.0206202 7.27786 0.228207 6.04192 0.739808C4.84985 1.23328 3.78083 1.94809 2.86458 2.86434C1.9483 3.78058 1.23349 4.84961 0.740057 6.04167C0.228456 7.27761 -0.0200981 8.58866 0.001269 9.93842C0.0420892 12.516 1.08267 14.9354 2.9313 16.7511C4.77599 18.563 7.20754 19.5602 9.7802 19.5602C9.78523 19.5602 9.79055 19.5602 9.79559 19.5602C11.2928 19.5578 12.7807 19.2086 14.1157 18.5482L18.1115 19.9212C18.2651 19.974 18.4226 19.9997 18.5784 19.9997C18.9485 19.9997 19.3085 19.8543 19.5815 19.5813C19.9693 19.1934 20.0996 18.6302 19.9213 18.1113ZM18.743 18.7429C18.7037 18.7822 18.6194 18.8419 18.4967 18.7998L14.2626 17.3449C14.2 17.3234 14.1349 17.3127 14.07 17.3127C13.9743 17.3127 13.879 17.3358 13.7927 17.3815C12.569 18.0289 11.1862 18.3722 9.79371 18.3743C5.1238 18.3819 1.26084 14.5888 1.18685 9.91963C1.14963 7.57046 2.04322 5.36261 3.70302 3.70281C5.36282 2.04305 7.57 1.14961 9.91984 1.18676C14.589 1.26078 18.3817 5.12183 18.3745 9.79362C18.3723 11.1861 18.029 12.5689 17.3816 13.7926C17.305 13.9374 17.2917 14.1075 17.345 14.2625L18.7999 18.4966C18.8421 18.6192 18.7824 18.7036 18.743 18.7429Z" fill="#E52525"/>
<path d="M9.68421 14.1699C9.37409 14.1699 9.07698 14.4426 9.09132 14.7628C9.10569 15.084 9.35183 15.3557 9.68421 15.3557C9.99433 15.3557 10.2914 15.083 10.2771 14.7628C10.2627 14.4416 10.0166 14.1699 9.68421 14.1699Z" fill="#E52525"/>
<path d="M9.68417 4.9873C8.05765 4.9873 6.73438 6.31058 6.73438 7.9371C6.73438 8.26453 6.99984 8.52999 7.32726 8.52999C7.65469 8.52999 7.92015 8.26453 7.92015 7.9371C7.92015 6.96445 8.71152 6.17308 9.68417 6.17308C10.6568 6.17308 11.4482 6.96445 11.4482 7.9371C11.4482 8.90976 10.6568 9.70113 9.68417 9.70113C9.35675 9.70113 9.09128 9.96659 9.09128 10.294V12.7122C9.09128 13.0396 9.35675 13.3051 9.68417 13.3051C10.0116 13.3051 10.2771 13.0396 10.2771 12.7121V10.827C11.6204 10.5518 12.634 9.36062 12.634 7.9371C12.634 6.31058 11.3107 4.9873 9.68417 4.9873Z" fill="#E52525"/>
</g>
<defs>
<clipPath id="clip0">
<rect width="20" height="20" fill="white"/>
</clipPath>
</defs>
</svg>
