<svg width="20" height="20" viewBox="0 0 20 20" fill="none" xmlns="http://www.w3.org/2000/svg">
<path d="M19.9213 18.1113L18.5483 14.1155C19.2087 12.7806 19.558 11.2926 19.5603 9.79546C19.5643 7.21726 18.5667 4.77941 16.7514 2.93113C14.9357 1.0825 12.5162 0.0419579 9.93867 0.00105948C8.58824 -0.0206202 7.27786 0.228207 6.04192 0.739808C4.84985 1.23328 3.78083 1.94809 2.86458 2.86434C1.9483 3.78058 1.23349 4.84961 0.740057 6.04167C0.228456 7.27761 -0.0200981 8.58866 0.001269 9.93842C0.0420892 12.516 1.08267 14.9354 2.9313 16.7511C4.77599 18.563 7.20754 19.5602 9.7802 19.5602C9.78523 19.5602 9.79055 19.5602 9.79559 19.5602C11.2928 19.5578 12.7807 19.2086 14.1157 18.5482L18.1115 19.9212C18.2651 19.974 18.4226 19.9997 18.5784 19.9997C18.9485 19.9997 19.3085 19.8543 19.5815 19.5813C19.9693 19.1934 20.0996 18.6302 19.9213 18.1113ZM18.743 18.7429C18.7037 18.7822 18.6194 18.8419 18.4967 18.7998L14.2626 17.3449C14.2 17.3234 14.1349 17.3127 14.07 17.3127C13.9743 17.3127 13.879 17.3358 13.7927 17.3815C12.569 18.0289 11.1862 18.3722 9.79371 18.3743C5.1238 18.3819 1.26084 14.5888 1.18685 9.91963C1.14963 7.57046 2.04322 5.36261 3.70302 3.70281C5.36282 2.04305 7.57 1.14961 9.91984 1.18676C14.589 1.26078 18.3817 5.12183 18.3745 9.79362C18.3723 11.1861 18.029 12.5689 17.3816 13.7926C17.305 13.9374 17.2917 14.1075 17.345 14.2625L18.7999 18.4966C18.8421 18.6192 18.7824 18.7036 18.743 18.7429Z" fill="#737373"/>
<path d="M9.68376 14.1698C9.37364 14.1698 9.07653 14.4425 9.09087 14.7627C9.10524 15.0839 9.35138 15.3556 9.68376 15.3556C9.99388 15.3556 10.291 15.0829 10.2767 14.7627C10.2623 14.4415 10.0161 14.1698 9.68376 14.1698Z" fill="#737373"/>
<path d="M9.68373 4.98716C8.05721 4.98716 6.73394 6.31043 6.73394 7.93696C6.73394 8.26438 6.9994 8.52985 7.32683 8.52985C7.65425 8.52985 7.91972 8.26438 7.91972 7.93696C7.91972 6.9643 8.71108 6.17294 9.68373 6.17294C10.6564 6.17294 11.4478 6.9643 11.4478 7.93696C11.4478 8.90961 10.6564 9.70098 9.68373 9.70098C9.35631 9.70098 9.09085 9.96644 9.09085 10.2939V12.712C9.09085 13.0394 9.35631 13.3049 9.68373 13.3049C10.0112 13.3049 10.2766 13.0395 10.2766 12.712V10.8269C11.6199 10.5517 12.6335 9.36047 12.6335 7.93696C12.6335 6.31043 11.3103 4.98716 9.68373 4.98716Z" fill="#737373"/>
</svg>
