<svg width="20" height="18" viewBox="0 0 20 18" fill="none" xmlns="http://www.w3.org/2000/svg">
<path d="M19.7873 7.1276L10.307 0.186309C10.1242 0.0524805 9.87584 0.0524805 9.69311 0.186309L0.212718 7.1276C-0.0188446 7.29717 -0.0691571 7.62232 0.100413 7.85389C0.269984 8.08545 0.595179 8.13568 0.826702 7.96619L10 1.24963L19.1733 7.96615C19.2658 8.03393 19.3733 8.06654 19.4799 8.06654C19.6399 8.06654 19.7978 7.99291 19.8996 7.85385C20.0692 7.62232 20.0189 7.29717 19.7873 7.1276Z" fill="#E52525"/>
<path d="M17.2752 8.08371C16.9882 8.08371 16.7556 8.31636 16.7556 8.60335V16.8748H12.5984V12.3597C12.5984 10.9269 11.4327 9.76128 10 9.76128C8.56727 9.76128 7.40157 10.927 7.40157 12.3597V16.8748H3.24442V8.60339C3.24442 8.3164 3.01172 8.08375 2.72477 8.08375C2.43782 8.08375 2.20512 8.3164 2.20512 8.60339V17.3945C2.20512 17.6815 2.43782 17.9142 2.72477 17.9142H7.92122C8.1945 17.9142 8.41813 17.703 8.43883 17.435C8.44008 17.4228 8.44086 17.4096 8.44086 17.3945V12.3598C8.44086 11.5 9.14028 10.8006 10 10.8006C10.8597 10.8006 11.5591 11.5001 11.5591 12.3598V17.3945C11.5591 17.4095 11.5599 17.4225 11.5612 17.4345C11.5816 17.7028 11.8054 17.9142 12.0788 17.9142H17.2752C17.5622 17.9142 17.7949 17.6815 17.7949 17.3945V8.60339C17.7948 8.31636 17.5622 8.08371 17.2752 8.08371Z" fill="#E52525"/>
</svg>
