<svg width="16" height="16" viewBox="0 0 16 16" fill="none" xmlns="http://www.w3.org/2000/svg">
<path d="M8 16C7.78784 16 7.58432 15.9157 7.43432 15.7657C7.28432 15.6157 7.2 15.4122 7.2 15.2V13.6C7.2 13.3878 7.28432 13.1843 7.43432 13.0343C7.58432 12.8843 7.78784 12.8 8 12.8C8.21216 12.8 8.41568 12.8843 8.56568 13.0343C8.71568 13.1843 8.8 13.3878 8.8 13.6V15.2C8.8 15.4122 8.71568 15.6157 8.56568 15.7657C8.41568 15.9157 8.21216 16 8 16ZM13.1792 13.8016C12.9718 13.8018 12.7725 13.7215 12.6232 13.5776L11.472 12.4656C11.3964 12.3926 11.3359 12.3053 11.2941 12.2089C11.2522 12.1124 11.2298 12.0087 11.2279 11.9036C11.2243 11.6913 11.3052 11.4862 11.4528 11.3336C11.6004 11.181 11.8026 11.0931 12.0148 11.0895C12.2271 11.0859 12.4322 11.1668 12.5848 11.3144L13.736 12.4264C13.8511 12.5374 13.9304 12.6802 13.9635 12.8367C13.9966 12.9931 13.9821 13.1558 13.9218 13.304C13.8615 13.4521 13.7583 13.5787 13.6254 13.6675C13.4924 13.7564 13.3359 13.8034 13.176 13.8024L13.1792 13.8016ZM2.8216 13.8016C2.66205 13.8018 2.5061 13.7542 2.37378 13.665C2.24146 13.5759 2.13882 13.4493 2.07904 13.3013C2.01927 13.1534 2.0051 12.991 2.03834 12.8349C2.07158 12.6789 2.15073 12.5363 2.2656 12.4256L3.416 11.3136C3.49164 11.2406 3.58092 11.1832 3.67875 11.1446C3.77658 11.1062 3.88102 11.0873 3.98614 11.0891C4.09126 11.091 4.19498 11.1135 4.29138 11.1555C4.38778 11.1974 4.47498 11.2579 4.548 11.3336C4.62102 11.4093 4.67842 11.4986 4.71693 11.5963C4.75544 11.6942 4.7743 11.7986 4.77245 11.9038C4.77058 12.0089 4.74805 12.1126 4.7061 12.209C4.66416 12.3054 4.60364 12.3926 4.528 12.4656L3.3768 13.5776C3.2275 13.7215 3.02816 13.8018 2.8208 13.8016H2.8216ZM8 11.2C7.36712 11.2 6.7484 11.0123 6.22218 10.6607C5.69594 10.3091 5.28578 9.80928 5.04358 9.22456C4.80138 8.63984 4.73802 7.99648 4.86149 7.37568C4.98496 6.75496 5.28973 6.18478 5.73726 5.73726C6.18478 5.28973 6.75496 4.98496 7.37568 4.86149C7.99648 4.73802 8.63984 4.80138 9.22456 5.04358C9.80928 5.28578 10.3091 5.69594 10.6607 6.22218C11.0123 6.7484 11.2 7.36712 11.2 8C11.2 8.84872 10.8629 9.66264 10.2627 10.2627C9.66264 10.8629 8.84872 11.2 8 11.2ZM8 6.4C7.68352 6.4 7.37424 6.49384 7.11112 6.66968C6.848 6.84544 6.64288 7.09536 6.52176 7.38768C6.40072 7.68008 6.36901 8.00176 6.43072 8.31216C6.49248 8.62248 6.64488 8.9076 6.86864 9.13136C7.0924 9.35512 7.37752 9.50752 7.68784 9.56928C7.99824 9.63096 8.31992 9.59928 8.61232 9.47824C8.90464 9.35712 9.15456 9.152 9.33032 8.88888C9.50616 8.62576 9.6 8.31648 9.6 8C9.6 7.57568 9.43144 7.16872 9.13136 6.86864C8.83128 6.56856 8.42432 6.4 8 6.4ZM15.2 8.8H13.6C13.3878 8.8 13.1843 8.71568 13.0343 8.56568C12.8843 8.41568 12.8 8.21216 12.8 8C12.8 7.78784 12.8843 7.58432 13.0343 7.43432C13.1843 7.28432 13.3878 7.2 13.6 7.2H15.2C15.4122 7.2 15.6157 7.28432 15.7657 7.43432C15.9157 7.58432 16 7.78784 16 8C16 8.21216 15.9157 8.41568 15.7657 8.56568C15.6157 8.71568 15.4122 8.8 15.2 8.8ZM2.4 8.8H0.8C0.587824 8.8 0.384344 8.71568 0.234312 8.56568C0.0842881 8.41568 0 8.21216 0 8C0 7.78784 0.0842881 7.58432 0.234312 7.43432C0.384344 7.28432 0.587824 7.2 0.8 7.2H2.4C2.61218 7.2 2.81566 7.28432 2.96569 7.43432C3.11571 7.58432 3.2 7.78784 3.2 8C3.2 8.21216 3.11571 8.41568 2.96569 8.56568C2.81566 8.71568 2.61218 8.8 2.4 8.8ZM12.028 4.9104C11.8681 4.91137 11.7116 4.8644 11.5786 4.77556C11.4457 4.68671 11.3425 4.56008 11.2822 4.41198C11.2219 4.26388 11.2074 4.10112 11.2405 3.9447C11.2736 3.78827 11.3529 3.64536 11.468 3.5344L12.6192 2.4216C12.7696 2.27702 12.9706 2.19693 13.1792 2.1984C13.339 2.1976 13.4952 2.24463 13.628 2.33343C13.7607 2.42224 13.8639 2.54874 13.9242 2.69667C13.9844 2.84461 13.999 3.00718 13.966 3.16346C13.933 3.31975 13.8541 3.46259 13.7392 3.5736L12.584 4.6856C12.4351 4.83022 12.2356 4.9109 12.028 4.9104ZM3.972 4.9104C3.76314 4.91144 3.56217 4.83076 3.412 4.6856L2.2648 3.5744C2.11203 3.42694 2.0241 3.22483 2.02035 3.01254C2.01661 2.80025 2.09734 2.59517 2.2448 2.4424C2.39226 2.28963 2.59437 2.2017 2.80666 2.19795C3.01895 2.19421 3.22403 2.27494 3.3768 2.4224L4.528 3.5344C4.68055 3.68186 4.76828 3.88388 4.77188 4.09602C4.77548 4.30817 4.69466 4.51305 4.5472 4.6656C4.47292 4.74326 4.38362 4.805 4.28474 4.84709C4.18586 4.88917 4.07946 4.91071 3.972 4.9104ZM8 3.2C7.78784 3.2 7.58432 3.11571 7.43432 2.96569C7.28432 2.81566 7.2 2.61218 7.2 2.4V0.8C7.2 0.587824 7.28432 0.384344 7.43432 0.234312C7.58432 0.0842881 7.78784 0 8 0C8.21216 0 8.41568 0.0842881 8.56568 0.234312C8.71568 0.384344 8.8 0.587824 8.8 0.8V2.4C8.8 2.61218 8.71568 2.81566 8.56568 2.96569C8.41568 3.11571 8.21216 3.2 8 3.2Z" fill="#737373"/>
</svg>
