<svg width="18" height="18" viewBox="0 0 18 18" fill="none" xmlns="http://www.w3.org/2000/svg">
<path d="M6.72116 13.0781H5.3156V15.8907C5.3156 17.0538 6.26138 18 7.42387 18H15.8919C17.0542 18 18 17.0538 18 15.8907V2.10931C18 0.946313 17.0542 0 15.8919 0H7.42387C6.26138 0 5.3156 0.946313 5.3156 2.10931V4.92187H6.72116V2.10931C6.72116 1.72169 7.03633 1.40621 7.42387 1.40621H15.8919C16.2793 1.40621 16.5946 1.72169 16.5946 2.10931V15.8907C16.5946 16.2783 16.2793 16.5938 15.8919 16.5938H7.42387C7.03633 16.5938 6.72116 16.2783 6.72116 15.8907V13.0781ZM3.31279 5.6853L4.30664 6.6797L2.69041 8.29696H11.7808V9.70317H2.69041L4.30664 11.3203L3.31279 12.3147L0 9.00007L3.31279 5.6853Z" fill="#737373"/>
</svg>
