<svg width="18" height="20" viewBox="0 0 18 20" fill="none" xmlns="http://www.w3.org/2000/svg">
<path d="M17.7274 9.33214L15.3836 4.83996C15.2701 4.64911 15.1108 4.52962 14.8594 4.52962H3.14064C2.89564 4.52962 2.73181 4.64612 2.61642 4.83996L0.27267 9.33214C0.164155 9.55301 0.201303 9.77496 0.355092 9.95207L8.55822 18.9739C8.66955 19.0963 8.83048 19.1667 9.00001 19.1667C9.16955 19.1667 9.33048 19.0963 9.44181 18.9739L17.6449 9.95207C17.7977 9.77586 17.8365 9.55417 17.7274 9.33214ZM13.9113 5.65267L12.4156 8.51943L10.1719 5.65267H13.9113ZM11.3438 9.02181H6.65626L9.00001 6.02702L11.3438 9.02181ZM7.82814 5.65267L5.58439 8.51943L4.08869 5.65267H7.82814ZM3.14064 6.34671L4.53634 9.02181H1.74494L3.14064 6.34671ZM2.08478 10.1449H5.09728L7.98595 16.6353L2.08478 10.1449ZM9.00001 16.051L6.3715 10.1449H11.6285L9.00001 16.051ZM10.0141 16.6353L12.9027 10.1449H15.9152L10.0141 16.6353ZM13.4637 9.02181L14.8594 6.34671L16.2551 9.02181H13.4637Z" fill="#737373"/>
<path d="M9.00006 0C8.67646 0 8.41412 0.251413 8.41412 0.561523V1.72201C8.41412 2.03212 8.67646 2.28353 9.00006 2.28353C9.32365 2.28353 9.58599 2.03212 9.58599 1.72201V0.561523C9.58599 0.251413 9.32365 0 9.00006 0Z" fill="#737373"/>
<path d="M6.51412 2.47614L5.68548 1.68204C5.4567 1.46274 5.08568 1.46274 4.85685 1.68204C4.62802 1.90133 4.62802 2.25685 4.85685 2.47614L5.68548 3.27025C5.91427 3.48954 6.28533 3.48958 6.51412 3.27025C6.74294 3.05096 6.74294 2.69544 6.51412 2.47614Z" fill="#737373"/>
<path d="M13.1432 1.68204C12.9144 1.46274 12.5434 1.46274 12.3146 1.68204L11.4859 2.47614C11.2571 2.69544 11.2571 3.05096 11.4859 3.27025C11.7147 3.48954 12.0858 3.48958 12.3146 3.27025L13.1432 2.47614C13.372 2.25685 13.372 1.90133 13.1432 1.68204Z" fill="#737373"/>
</svg>
