<svg width="31" height="32" viewBox="0 0 31 32" fill="none" xmlns="http://www.w3.org/2000/svg">
<path d="M24.5 3.38125C28.4375 6.19375 31 10.7937 31 16C31 24.55 24.075 31.4812 15.5313 31.5C7.00001 31.5188 0.0125114 24.5625 1.14073e-05 16.025C-0.00623859 10.8187 2.55626 6.20625 6.48751 3.3875C7.21876 2.86875 8.23751 3.0875 8.67501 3.86875L9.66251 5.625C10.0313 6.28125 9.85626 7.1125 9.25001 7.5625C6.65626 9.4875 5.00001 12.5375 5.00001 15.9937C4.99376 21.7625 9.65626 26.5 15.5 26.5C21.225 26.5 26.0375 21.8625 26 15.9312C25.9813 12.6937 24.4563 9.56875 21.7438 7.55625C21.1375 7.10625 20.9688 6.275 21.3375 5.625L22.325 3.86875C22.7625 3.09375 23.775 2.8625 24.5 3.38125ZM18 16.5V1.5C18 0.66875 17.3313 0 16.5 0H14.5C13.6688 0 13 0.66875 13 1.5V16.5C13 17.3313 13.6688 18 14.5 18H16.5C17.3313 18 18 17.3313 18 16.5Z" fill="#4F4F4F"/>
</svg>
