<svg width="20" height="20" viewBox="0 0 20 20" fill="none" xmlns="http://www.w3.org/2000/svg">
<path d="M17.6414 14.4946C18.0146 14.0793 18.2422 13.5307 18.2422 12.9297C18.2422 11.6373 17.1908 10.5859 15.8984 10.5859C14.6061 10.5859 13.5547 11.6373 13.5547 12.9297C13.5547 13.5307 13.7823 14.0793 14.1555 14.4946C13.9038 14.6144 13.6659 14.759 13.4453 14.9257L10.5859 12.0991V9.41406H13.5156C13.8392 9.41406 14.1016 9.15172 14.1016 8.82812V7.65625C14.1016 6.00191 13.1354 4.57133 11.743 3.90867C12.1162 3.4934 12.3438 2.94473 12.3438 2.34375C12.3438 1.05141 11.2923 0 10 0C8.70766 0 7.65625 1.05141 7.65625 2.34375C7.65625 2.94473 7.88383 3.4934 8.25703 3.90867C6.86457 4.57133 5.89844 6.00191 5.89844 7.65625V8.82812C5.89844 9.15172 6.16078 9.41406 6.48438 9.41406H9.41406V12.0991L6.55469 14.9257C6.33406 14.759 6.09621 14.6144 5.84453 14.4946C6.21773 14.0793 6.44531 13.5307 6.44531 12.9297C6.44531 11.6373 5.39391 10.5859 4.10156 10.5859C2.80922 10.5859 1.75781 11.6373 1.75781 12.9297C1.75781 13.5307 1.98539 14.0793 2.35859 14.4946C0.966133 15.1573 0 16.5879 0 18.2422V19.4141C0 19.7377 0.262344 20 0.585938 20H7.61719C7.94078 20 8.20312 19.7377 8.20312 19.4141V18.2422C8.20312 17.3106 7.89668 16.4499 7.38035 15.7573L10 13.1677L12.6196 15.7573C12.1033 16.4499 11.7969 17.3106 11.7969 18.2422V19.4141C11.7969 19.7377 12.0592 20 12.3828 20H19.4141C19.7377 20 20 19.7377 20 19.4141V18.2422C20 16.5879 19.0339 15.1573 17.6414 14.4946ZM4.10156 11.7578C4.74773 11.7578 5.27344 12.2835 5.27344 12.9297C5.27344 13.5759 4.74773 14.1016 4.10156 14.1016C3.45539 14.1016 2.92969 13.5759 2.92969 12.9297C2.92969 12.2835 3.45539 11.7578 4.10156 11.7578ZM7.03125 18.8281H1.17188V18.2422C1.17188 16.6052 2.48613 15.2734 4.10156 15.2734C5.71699 15.2734 7.03125 16.6052 7.03125 18.2422V18.8281ZM10 1.17188C10.6462 1.17188 11.1719 1.69758 11.1719 2.34375C11.1719 2.98992 10.6462 3.51562 10 3.51562C9.35383 3.51562 8.82812 2.98992 8.82812 2.34375C8.82812 1.69758 9.35383 1.17188 10 1.17188ZM7.07031 8.24219V7.65625C7.07031 6.0193 8.38457 4.6875 10 4.6875C11.6154 4.6875 12.9297 6.0193 12.9297 7.65625V8.24219H7.07031ZM15.8984 11.7578C16.5446 11.7578 17.0703 12.2835 17.0703 12.9297C17.0703 13.5759 16.5446 14.1016 15.8984 14.1016C15.2523 14.1016 14.7266 13.5759 14.7266 12.9297C14.7266 12.2835 15.2523 11.7578 15.8984 11.7578ZM18.8281 18.8281H12.9688V18.2422C12.9688 16.6052 14.283 15.2734 15.8984 15.2734C17.5139 15.2734 18.8281 16.6052 18.8281 18.2422V18.8281Z" fill="#737373"/>
</svg>
