<svg width="26" height="42" viewBox="0 0 26 42" fill="none" xmlns="http://www.w3.org/2000/svg">
<path d="M22.8331 0H3.16732C1.84073 0 0.761597 1.19281 0.761597 2.65905V39.341C0.761597 40.8072 1.84081 42.0001 3.1674 42.0001H22.8331C24.1597 42.0001 25.2389 40.8073 25.2389 39.341V2.65905C25.2388 1.19281 24.1597 0 22.8331 0ZM1.96715 6.68325H24.0333V34.4594H1.96715V6.68325ZM3.16732 1.33246H22.8331C23.4948 1.33246 24.0333 1.92753 24.0333 2.65905V5.79494H1.96715V2.65905C1.96715 1.92753 2.50555 1.33246 3.16732 1.33246ZM22.8331 40.6675H3.16732C2.50555 40.6675 1.96707 40.0725 1.96707 39.341V35.3476H24.0332V39.341C24.0332 40.0725 23.4948 40.6675 22.8331 40.6675Z" fill="#E52525"/>
<path d="M13.0005 35.9365C11.9118 35.9365 11.0262 36.9154 11.0262 38.1186C11.0262 39.3219 11.9119 40.3007 13.0005 40.3007C14.089 40.3007 14.9747 39.3218 14.9747 38.1186C14.9747 36.9155 14.0891 35.9365 13.0005 35.9365ZM13.0005 39.4124C12.355 39.4124 11.83 38.832 11.83 38.1186C11.83 37.4052 12.355 36.8248 13.0005 36.8248C13.6459 36.8248 14.171 37.4052 14.171 38.1186C14.171 38.832 13.6459 39.4124 13.0005 39.4124Z" fill="#E52525"/>
<path d="M10.2676 4.23279H15.7328C15.9547 4.23279 16.1346 4.0339 16.1346 3.78863C16.1346 3.54337 15.9547 3.34448 15.7328 3.34448H10.2676C10.0456 3.34448 9.86572 3.54337 9.86572 3.78863C9.86572 4.0339 10.0456 4.23279 10.2676 4.23279Z" fill="#E52525"/>
<path d="M8.82104 4.23279C8.92633 4.23279 9.03 4.18571 9.10475 4.10309C9.17949 4.01959 9.22289 3.90589 9.22289 3.78863C9.22289 3.67138 9.17949 3.55768 9.10475 3.47417C9.02992 3.39156 8.92625 3.34448 8.82104 3.34448C8.71495 3.34448 8.612 3.39156 8.53653 3.47417C8.46179 3.55679 8.41919 3.67138 8.41919 3.78863C8.41919 3.90589 8.46179 4.01959 8.53653 4.10309C8.61128 4.18571 8.71495 4.23279 8.82104 4.23279Z" fill="#E52525"/>
</svg>
