<svg width="117" height="40" viewBox="0 0 117 40" fill="none" xmlns="http://www.w3.org/2000/svg">
<path d="M112.667 0.801241C114.673 0.801241 116.306 2.685 116.306 4.99998V35C116.306 37.315 114.673 39.1988 112.667 39.1988H4.33333C2.32698 39.1988 0.694402 37.315 0.694402 35V4.99998C0.694402 2.685 2.32698 0.801241 4.33333 0.801241H112.667ZM112.667 0H4.33333C1.95106 0 0 2.25124 0 4.99998V35C0 37.7487 1.95106 40 4.33333 40H112.667C115.049 40 117 37.7487 117 35V4.99998C117 2.25124 115.049 0 112.667 0Z"/>
<path d="M28.2664 19.96C28.2425 17.3563 30.4381 16.0896 30.5385 16.0307C29.2951 14.251 27.3678 14.0078 26.6905 13.9884C25.0718 13.8212 23.5016 14.9393 22.6771 14.9393C21.836 14.9393 20.5662 14.0046 19.1977 14.0321C17.4366 14.0587 15.7891 15.0596 14.8856 16.6139C13.0208 19.7831 14.4115 24.4403 16.1981 27.002C17.0918 28.2574 18.1361 29.6574 19.503 29.6081C20.8403 29.5548 21.3398 28.772 22.9536 28.772C24.5525 28.772 25.0216 29.6081 26.4156 29.5766C27.8508 29.5548 28.7544 28.3164 29.6168 27.0505C30.6496 25.6133 31.0644 24.1964 31.0808 24.1237C31.0479 24.1123 28.2944 23.0799 28.2664 19.96ZM25.633 12.3033C26.3523 11.4203 26.8444 10.219 26.7078 9C25.6668 9.04524 24.3649 9.70686 23.6152 10.5704C22.9519 11.3314 22.3594 12.5787 22.5125 13.7517C23.6819 13.8374 24.8825 13.1725 25.633 12.3033Z" />
<path d="M47.6353 29.4282H45.7664L44.7427 26.2704H41.1843L40.2091 29.4282H38.3896L41.9159 18.6775H44.0934L47.6353 29.4282ZM44.4341 24.9455L43.5083 22.1383C43.4103 21.8515 43.226 21.1761 42.9561 20.113H42.9232C42.8145 20.5702 42.6409 21.2456 42.4031 22.1383L41.4929 24.9455H44.4341ZM56.6859 25.4569C56.6859 26.7753 56.3213 27.8174 55.5914 28.5824C54.938 29.2634 54.1257 29.6035 53.1571 29.6035C52.1112 29.6035 51.359 29.2376 50.9023 28.5041V32.5716H49.1478V24.2241C49.1478 23.3961 49.1256 22.547 49.0828 21.6762H50.6258L50.7237 22.9049H50.7566C51.3417 21.9791 52.2297 21.5162 53.4213 21.5162C54.3529 21.5162 55.1305 21.8773 55.7527 22.6003C56.374 23.325 56.6859 24.2766 56.6859 25.4569ZM54.8985 25.5199C54.8985 24.7654 54.7256 24.1433 54.3784 23.653C53.999 23.1432 53.4896 22.8879 52.851 22.8879C52.4181 22.8879 52.0248 23.0301 51.6734 23.3104C51.3212 23.5932 51.0908 23.9624 50.983 24.4196C50.9348 24.5906 50.9075 24.7666 50.9015 24.9439V26.2373C50.9015 26.8003 51.0776 27.2761 51.4298 27.6655C51.782 28.0533 52.2396 28.248 52.8025 28.248C53.4633 28.248 53.9776 27.9967 54.3454 27.4983C54.7141 26.9982 54.8985 26.339 54.8985 25.5199ZM65.7685 25.4569C65.7685 26.7753 65.404 27.8174 64.674 28.5824C64.0198 29.2634 63.2084 29.6035 62.239 29.6035C61.1931 29.6035 60.4409 29.2376 59.9842 28.5041V32.5716H58.2297V24.2241C58.2297 23.3961 58.2075 22.547 58.1647 21.6762H59.7077L59.8056 22.9049H59.8385C60.4228 21.9791 61.3107 21.5162 62.5032 21.5162C63.4339 21.5162 64.2116 21.8773 64.8353 22.6003C65.4558 23.325 65.7685 24.2766 65.7685 25.4569ZM63.9803 25.5199C63.9803 24.7654 63.8067 24.1433 63.4594 23.653C63.08 23.1432 62.5723 22.8879 61.9337 22.8879C61.5008 22.8879 61.1075 23.0301 60.7544 23.3104C60.4022 23.5932 60.1726 23.9624 60.0648 24.4196C60.0113 24.6329 59.9825 24.8066 59.9825 24.9439V26.2373C59.9825 26.8003 60.1594 27.2761 60.51 27.6655C60.8622 28.0525 61.3198 28.248 61.8843 28.248C62.5459 28.248 63.0603 27.9967 63.4273 27.4983C63.796 26.9982 63.9803 26.339 63.9803 25.5199ZM75.9235 26.4126C75.9235 27.3278 75.5976 28.0719 74.95 28.6463C74.2373 29.2731 73.2424 29.5874 71.9669 29.5874C70.7884 29.5874 69.8437 29.3644 69.131 28.9177L69.5367 27.4821C70.3062 27.9297 71.1513 28.1527 72.0714 28.1527C72.733 28.1527 73.2473 28.0056 73.6144 27.714C73.9822 27.4216 74.1682 27.0306 74.1682 26.5426C74.1682 26.1056 74.0143 25.7396 73.7123 25.4415C73.4086 25.1442 72.9066 24.8672 72.2014 24.6127C70.284 23.9107 69.3244 22.8839 69.3244 21.5332C69.3244 20.651 69.6635 19.9288 70.3399 19.3641C71.0164 18.8002 71.9134 18.5183 73.0293 18.5183C74.0258 18.5183 74.8562 18.6888 75.5153 19.0289L75.0751 20.4329C74.4546 20.1033 73.7543 19.9385 72.9708 19.9385C72.352 19.9385 71.8665 20.088 71.5192 20.3852C71.227 20.651 71.0789 20.975 71.0789 21.3595C71.0789 21.7836 71.2476 22.1358 71.5834 22.4121C71.8747 22.6666 72.4063 22.9437 73.1749 23.241C74.118 23.6142 74.8109 24.0488 75.2545 24.5481C75.7013 25.0473 75.9235 25.6702 75.9235 26.4126ZM81.7392 22.9687H79.8053V26.7325C79.8053 27.6898 80.146 28.1672 80.829 28.1672C81.1425 28.1672 81.4026 28.1413 81.6083 28.0872L81.6569 29.3951C81.3112 29.522 80.8561 29.5858 80.2924 29.5858C79.5995 29.5858 79.058 29.3782 78.6672 28.9629C78.2779 28.5477 78.0821 27.8521 78.0821 26.873V22.9655H76.9299V21.6729H78.0821V20.2536L79.8053 19.743V21.6729H81.7392V22.9687ZM90.4474 25.4884C90.4474 26.68 90.1001 27.6583 89.4072 28.4233C88.6822 29.2109 87.7177 29.6035 86.5154 29.6035C85.3551 29.6035 84.4326 29.2263 83.7446 28.4726C83.0567 27.7172 82.7127 26.7656 82.7127 25.6176C82.7127 24.4164 83.0682 23.4324 83.7767 22.6674C84.4869 21.9016 85.4432 21.5186 86.6455 21.5186C87.8041 21.5186 88.7349 21.8967 89.4393 22.6512C90.1125 23.3831 90.4474 24.3283 90.4474 25.4884ZM88.6287 25.528C88.6287 24.8179 88.4724 24.2088 88.1588 23.699C87.791 23.0834 87.2643 22.7756 86.5821 22.7756C85.8793 22.7756 85.3403 23.0834 84.9733 23.699C84.6589 24.2088 84.5025 24.8284 84.5025 25.5603C84.5025 26.2712 84.6589 26.8819 84.9733 27.3901C85.3526 28.0056 85.8818 28.3134 86.5673 28.3134C87.238 28.3134 87.7638 27.9992 88.144 27.3747C88.4666 26.8528 88.6287 26.2397 88.6287 25.528ZM96.1528 23.1909C95.9703 23.1585 95.7852 23.1426 95.5998 23.1432C94.9826 23.1432 94.5053 23.371 94.1695 23.8299C93.8782 24.2338 93.7317 24.7444 93.7317 25.3607V29.4282H91.9772V24.1175C91.9788 23.3037 91.9618 22.49 91.9262 21.677H93.4544L93.5186 23.1602H93.5671C93.7531 22.6504 94.0444 22.2392 94.4444 21.9315C94.8105 21.6625 95.2553 21.5169 95.7125 21.5162C95.8746 21.5162 96.0211 21.5275 96.1511 21.5477L96.1528 23.1909ZM103.999 25.1854C104.004 25.4473 103.982 25.7089 103.935 25.9666H98.6718C98.6915 26.7325 98.9466 27.319 99.4354 27.7229C99.879 28.0832 100.453 28.2641 101.157 28.2641C101.936 28.2641 102.647 28.143 103.287 27.8982L103.562 29.093C102.814 29.4129 101.932 29.572 100.914 29.572C99.6897 29.572 98.7286 29.2182 98.0291 28.5121C97.3312 27.8053 96.9815 26.8553 96.9815 25.6653C96.9815 24.4972 97.3065 23.5237 97.9575 22.7474C98.6389 21.9185 99.5597 21.5041 100.718 21.5041C101.857 21.5041 102.718 21.9185 103.303 22.7474C103.767 23.4042 103.999 24.2185 103.999 25.1854ZM102.326 24.7387C102.339 24.2273 102.224 23.7871 101.986 23.4147C101.682 22.9348 101.215 22.6957 100.588 22.6957C100.015 22.6957 99.5474 22.9291 99.1919 23.3977C98.8997 23.7701 98.7261 24.2177 98.6726 24.7371L102.326 24.7387Z"/>
<path d="M40.6787 14.8758C40.1907 14.8758 39.7685 14.8524 39.4171 14.8128V9.61514C39.9086 9.54061 40.4052 9.50388 40.9025 9.50527C42.9146 9.50527 43.8412 10.4771 43.8412 12.0613C43.8412 13.8886 42.7467 14.8758 40.6787 14.8758ZM40.9733 10.1717C40.7017 10.1717 40.4705 10.1879 40.2787 10.2267V14.1778C40.3824 14.194 40.5816 14.2013 40.8614 14.2013C42.1797 14.2013 42.9302 13.4645 42.9302 12.0847C42.9302 10.8544 42.2513 10.1717 40.9733 10.1717ZM46.7288 14.9154C45.5949 14.9154 44.86 14.0841 44.86 12.9556C44.86 11.7794 45.6105 10.9408 46.793 10.9408C47.9106 10.9408 48.6619 11.7325 48.6619 12.8934C48.6619 14.0841 47.8875 14.9154 46.7288 14.9154ZM46.7618 11.5596C46.1388 11.5596 45.7397 12.1316 45.7397 12.9313C45.7397 13.7158 46.147 14.2877 46.7535 14.2877C47.36 14.2877 47.7674 13.6762 47.7674 12.9152C47.7674 12.1397 47.3683 11.5596 46.7618 11.5596ZM55.1285 11.0192L53.9147 14.829H53.1238L52.621 13.1745C52.496 12.7698 52.3919 12.3592 52.3091 11.9442H52.2927C52.2293 12.3594 52.1092 12.7754 51.9816 13.1745L51.4467 14.829H50.6476L49.5054 11.0192H50.3917L50.8312 12.8304C50.9348 13.2617 51.0221 13.6689 51.0945 14.0534H51.111C51.1743 13.7327 51.278 13.332 51.4303 12.8384L51.9816 11.02H52.6844L53.2119 12.7997C53.3395 13.231 53.4431 13.6544 53.5238 14.0542H53.5468C53.6028 13.6624 53.6908 13.2464 53.8102 12.7997L54.2817 11.02L55.1285 11.0192ZM59.597 14.829H58.7346V12.6413C58.7346 11.9676 58.4712 11.6299 57.952 11.6299C57.4409 11.6299 57.0895 12.0613 57.0895 12.563V14.829H56.2271V12.1081C56.2271 11.7713 56.2189 11.4102 56.195 11.0184H56.9538L56.9941 11.6065H57.0179C57.25 11.1993 57.7207 10.9408 58.2482 10.9408C59.0629 10.9408 59.5978 11.5523 59.5978 12.5476L59.597 14.829ZM61.9753 14.829H61.112V9.271H61.9753V14.829ZM65.1197 14.9154C63.9865 14.9154 63.2508 14.0841 63.2508 12.9556C63.2508 11.7794 64.0013 10.9408 65.1831 10.9408C66.3014 10.9408 67.0519 11.7325 67.0519 12.8934C67.0528 14.0841 66.2776 14.9154 65.1197 14.9154ZM65.1518 11.5596C64.5288 11.5596 64.1297 12.1316 64.1297 12.9313C64.1297 13.7158 64.5379 14.2877 65.1427 14.2877C65.7501 14.2877 66.1566 13.6762 66.1566 12.9152C66.1574 12.1397 65.7591 11.5596 65.1518 11.5596ZM70.4523 14.829L70.3897 14.3903H70.3667C70.1034 14.7433 69.7191 14.9154 69.2319 14.9154C68.5365 14.9154 68.0427 14.4372 68.0427 13.7941C68.0427 12.8538 68.8731 12.3675 70.3107 12.3675V12.2972C70.3107 11.7955 70.04 11.5443 69.5051 11.5443C69.1224 11.5443 68.7867 11.6388 68.4912 11.827L68.316 11.2704C68.6748 11.0507 69.1224 10.9408 69.6483 10.9408C70.6621 10.9408 71.174 11.4659 71.174 12.5169V13.9201C71.174 14.3047 71.1913 14.6028 71.23 14.8298L70.4523 14.829ZM70.3338 12.9313C69.3759 12.9313 68.8953 13.1591 68.8953 13.6996C68.8953 14.0995 69.143 14.295 69.487 14.295C69.9256 14.295 70.3338 13.9662 70.3338 13.5194V12.9313ZM75.3619 14.829L75.3216 14.2174H75.2977C75.05 14.6795 74.6336 14.9154 74.0518 14.9154C73.1161 14.9154 72.4232 14.1076 72.4232 12.9709C72.4232 11.7794 73.1416 10.94 74.1226 10.94C74.6418 10.94 75.0097 11.1121 75.2171 11.4578H75.2343V9.271H76.0976V13.8022C76.0976 14.1706 76.1066 14.5155 76.1297 14.829H75.3619ZM75.2343 12.5872C75.2343 12.054 74.8747 11.5992 74.3258 11.5992C73.6864 11.5992 73.2955 12.1558 73.2955 12.9394C73.2955 13.7077 73.7012 14.2336 74.3085 14.2336C74.8509 14.2336 75.2343 13.7707 75.2343 13.2222V12.5872ZM81.5709 14.9154C80.4377 14.9154 79.7028 14.0841 79.7028 12.9556C79.7028 11.7794 80.4534 10.9408 81.6351 10.9408C82.7535 10.9408 83.504 11.7325 83.504 12.8934C83.5048 14.0841 82.7304 14.9154 81.5709 14.9154ZM81.603 11.5596C80.9809 11.5596 80.5817 12.1316 80.5817 12.9313C80.5817 13.7158 80.9891 14.2877 81.5948 14.2877C82.2021 14.2877 82.6086 13.6762 82.6086 12.9152C82.6103 12.1397 82.2111 11.5596 81.603 11.5596ZM88.142 14.829H87.2787V12.6413C87.2787 11.9676 87.0154 11.6299 86.4961 11.6299C85.9851 11.6299 85.6345 12.0613 85.6345 12.563V14.829H84.7713V12.1081C84.7713 11.7713 84.763 11.4102 84.7392 11.0184H85.4979L85.5382 11.6065H85.5621C85.7934 11.1993 86.2649 10.94 86.7916 10.94C87.6063 10.94 88.142 11.5515 88.142 12.5468V14.829ZM93.9445 11.6541H92.9956V13.5041C92.9956 13.9751 93.1619 14.2102 93.4976 14.2102C93.6499 14.2102 93.7774 14.194 93.8803 14.1706L93.9042 14.8136C93.7371 14.8766 93.5133 14.9081 93.2351 14.9081C92.5554 14.9081 92.1488 14.5398 92.1488 13.5752V11.6541H91.5827V11.0192H92.1488V10.3212L92.9956 10.07V11.0184H93.9445V11.6541ZM98.5101 14.829H97.6485V12.6575C97.6485 11.9757 97.386 11.6307 96.8659 11.6307C96.419 11.6307 96.0026 11.9288 96.0026 12.5323V14.829H95.141V9.271H96.0026V11.5596H96.0199C96.2915 11.1444 96.6848 10.94 97.1868 10.94C98.0081 10.94 98.5101 11.5669 98.5101 12.563V14.829ZM103.188 13.1276H100.6C100.616 13.849 101.102 14.2562 101.822 14.2562C102.205 14.2562 102.557 14.1932 102.868 14.0761L103.002 14.6642C102.635 14.8209 102.203 14.8992 101.701 14.8992C100.487 14.8992 99.7684 14.1463 99.7684 12.979C99.7684 11.8109 100.504 10.9327 101.603 10.9327C102.595 10.9327 103.217 11.6541 103.217 12.7439C103.223 12.8725 103.213 13.0013 103.188 13.1276ZM102.397 12.5242C102.397 11.9361 102.095 11.5208 101.543 11.5208C101.048 11.5208 100.656 11.9442 100.6 12.5242H102.397Z"/>
</svg>
