<svg width="30" height="12" viewBox="0 0 30 12" xmlns="http://www.w3.org/2000/svg">
<path d="M28.7882 5.33594H1.21184C0.542578 5.33594 0 5.61591 0 5.96126C0 6.30663 0.542578 6.58657 1.21184 6.58657H28.7882C29.4575 6.58657 30 6.30663 30 5.96126C30 5.61591 29.4575 5.33594 28.7882 5.33594Z"/>
<path d="M1.55427 5.96143L6.59271 1.06748C6.84413 0.823268 6.84413 0.427341 6.59271 0.183133C6.3413 -0.0610444 5.93368 -0.0610444 5.68226 0.183133L0.188565 5.51924C-0.0628549 5.76345 -0.0628549 6.15937 0.188565 6.40358L5.68226 11.7397C5.80795 11.8618 5.97274 11.9229 6.1375 11.9229C6.30226 11.9229 6.46705 11.8618 6.59275 11.7397C6.84417 11.4955 6.84417 11.0996 6.59275 10.8553L1.55427 5.96143Z" />
</svg>
