<svg width="16" height="24" viewBox="0 0 16 24" fill="none" xmlns="http://www.w3.org/2000/svg">
<path d="M7.16089 0.935551L7.16089 22.2232C7.16089 22.7398 7.5366 23.1587 8.00003 23.1587C8.4635 23.1587 8.83917 22.7398 8.83917 22.2232L8.83917 0.935551C8.83917 0.418869 8.4635 6.86646e-05 8.00003 6.86646e-05C7.5366 6.86646e-05 7.16089 0.418869 7.16089 0.935551Z" fill="#737373"/>
<path d="M7.9999 20.9L1.43249 13.5787C1.10478 13.2134 0.573467 13.2134 0.245754 13.5787C-0.0819181 13.944 -0.0819181 14.5363 0.245754 14.9017L7.40651 22.8845C7.73422 23.2498 8.26553 23.2498 8.59324 22.8845L15.754 14.9017C15.9179 14.719 15.9998 14.4796 15.9998 14.2402C15.9998 14.0008 15.9179 13.7613 15.754 13.5787C15.4263 13.2133 14.895 13.2133 14.5673 13.5787L7.9999 20.9Z" fill="#737373"/>
</svg>
