<svg width="24" height="12" viewBox="0 0 24 12" fill="none" xmlns="http://www.w3.org/2000/svg">
<path d="M23.0305 5.33594H0.969469C0.434062 5.33594 0 5.61591 0 5.96126C0 6.30663 0.434062 6.58657 0.969469 6.58657H23.0305C23.566 6.58657 24 6.30663 24 5.96126C24 5.61591 23.566 5.33594 23.0305 5.33594Z" fill="#B2B2B2"/>
<path d="M1.55427 5.96143L6.59271 1.06748C6.84413 0.823268 6.84413 0.427341 6.59271 0.183133C6.3413 -0.0610444 5.93368 -0.0610444 5.68226 0.183133L0.188565 5.51924C-0.0628549 5.76345 -0.0628549 6.15937 0.188565 6.40358L5.68226 11.7397C5.80795 11.8618 5.97274 11.9229 6.1375 11.9229C6.30226 11.9229 6.46705 11.8618 6.59275 11.7397C6.84417 11.4955 6.84417 11.0996 6.59275 10.8553L1.55427 5.96143Z" fill="#B2B2B2"/>
</svg>
