<svg width="80" height="80" viewBox="0 0 80 80" fill="none" xmlns="http://www.w3.org/2000/svg">
<circle cx="40" cy="40" r="40" fill="#E52525"/>
<path d="M39.7129 20L19.6674 27.1975C19.2856 27.3903 19 27.7759 19 28.1614V32.0172C19 32.5956 19.3818 32.9812 19.9545 32.9812H21.8636V35.873C21.8636 36.4514 22.2455 36.837 22.8182 36.837H23.7727V51.3605H22.8182C22.2455 51.3605 21.8636 51.7461 21.8636 52.3245V55.2163H19.9545C19.3818 55.2163 19 55.6019 19 56.1802V60.0361C19 60.6144 19.3818 61 19.9545 61H60.0455C60.6182 61 61 60.6144 61 60.0361V56.1802C61 55.6019 60.6182 55.2163 60.0455 55.2163H58.1364V52.3245C58.1364 51.7461 57.7545 51.3605 57.1818 51.3605H56.2273V36.837H57.1818C57.7545 36.837 58.1364 36.4514 58.1364 35.873V32.9812H60.0455C60.6182 32.9812 61 32.5956 61 32.0172V28.1614C61 27.7759 60.7144 27.3903 60.3326 27.1975L40.2871 20H39.7129ZM40 21.9279L59.0909 28.8355V31.0533H57.1818H22.8182H20.9091V28.9334L40 21.9279ZM40 25.2696C39.4937 25.2696 39.0081 25.4727 38.6501 25.8343C38.292 26.1958 38.0909 26.6862 38.0909 27.1975C38.0909 27.7088 38.292 28.1992 38.6501 28.5607C39.0081 28.9223 39.4937 29.1254 40 29.1254C40.5063 29.1254 40.9919 28.9223 41.3499 28.5607C41.708 28.1992 41.9091 27.7088 41.9091 27.1975C41.9091 26.6862 41.708 26.1958 41.3499 25.8343C40.9919 25.4727 40.5063 25.2696 40 25.2696ZM23.7727 32.9812H56.2273V34.9091H55.2727H51.4545H41.9091H38.0909H28.5455H24.7273H23.7727V32.9812ZM25.6818 36.837H27.5909V51.3605H25.6818V36.837ZM29.5 36.837H37.1364V51.3605H29.5V36.837ZM39.0455 36.837H40.9545V51.3605H39.0455V36.837ZM42.8636 36.837H50.5V51.3605H42.8636V36.837ZM52.4091 36.837H54.3182V51.3605H52.4091V36.837ZM23.7727 53.2884H24.7273H28.5455H38.0909H41.9091H51.4545H55.2727H56.2273V55.2163H23.7727V53.2884ZM20.9091 57.1442H22.8182H57.1818H59.0909V59.0721H20.9091V57.1442Z" fill="white"/>
</svg>
