<svg width="16" height="16" viewBox="0 0 16 16" fill="none" xmlns="http://www.w3.org/2000/svg">
<path d="M15.5313 7.53124C15.2724 7.53124 15.0626 7.74111 15.0626 7.99998C15.0626 11.8942 11.8943 15.0624 8.00005 15.0624C4.10576 15.0624 0.937533 11.8942 0.937533 7.99998C0.937533 4.10572 4.10576 0.937524 8.00005 0.937524C9.18752 0.937524 10.3426 1.23237 11.3738 1.79418L10.7877 2.3802C10.6537 2.51426 10.6136 2.71586 10.6861 2.89104C10.7587 3.0662 10.9296 3.18042 11.1192 3.18042H13.3621C13.621 3.18042 13.8308 2.97054 13.8308 2.71167V0.468777C13.8308 0.279184 13.7167 0.108279 13.5415 0.0357166C13.3662 -0.0368767 13.1647 0.00324807 13.0306 0.137341L12.0613 1.10662C10.8336 0.381715 9.43761 6.05727e-05 8.00002 6.05727e-05C5.86314 6.05727e-05 3.85413 0.832212 2.34313 2.34317C0.832127 3.85419 0 5.86315 0 8.00002C0 10.1369 0.832127 12.1458 2.34313 13.6568C3.85416 15.1678 5.86314 16 8.00002 16C10.1369 16 12.1459 15.1678 13.6569 13.6568C15.1679 12.1458 16 10.1369 16 8.00002C16.0001 7.74111 15.7902 7.53124 15.5313 7.53124Z" fill="#D2AC75"/>
<path d="M11.0114 7.53095H8.46772V4.98722C8.46772 4.72835 8.25785 4.51847 7.99897 4.51847C7.74009 4.51847 7.53022 4.72835 7.53022 4.98722V7.9997C7.53022 8.25857 7.74009 8.46845 7.99897 8.46845H11.0114C11.2703 8.46845 11.4802 8.25857 11.4802 7.9997C11.4802 7.74083 11.2703 7.53095 11.0114 7.53095Z" fill="#D2AC75"/>
</svg>
