<svg width="7" height="12" viewBox="0 0 7 12" fill="none" xmlns="http://www.w3.org/2000/svg">
<path d="M6.15899 0.0024968L4.62393 0C2.89933 0 1.78482 1.15914 1.78482 2.95322V4.31485H0.241375C0.108003 4.31485 0 4.42446 0 4.55966V6.53251C0 6.66771 0.108126 6.77719 0.241375 6.77719H1.78482V11.7553C1.78482 11.8905 1.89282 12 2.02619 12H4.03995C4.17332 12 4.28132 11.8904 4.28132 11.7553V6.77719H6.08597C6.21934 6.77719 6.32734 6.66771 6.32734 6.53251L6.32808 4.55966C6.32808 4.49474 6.30259 4.43257 6.25739 4.38663C6.2122 4.34069 6.15062 4.31485 6.08658 4.31485H4.28132V3.16058C4.28132 2.60579 4.41174 2.32415 5.12466 2.32415L6.15875 2.32377C6.292 2.32377 6.4 2.21416 6.4 2.07909V0.247183C6.4 0.112231 6.29212 0.00274648 6.15899 0.0024968Z" fill="white" fill-opacity="0.5"/>
</svg>
