<svg width="137" height="40" viewBox="0 0 137 40" fill="none" xmlns="http://www.w3.org/2000/svg">
<path d="M131.53 0.801241C133.873 0.801241 135.779 2.685 135.779 4.99998V35C135.779 37.315 133.873 39.1988 131.53 39.1988H5.05885C2.71659 39.1988 0.810665 37.315 0.810665 35V4.99998C0.810665 2.685 2.71659 0.801241 5.05885 0.801241H131.53ZM131.53 0H5.05885C2.27772 0 0 2.25124 0 4.99998V35C0 37.7487 2.27772 40 5.05885 40H131.53C134.311 40 136.589 37.7487 136.589 35V4.99998C136.589 2.25124 134.311 0 131.53 0Z"/>
<path d="M44.9907 6.76492C44.0939 6.76492 43.3179 7.07894 42.6888 7.69658C42.0576 8.3139 41.739 9.08868 41.739 10.0005C41.739 10.9124 42.057 11.6853 42.6878 12.3075V12.3085H42.6888C43.318 12.9214 44.0936 13.2361 44.9908 13.2361C45.9264 13.2361 46.7043 12.9274 47.2957 12.3176L47.2967 12.3165C47.8141 11.7981 48.0761 11.0982 48.0761 10.2435V10.1911L48.0701 10.1869C48.0675 10.0521 48.0607 9.91409 48.0288 9.76851L48.0106 9.68896H44.8899V10.6125H47.0487C46.9899 11.045 46.8657 11.4085 46.6151 11.6571C46.1842 12.0829 45.6451 12.2974 44.9907 12.2974C44.3775 12.2974 43.8544 12.084 43.4017 11.6612L43.4006 11.6601C42.9567 11.2339 42.7352 10.6844 42.7352 9.99948C42.7352 9.31403 42.9567 8.77048 43.4017 8.34388C43.8541 7.91634 44.3768 7.70765 44.9907 7.70765C45.6755 7.70765 46.1925 7.92828 46.5798 8.38018L46.6504 8.46286L47.3219 7.79335L47.2624 7.72277C47.0176 7.43086 46.6817 7.19739 46.2753 7.02605C45.8682 6.8566 45.4395 6.76489 44.9907 6.76489L44.9907 6.76492Z"/>
<path d="M48.9954 6.90234V13.0983H52.7391V12.1606H49.9784V10.4626H52.4669V9.53901H49.9784V7.84005H52.7391V7.73922V6.90234H48.9954Z"/>
<path d="M53.3531 6.90234V7.84005H55.0471V13.0983H56.0302V12.9974V7.84005H57.7241V6.90234H53.3531Z"/>
<path d="M60.5414 6.90234V13.0983H60.6412H61.5224V6.90234H60.5414Z"/>
<path d="M62.3047 6.90234V7.84005H64.0047V13.0983H64.9817V12.9974V7.84005H66.6807V6.90234H62.3047Z"/>
<path d="M72.2516 6.76489C71.3397 6.76489 70.5673 7.07973 69.9517 7.70361C69.3375 8.32602 69.0281 9.09905 69.0281 10.0005C69.0281 10.9019 69.3376 11.6749 69.9517 12.2974C70.5673 12.9212 71.3397 13.2361 72.2516 13.2361C73.1586 13.2361 73.9308 12.9213 74.5464 12.2974C75.1606 11.6749 75.47 10.9019 75.47 10.0005C75.47 9.10421 75.1598 8.33561 74.5414 7.70865C73.9257 7.07961 73.1536 6.76489 72.2516 6.76489ZM72.2516 7.7026C72.8758 7.7026 73.3978 7.91577 73.8255 8.34689C74.2559 8.77723 74.4728 9.32361 74.4728 10.0005C74.4728 10.6774 74.2561 11.2227 73.8255 11.6531C73.3978 12.0841 72.8758 12.2974 72.2516 12.2974C71.6221 12.2974 71.1058 12.0839 70.6726 11.6521C70.2426 11.2218 70.0253 10.677 70.0253 10.0005C70.0253 9.32392 70.2425 8.77813 70.6726 8.3479C71.1059 7.91615 71.6221 7.7026 72.2516 7.7026Z"/>
<path d="M76.3656 6.90234V13.0983H76.4654H77.3416V9.26173L77.3164 8.41377L80.2737 13.0983H81.2447V6.90234H80.2637V10.514L80.2888 11.359L77.4697 6.90234H76.3656Z"/>
<path d="M68.9374 21.7524C66.561 21.7524 64.6197 23.5399 64.6197 26.0061C64.6197 28.4524 66.561 30.2586 68.9374 30.2586C71.3189 30.2586 73.2602 28.4524 73.2602 26.0061C73.2602 23.5399 71.3189 21.7524 68.9374 21.7524ZM68.9374 28.5836C67.6335 28.5836 66.5117 27.5199 66.5117 26.0061C66.5117 24.4724 67.6335 23.4274 68.9374 23.4274C70.2413 23.4274 71.3682 24.4724 71.3682 26.0061C71.3682 27.5199 70.2413 28.5836 68.9374 28.5836ZM59.5165 21.7524C57.1351 21.7524 55.1988 23.5399 55.1988 26.0061C55.1988 28.4524 57.1351 30.2586 59.5165 30.2586C61.8967 30.2586 63.8343 28.4524 63.8343 26.0061C63.8343 23.5399 61.8967 21.7524 59.5165 21.7524ZM59.5165 28.5836C58.2113 28.5836 57.0858 27.5199 57.0858 26.0061C57.0858 24.4724 58.2113 23.4274 59.5165 23.4274C60.8205 23.4274 61.9423 24.4724 61.9423 26.0061C61.9423 27.5199 60.8205 28.5836 59.5165 28.5836ZM48.3061 23.0561V24.8636H52.6732C52.5454 25.8737 52.204 26.6161 51.6804 27.1336C51.043 27.7586 50.0501 28.4524 48.3061 28.4524C45.6186 28.4524 43.5141 26.3086 43.5141 23.6524C43.5141 20.9961 45.6186 18.8524 48.3061 18.8524C49.7593 18.8524 50.8166 19.4136 51.5969 20.1411L52.8856 18.8674C51.7942 17.8374 50.3423 17.0461 48.3061 17.0461C44.6208 17.0461 41.5234 20.0099 41.5234 23.6524C41.5234 27.2949 44.6208 30.2586 48.3061 30.2586C50.298 30.2586 51.7942 29.6136 52.9704 28.4037C54.1756 27.2124 54.5513 25.5374 54.5513 24.1849C54.5513 23.7649 54.5169 23.3786 54.4525 23.0561H48.3061ZM94.147 24.4574C93.7914 23.5061 92.6951 21.7524 90.4616 21.7524C88.2483 21.7524 86.4057 23.4761 86.4057 26.0061C86.4057 28.3886 88.2294 30.2586 90.6741 30.2586C92.6508 30.2586 93.7916 29.0674 94.2608 28.3736L92.7937 27.4074C92.3043 28.1149 91.6378 28.5836 90.6741 28.5836C89.7167 28.5836 89.0299 28.1499 88.5898 27.2949L94.3455 24.9411L94.147 24.4574ZM88.2787 25.8736C88.2295 24.2336 89.5675 23.3936 90.5261 23.3936C91.2773 23.3936 91.9148 23.7648 92.1272 24.2961L88.2787 25.8736ZM83.6005 29.9999H85.4925V17.4999H83.6005V29.9999ZM80.502 22.6999H80.4386C80.0137 22.2024 79.203 21.7524 78.1761 21.7524C76.021 21.7524 74.0506 23.6224 74.0506 26.0199C74.0506 28.4037 76.021 30.2586 78.1761 30.2586C79.203 30.2586 80.0137 29.8049 80.4386 29.2924H80.502V29.9024C80.502 31.5286 79.623 32.4024 78.2052 32.4024C77.0493 32.4024 76.3322 31.5774 76.0362 30.8836L74.3908 31.5624C74.8652 32.6899 76.121 34.0774 78.2052 34.0774C80.4236 34.0774 82.2953 32.7874 82.2953 29.6486V22.0112H80.502V22.6999ZM78.338 28.5836C77.0341 28.5836 75.9427 27.5049 75.9427 26.0199C75.9427 24.5211 77.0341 23.4274 78.338 23.4274C79.623 23.4274 80.636 24.5211 80.636 26.0199C80.636 27.5049 79.623 28.5836 78.338 28.5836ZM103.005 17.4999H98.4799V29.9999H100.367V25.2636H103.005C105.101 25.2636 107.156 23.7649 107.156 21.3811C107.156 18.9986 105.096 17.4999 103.005 17.4999ZM103.054 23.5249H100.367V19.2386H103.054C104.463 19.2386 105.268 20.3949 105.268 21.3811C105.268 22.3486 104.463 23.5249 103.054 23.5249ZM114.719 21.7286C113.355 21.7286 111.938 22.3236 111.355 23.6424L113.029 24.3361C113.39 23.6424 114.052 23.4174 114.753 23.4174C115.732 23.4174 116.725 23.9986 116.74 25.0249V25.1561C116.398 24.9612 115.667 24.6723 114.768 24.6723C112.965 24.6723 111.127 25.6536 111.127 27.4848C111.127 29.1598 112.604 30.2386 114.265 30.2386C115.534 30.2386 116.235 29.6723 116.675 29.0136H116.74V29.9798H118.562V25.1848C118.562 22.9686 116.888 21.7286 114.719 21.7286L114.719 21.7286ZM114.491 28.5786C113.874 28.5786 113.014 28.2761 113.014 27.5199C113.014 26.5524 114.086 26.1811 115.015 26.1811C115.845 26.1811 116.235 26.3623 116.74 26.6012C116.592 27.7586 115.584 28.5786 114.491 28.5786ZM125.202 22.0024L123.033 27.4211H122.968L120.726 22.0024H118.691L122.06 29.5749L120.138 33.7886H122.11L127.301 22.0024H125.202ZM108.193 29.9999H110.085V17.4999H108.193V29.9999Z"/>
<path d="M10.5575 7.53881C10.2603 7.84631 10.0883 8.32506 10.0883 8.94506V31.0601C10.0883 31.6801 10.2603 32.1588 10.5575 32.4663L10.6308 32.5338L23.1692 20.1463V19.8538L10.6308 7.46631L10.5575 7.53881Z"/>
<path d="M10.626 32.6952L23.3186 19.9889L10.6366 7.30542C10.2979 7.50289 10.0883 7.9601 10.0883 8.55859V31.4542C10.0928 32.0526 10.2948 32.4764 10.626 32.6952Z"/>
<path d="M23.774 19.6382L27.5547 15.8529L12.1584 7.4013C11.8991 7.2505 11.6046 7.17085 11.3047 7.17041L23.7725 19.6367L23.774 19.6382Z"/>
<path d="M23.7736 20.3413L11.2664 32.8623C11.5803 32.8675 11.8895 32.7855 12.1595 32.6253L27.5863 24.1509L23.7736 20.3413Z"/>
<path d="M33.1318 18.9193L28.0083 16.1016L24.1243 19.9902L28.0372 23.903L33.1303 21.0929C34.2133 20.496 34.2133 19.5132 33.1318 18.9193H33.1318Z"/>
</svg>
