<svg width="360" height="215" viewBox="0 0 360 215" fill="none" xmlns="http://www.w3.org/2000/svg">
<rect y="158" width="360" height="1" fill="white" fill-opacity="0.07"/>
<rect y="209" width="360" height="1" fill="white" fill-opacity="0.07"/>
<rect y="107" width="360" height="1" fill="white" fill-opacity="0.07"/>
<rect y="56" width="360" height="1" fill="white" fill-opacity="0.07"/>
<rect y="5" width="360" height="1" fill="white" fill-opacity="0.07"/>
<path d="M0 209H3.91304H7.82609L11.7391 182.272L15.6522 137.95L19.5652 180.58L23.4783 150.807L27.3913 145.393L31.3043 148.1L35.2174 119.342L43.0435 134.228L46.9565 120.018L50.8696 113.928L54.7826 115.62L58.6957 112.237L62.6087 63.855L66.5217 134.228L70.4348 119.342L74.3478 111.898L78.2609 121.372L82.1739 93.9667L86.087 92.6133L90 95.9967L93.913 84.8317H97.8261L101.739 83.4783L105.652 78.065L109.565 80.095L113.478 124.755L117.391 107.838L121.304 124.078L125.217 147.762L129.13 115.62L133.043 89.9067L136.957 51.3367L140.87 55.3967L144.783 53.3667L148.696 47.2767H156.522L160.435 43.555L164.348 56.75L168.261 110.545L172.174 71.975L176.087 70.2833L180 51.675L183.913 45.2467L187.826 41.8633H195.652L199.565 38.48L203.478 71.6367L207.391 70.2833L211.304 62.84L215.217 65.2083L219.13 62.84L223.043 58.4417L226.957 60.81L230.87 47.9533L234.783 56.75L238.696 59.795L242.609 58.4417L246.522 53.0283L250.435 52.3517L254.348 43.2167L258.261 45.9233L262.174 27.9917H270L273.913 33.7433L277.826 50.9983L281.739 53.0283L285.652 49.9833L289.565 55.735L293.478 69.6067L297.391 67.5767L301.304 59.795L305.217 57.4267L309.13 50.66L313.044 48.63L316.957 52.0133L320.87 42.54L324.783 33.7433L328.696 40.8483L332.609 24.27L336.522 31.7133L340.435 17.5033L344.348 6L348.261 17.8417L352.174 26.6383L356.087 32.0517L360 30.0217" stroke="white" stroke-opacity="0.5" stroke-linejoin="round"/>
<rect y="153" width="17" height="11" fill="#242424"/>
<path d="M5.86 155V162H4.56V156.09H3.08V155H5.86ZM10.1686 162.1C9.60859 162.1 9.10859 161.96 8.66859 161.68C8.22859 161.393 7.88193 160.98 7.62859 160.44C7.37526 159.893 7.24859 159.247 7.24859 158.5C7.24859 157.753 7.37526 157.11 7.62859 156.57C7.88193 156.023 8.22859 155.61 8.66859 155.33C9.10859 155.043 9.60859 154.9 10.1686 154.9C10.7286 154.9 11.2286 155.043 11.6686 155.33C12.1153 155.61 12.4653 156.023 12.7186 156.57C12.9719 157.11 13.0986 157.753 13.0986 158.5C13.0986 159.247 12.9719 159.893 12.7186 160.44C12.4653 160.98 12.1153 161.393 11.6686 161.68C11.2286 161.96 10.7286 162.1 10.1686 162.1ZM10.1686 160.97C10.6686 160.97 11.0619 160.763 11.3486 160.35C11.6419 159.937 11.7886 159.32 11.7886 158.5C11.7886 157.68 11.6419 157.063 11.3486 156.65C11.0619 156.237 10.6686 156.03 10.1686 156.03C9.67526 156.03 9.28193 156.237 8.98859 156.65C8.70193 157.063 8.55859 157.68 8.55859 158.5C8.55859 159.32 8.70193 159.937 8.98859 160.35C9.28193 160.763 9.67526 160.97 10.1686 160.97Z" fill="#737373"/>
<rect y="204" width="13" height="11" fill="#242424"/>
<path d="M6.36 213.1C5.8 213.1 5.3 212.96 4.86 212.68C4.42 212.393 4.07333 211.98 3.82 211.44C3.56667 210.893 3.44 210.247 3.44 209.5C3.44 208.753 3.56667 208.11 3.82 207.57C4.07333 207.023 4.42 206.61 4.86 206.33C5.3 206.043 5.8 205.9 6.36 205.9C6.92 205.9 7.42 206.043 7.86 206.33C8.30667 206.61 8.65667 207.023 8.91 207.57C9.16333 208.11 9.29 208.753 9.29 209.5C9.29 210.247 9.16333 210.893 8.91 211.44C8.65667 211.98 8.30667 212.393 7.86 212.68C7.42 212.96 6.92 213.1 6.36 213.1ZM6.36 211.97C6.86 211.97 7.25333 211.763 7.54 211.35C7.83333 210.937 7.98 210.32 7.98 209.5C7.98 208.68 7.83333 208.063 7.54 207.65C7.25333 207.237 6.86 207.03 6.36 207.03C5.86667 207.03 5.47333 207.237 5.18 207.65C4.89333 208.063 4.75 208.68 4.75 209.5C4.75 210.32 4.89333 210.937 5.18 211.35C5.47333 211.763 5.86667 211.97 6.36 211.97Z" fill="#737373"/>
<rect y="102" width="19" height="11" fill="#242424"/>
<path d="M8.51 109.9V111H3.35V110.13L6.13 107.49C6.44333 107.19 6.65333 106.93 6.76 106.71C6.87333 106.483 6.93 106.26 6.93 106.04C6.93 105.713 6.82 105.463 6.6 105.29C6.38 105.117 6.05667 105.03 5.63 105.03C4.91667 105.03 4.37 105.273 3.99 105.76L3.08 105.06C3.35333 104.693 3.72 104.41 4.18 104.21C4.64667 104.003 5.16667 103.9 5.74 103.9C6.5 103.9 7.10667 104.08 7.56 104.44C8.01333 104.8 8.24 105.29 8.24 105.91C8.24 106.29 8.16 106.647 8 106.98C7.84 107.313 7.53333 107.693 7.08 108.12L5.21 109.9H8.51ZM12.151 111.1C11.591 111.1 11.091 110.96 10.651 110.68C10.211 110.393 9.86435 109.98 9.61102 109.44C9.35768 108.893 9.23102 108.247 9.23102 107.5C9.23102 106.753 9.35768 106.11 9.61102 105.57C9.86435 105.023 10.211 104.61 10.651 104.33C11.091 104.043 11.591 103.9 12.151 103.9C12.711 103.9 13.211 104.043 13.651 104.33C14.0977 104.61 14.4477 105.023 14.701 105.57C14.9543 106.11 15.081 106.753 15.081 107.5C15.081 108.247 14.9543 108.893 14.701 109.44C14.4477 109.98 14.0977 110.393 13.651 110.68C13.211 110.96 12.711 111.1 12.151 111.1ZM12.151 109.97C12.651 109.97 13.0443 109.763 13.331 109.35C13.6243 108.937 13.771 108.32 13.771 107.5C13.771 106.68 13.6243 106.063 13.331 105.65C13.0443 105.237 12.651 105.03 12.151 105.03C11.6577 105.03 11.2643 105.237 10.971 105.65C10.6843 106.063 10.541 106.68 10.541 107.5C10.541 108.32 10.6843 108.937 10.971 109.35C11.2643 109.763 11.6577 109.97 12.151 109.97Z" fill="#737373"/>
<rect y="51" width="19" height="11" fill="#242424"/>
<path d="M6.42 55.89C7.06667 55.97 7.56 56.19 7.9 56.55C8.24 56.91 8.41 57.36 8.41 57.9C8.41 58.3067 8.30667 58.6767 8.1 59.01C7.89333 59.3433 7.58 59.61 7.16 59.81C6.74667 60.0033 6.24 60.1 5.64 60.1C5.14 60.1 4.65667 60.03 4.19 59.89C3.73 59.7433 3.33667 59.5433 3.01 59.29L3.57 58.28C3.82333 58.4933 4.13 58.6633 4.49 58.79C4.85667 58.91 5.23333 58.97 5.62 58.97C6.08 58.97 6.44 58.8767 6.7 58.69C6.96667 58.4967 7.1 58.2367 7.1 57.91C7.1 57.5833 6.97333 57.33 6.72 57.15C6.47333 56.9633 6.09333 56.87 5.58 56.87H4.94V55.98L6.53 54.09H3.35V53H8.12V53.87L6.42 55.89ZM12.1803 60.1C11.6203 60.1 11.1203 59.96 10.6803 59.68C10.2403 59.3933 9.89365 58.98 9.64031 58.44C9.38698 57.8933 9.26031 57.2467 9.26031 56.5C9.26031 55.7533 9.38698 55.11 9.64031 54.57C9.89365 54.0233 10.2403 53.61 10.6803 53.33C11.1203 53.0433 11.6203 52.9 12.1803 52.9C12.7403 52.9 13.2403 53.0433 13.6803 53.33C14.127 53.61 14.477 54.0233 14.7303 54.57C14.9836 55.11 15.1103 55.7533 15.1103 56.5C15.1103 57.2467 14.9836 57.8933 14.7303 58.44C14.477 58.98 14.127 59.3933 13.6803 59.68C13.2403 59.96 12.7403 60.1 12.1803 60.1ZM12.1803 58.97C12.6803 58.97 13.0736 58.7633 13.3603 58.35C13.6536 57.9367 13.8003 57.32 13.8003 56.5C13.8003 55.68 13.6536 55.0633 13.3603 54.65C13.0736 54.2367 12.6803 54.03 12.1803 54.03C11.687 54.03 11.2936 54.2367 11.0003 54.65C10.7136 55.0633 10.5703 55.68 10.5703 56.5C10.5703 57.32 10.7136 57.9367 11.0003 58.35C11.2936 58.7633 11.687 58.97 12.1803 58.97Z" fill="#737373"/>
<rect width="20" height="11" fill="#242424"/>
<path d="M9.68 7.41H8.44V9H7.18V7.41H3.34V6.51L6.79 2H8.18L4.93 6.31H7.22V4.9H8.44V6.31H9.68V7.41ZM13.1471 9.1C12.5871 9.1 12.0871 8.96 11.6471 8.68C11.2071 8.39333 10.8604 7.98 10.6071 7.44C10.3538 6.89333 10.2271 6.24667 10.2271 5.5C10.2271 4.75333 10.3538 4.11 10.6071 3.57C10.8604 3.02333 11.2071 2.61 11.6471 2.33C12.0871 2.04333 12.5871 1.9 13.1471 1.9C13.7071 1.9 14.2071 2.04333 14.6471 2.33C15.0938 2.61 15.4438 3.02333 15.6971 3.57C15.9504 4.11 16.0771 4.75333 16.0771 5.5C16.0771 6.24667 15.9504 6.89333 15.6971 7.44C15.4438 7.98 15.0938 8.39333 14.6471 8.68C14.2071 8.96 13.7071 9.1 13.1471 9.1ZM13.1471 7.97C13.6471 7.97 14.0404 7.76333 14.3271 7.35C14.6204 6.93667 14.7671 6.32 14.7671 5.5C14.7671 4.68 14.6204 4.06333 14.3271 3.65C14.0404 3.23667 13.6471 3.03 13.1471 3.03C12.6538 3.03 12.2604 3.23667 11.9671 3.65C11.6804 4.06333 11.5371 4.68 11.5371 5.5C11.5371 6.32 11.6804 6.93667 11.9671 7.35C12.2604 7.76333 12.6538 7.97 13.1471 7.97Z" fill="#737373"/>
</svg>
