<svg width="360" height="253" viewBox="0 0 360 253" fill="none" xmlns="http://www.w3.org/2000/svg">
<rect y="247" width="360" height="1" fill="white" fill-opacity="0.07"/>
<rect y="167" width="360" height="1" fill="white" fill-opacity="0.07"/>
<rect y="86" width="360" height="1" fill="white" fill-opacity="0.07"/>
<rect y="5" width="360" height="1" fill="white" fill-opacity="0.07"/>
<path d="M11.7391 216.268L7.82609 248H360V35.5183L356.087 37.9283L352.174 31.5017L348.261 21.0583L344.348 7L340.435 20.6567L336.522 37.5267L332.609 28.69L328.696 48.3717L324.783 39.9367L320.87 50.38L316.957 61.6267L313.043 57.61L309.13 60.02L305.217 68.0533L301.304 70.865L297.391 80.1033L293.478 82.5133L289.565 66.045L285.652 59.2167L281.739 62.8317L277.826 60.4217L273.913 39.9367L270 33.1083H262.174L258.261 54.3967L254.348 51.1833L250.435 62.0283L246.522 62.8317L242.609 69.2583L238.696 70.865L234.783 67.25L230.87 56.8067L226.957 72.07L223.043 69.2583L219.13 74.48L215.217 77.2917L211.304 74.48L207.391 83.3167L203.478 84.9233L199.565 106.613L195.652 110.63H187.826L183.913 114.647L180 122.278L176.087 135.533L172.174 137.542L168.261 131.115L164.348 129.107L160.435 118.663L156.522 123.082H148.696L144.783 130.312L140.87 132.722L136.957 127.902L133.043 129.508L129.13 137.14L125.217 143.968L121.304 147.182L117.391 145.575L113.478 147.985L109.565 153.608L105.652 151.198L101.739 157.625L97.8261 159.232H93.913L90 172.487L86.087 168.47L82.1739 170.077L78.2609 178.913L74.3478 181.323L70.4348 191.767L66.5217 193.775L62.6087 211.448L58.6957 201.808L54.7826 205.825L50.8696 203.817L46.9565 211.047L43.0435 214.662H35.2174L31.3043 220.687L27.3913 223.097L23.4783 217.875L19.5652 214.26L15.6522 216.268H11.7391Z" fill="url(#paint0_linear)"/>
<path d="M0 248H3.91304H7.82609L11.7391 216.268H15.6522L19.5652 214.26L23.4783 217.875L27.3913 223.097L31.3043 220.687L35.2174 214.662H43.0435L46.9565 211.047L50.8696 203.817L54.7826 205.825L58.6957 201.808L62.6087 211.448L66.5217 193.775L70.4348 191.767L74.3478 181.323L78.2609 178.913L82.1739 170.077L86.087 168.47L90 172.487L93.913 159.232H97.8261L101.739 157.625L105.652 151.198L109.565 153.608L113.478 147.985L117.391 145.575L121.304 147.182L125.217 143.968L129.13 137.14L133.043 129.508L136.957 127.902L140.87 132.722L144.783 130.312L148.696 123.082H156.522L160.435 118.663L164.348 129.107L168.261 131.115L172.174 137.542L176.087 135.533L180 122.278L183.913 114.647L187.826 110.63H195.652L199.565 106.613L203.478 84.9233L207.391 83.3167L211.304 74.48L215.217 77.2917L219.13 74.48L223.043 69.2583L226.957 72.07L230.87 56.8067L234.783 67.25L238.696 70.865L242.609 69.2583L246.522 62.8317L250.435 62.0283L254.348 51.1833L258.261 54.3967L262.174 33.1083H270L273.913 39.9367L277.826 60.4217L281.739 62.8317L285.652 59.2167L289.565 66.045L293.478 82.5133L297.391 80.1033L301.304 70.865L305.217 68.0533L309.13 60.02L313.043 57.61L316.957 61.6267L320.87 50.38L324.783 39.9367L328.696 48.3717L332.609 28.69L336.522 37.5267L340.435 20.6567L344.348 7L348.261 21.0583L352.174 31.5017L356.087 37.9283L360 35.5183" stroke="white" stroke-opacity="0.5" stroke-linejoin="round"/>
<rect y="242" width="38" height="11" fill="#242424"/>
<path d="M6.36 251.1C5.8 251.1 5.3 250.96 4.86 250.68C4.42 250.393 4.07333 249.98 3.82 249.44C3.56667 248.893 3.44 248.247 3.44 247.5C3.44 246.753 3.56667 246.11 3.82 245.57C4.07333 245.023 4.42 244.61 4.86 244.33C5.3 244.043 5.8 243.9 6.36 243.9C6.92 243.9 7.42 244.043 7.86 244.33C8.30667 244.61 8.65667 245.023 8.91 245.57C9.16333 246.11 9.29 246.753 9.29 247.5C9.29 248.247 9.16333 248.893 8.91 249.44C8.65667 249.98 8.30667 250.393 7.86 250.68C7.42 250.96 6.92 251.1 6.36 251.1ZM6.36 249.97C6.86 249.97 7.25333 249.763 7.54 249.35C7.83333 248.937 7.98 248.32 7.98 247.5C7.98 246.68 7.83333 246.063 7.54 245.65C7.25333 245.237 6.86 245.03 6.36 245.03C5.86667 245.03 5.47333 245.237 5.18 245.65C4.89333 246.063 4.75 246.68 4.75 247.5C4.75 248.32 4.89333 248.937 5.18 249.35C5.47333 249.763 5.86667 249.97 6.36 249.97ZM16.4422 251.1C15.4755 251.1 14.7222 250.83 14.1822 250.29C13.6422 249.743 13.3722 248.963 13.3722 247.95V244H14.6722V247.9C14.6722 249.273 15.2655 249.96 16.4522 249.96C17.6322 249.96 18.2222 249.273 18.2222 247.9V244H19.5022V247.95C19.5022 248.963 19.2322 249.743 18.6922 250.29C18.1589 250.83 17.4089 251.1 16.4422 251.1ZM23.4928 251.1C22.9528 251.1 22.4295 251.023 21.9228 250.87C21.4228 250.717 21.0261 250.513 20.7328 250.26L21.1828 249.25C21.4695 249.477 21.8195 249.663 22.2328 249.81C22.6528 249.95 23.0728 250.02 23.4928 250.02C24.0128 250.02 24.3995 249.937 24.6528 249.77C24.9128 249.603 25.0428 249.383 25.0428 249.11C25.0428 248.91 24.9695 248.747 24.8228 248.62C24.6828 248.487 24.5028 248.383 24.2828 248.31C24.0628 248.237 23.7628 248.153 23.3828 248.06C22.8495 247.933 22.4161 247.807 22.0828 247.68C21.7561 247.553 21.4728 247.357 21.2328 247.09C20.9995 246.817 20.8828 246.45 20.8828 245.99C20.8828 245.603 20.9861 245.253 21.1928 244.94C21.4061 244.62 21.7228 244.367 22.1428 244.18C22.5695 243.993 23.0895 243.9 23.7028 243.9C24.1295 243.9 24.5495 243.953 24.9628 244.06C25.3761 244.167 25.7328 244.32 26.0328 244.52L25.6228 245.53C25.3161 245.35 24.9961 245.213 24.6628 245.12C24.3295 245.027 24.0061 244.98 23.6928 244.98C23.1795 244.98 22.7961 245.067 22.5428 245.24C22.2961 245.413 22.1728 245.643 22.1728 245.93C22.1728 246.13 22.2428 246.293 22.3828 246.42C22.5295 246.547 22.7128 246.647 22.9328 246.72C23.1528 246.793 23.4528 246.877 23.8328 246.97C24.3528 247.09 24.7795 247.217 25.1128 247.35C25.4461 247.477 25.7295 247.673 25.9628 247.94C26.2028 248.207 26.3228 248.567 26.3228 249.02C26.3228 249.407 26.2161 249.757 26.0028 250.07C25.7961 250.383 25.4795 250.633 25.0528 250.82C24.6261 251.007 24.1061 251.1 23.4928 251.1ZM27.6119 244H30.6719C31.4185 244 32.0819 244.147 32.6619 244.44C33.2419 244.727 33.6919 245.137 34.0119 245.67C34.3319 246.197 34.4919 246.807 34.4919 247.5C34.4919 248.193 34.3319 248.807 34.0119 249.34C33.6919 249.867 33.2419 250.277 32.6619 250.57C32.0819 250.857 31.4185 251 30.6719 251H27.6119V244ZM30.6119 249.9C31.1252 249.9 31.5752 249.803 31.9619 249.61C32.3552 249.41 32.6552 249.13 32.8619 248.77C33.0752 248.403 33.1819 247.98 33.1819 247.5C33.1819 247.02 33.0752 246.6 32.8619 246.24C32.6552 245.873 32.3552 245.593 31.9619 245.4C31.5752 245.2 31.1252 245.1 30.6119 245.1H28.9119V249.9H30.6119Z" fill="#737373"/>
<rect y="162" width="49" height="11" fill="#242424"/>
<path d="M5.86 164V171H4.56V165.09H3.08V164H5.86ZM10.1686 171.1C9.60859 171.1 9.10859 170.96 8.66859 170.68C8.22859 170.393 7.88193 169.98 7.62859 169.44C7.37526 168.893 7.24859 168.247 7.24859 167.5C7.24859 166.753 7.37526 166.11 7.62859 165.57C7.88193 165.023 8.22859 164.61 8.66859 164.33C9.10859 164.043 9.60859 163.9 10.1686 163.9C10.7286 163.9 11.2286 164.043 11.6686 164.33C12.1153 164.61 12.4653 165.023 12.7186 165.57C12.9719 166.11 13.0986 166.753 13.0986 167.5C13.0986 168.247 12.9719 168.893 12.7186 169.44C12.4653 169.98 12.1153 170.393 11.6686 170.68C11.2286 170.96 10.7286 171.1 10.1686 171.1ZM10.1686 169.97C10.6686 169.97 11.0619 169.763 11.3486 169.35C11.6419 168.937 11.7886 168.32 11.7886 167.5C11.7886 166.68 11.6419 166.063 11.3486 165.65C11.0619 165.237 10.6686 165.03 10.1686 165.03C9.67526 165.03 9.28193 165.237 8.98859 165.65C8.70193 166.063 8.55859 166.68 8.55859 167.5C8.55859 168.32 8.70193 168.937 8.98859 169.35C9.28193 169.763 9.67526 169.97 10.1686 169.97ZM16.8971 171.1C16.3371 171.1 15.8371 170.96 15.3971 170.68C14.9571 170.393 14.6104 169.98 14.3571 169.44C14.1038 168.893 13.9771 168.247 13.9771 167.5C13.9771 166.753 14.1038 166.11 14.3571 165.57C14.6104 165.023 14.9571 164.61 15.3971 164.33C15.8371 164.043 16.3371 163.9 16.8971 163.9C17.4571 163.9 17.9571 164.043 18.3971 164.33C18.8438 164.61 19.1938 165.023 19.4471 165.57C19.7004 166.11 19.8271 166.753 19.8271 167.5C19.8271 168.247 19.7004 168.893 19.4471 169.44C19.1938 169.98 18.8438 170.393 18.3971 170.68C17.9571 170.96 17.4571 171.1 16.8971 171.1ZM16.8971 169.97C17.3971 169.97 17.7904 169.763 18.0771 169.35C18.3704 168.937 18.5171 168.32 18.5171 167.5C18.5171 166.68 18.3704 166.063 18.0771 165.65C17.7904 165.237 17.3971 165.03 16.8971 165.03C16.4038 165.03 16.0104 165.237 15.7171 165.65C15.4304 166.063 15.2871 166.68 15.2871 167.5C15.2871 168.32 15.4304 168.937 15.7171 169.35C16.0104 169.763 16.4038 169.97 16.8971 169.97ZM26.9793 171.1C26.0126 171.1 25.2593 170.83 24.7193 170.29C24.1793 169.743 23.9093 168.963 23.9093 167.95V164H25.2093V167.9C25.2093 169.273 25.8026 169.96 26.9893 169.96C28.1693 169.96 28.7593 169.273 28.7593 167.9V164H30.0393V167.95C30.0393 168.963 29.7693 169.743 29.2293 170.29C28.696 170.83 27.946 171.1 26.9793 171.1ZM34.0299 171.1C33.4899 171.1 32.9666 171.023 32.4599 170.87C31.9599 170.717 31.5633 170.513 31.2699 170.26L31.7199 169.25C32.0066 169.477 32.3566 169.663 32.7699 169.81C33.1899 169.95 33.6099 170.02 34.0299 170.02C34.5499 170.02 34.9366 169.937 35.1899 169.77C35.4499 169.603 35.5799 169.383 35.5799 169.11C35.5799 168.91 35.5066 168.747 35.3599 168.62C35.2199 168.487 35.0399 168.383 34.8199 168.31C34.5999 168.237 34.2999 168.153 33.9199 168.06C33.3866 167.933 32.9533 167.807 32.6199 167.68C32.2933 167.553 32.0099 167.357 31.7699 167.09C31.5366 166.817 31.4199 166.45 31.4199 165.99C31.4199 165.603 31.5233 165.253 31.7299 164.94C31.9433 164.62 32.2599 164.367 32.6799 164.18C33.1066 163.993 33.6266 163.9 34.2399 163.9C34.6666 163.9 35.0866 163.953 35.4999 164.06C35.9133 164.167 36.2699 164.32 36.5699 164.52L36.1599 165.53C35.8533 165.35 35.5333 165.213 35.1999 165.12C34.8666 165.027 34.5433 164.98 34.2299 164.98C33.7166 164.98 33.3333 165.067 33.0799 165.24C32.8333 165.413 32.7099 165.643 32.7099 165.93C32.7099 166.13 32.7799 166.293 32.9199 166.42C33.0666 166.547 33.2499 166.647 33.4699 166.72C33.6899 166.793 33.9899 166.877 34.3699 166.97C34.8899 167.09 35.3166 167.217 35.6499 167.35C35.9833 167.477 36.2666 167.673 36.4999 167.94C36.7399 168.207 36.8599 168.567 36.8599 169.02C36.8599 169.407 36.7533 169.757 36.5399 170.07C36.3333 170.383 36.0166 170.633 35.5899 170.82C35.1633 171.007 34.6433 171.1 34.0299 171.1ZM38.149 164H41.209C41.9557 164 42.619 164.147 43.199 164.44C43.779 164.727 44.229 165.137 44.549 165.67C44.869 166.197 45.029 166.807 45.029 167.5C45.029 168.193 44.869 168.807 44.549 169.34C44.229 169.867 43.779 170.277 43.199 170.57C42.619 170.857 41.9557 171 41.209 171H38.149V164ZM41.149 169.9C41.6623 169.9 42.1123 169.803 42.499 169.61C42.8923 169.41 43.1923 169.13 43.399 168.77C43.6123 168.403 43.719 167.98 43.719 167.5C43.719 167.02 43.6123 166.6 43.399 166.24C43.1923 165.873 42.8923 165.593 42.499 165.4C42.1123 165.2 41.6623 165.1 41.149 165.1H39.449V169.9H41.149Z" fill="#737373"/>
<rect y="81" width="51" height="11" fill="#242424"/>
<path d="M8.51 88.9V90H3.35V89.13L6.13 86.49C6.44333 86.19 6.65333 85.93 6.76 85.71C6.87333 85.4833 6.93 85.26 6.93 85.04C6.93 84.7133 6.82 84.4633 6.6 84.29C6.38 84.1167 6.05667 84.03 5.63 84.03C4.91667 84.03 4.37 84.2733 3.99 84.76L3.08 84.06C3.35333 83.6933 3.72 83.41 4.18 83.21C4.64667 83.0033 5.16667 82.9 5.74 82.9C6.5 82.9 7.10667 83.08 7.56 83.44C8.01333 83.8 8.24 84.29 8.24 84.91C8.24 85.29 8.16 85.6467 8 85.98C7.84 86.3133 7.53333 86.6933 7.08 87.12L5.21 88.9H8.51ZM12.151 90.1C11.591 90.1 11.091 89.96 10.651 89.68C10.211 89.3933 9.86435 88.98 9.61102 88.44C9.35768 87.8933 9.23102 87.2467 9.23102 86.5C9.23102 85.7533 9.35768 85.11 9.61102 84.57C9.86435 84.0233 10.211 83.61 10.651 83.33C11.091 83.0433 11.591 82.9 12.151 82.9C12.711 82.9 13.211 83.0433 13.651 83.33C14.0977 83.61 14.4477 84.0233 14.701 84.57C14.9543 85.11 15.081 85.7533 15.081 86.5C15.081 87.2467 14.9543 87.8933 14.701 88.44C14.4477 88.98 14.0977 89.3933 13.651 89.68C13.211 89.96 12.711 90.1 12.151 90.1ZM12.151 88.97C12.651 88.97 13.0443 88.7633 13.331 88.35C13.6243 87.9367 13.771 87.32 13.771 86.5C13.771 85.68 13.6243 85.0633 13.331 84.65C13.0443 84.2367 12.651 84.03 12.151 84.03C11.6577 84.03 11.2643 84.2367 10.971 84.65C10.6843 85.0633 10.541 85.68 10.541 86.5C10.541 87.32 10.6843 87.9367 10.971 88.35C11.2643 88.7633 11.6577 88.97 12.151 88.97ZM18.8795 90.1C18.3195 90.1 17.8195 89.96 17.3795 89.68C16.9395 89.3933 16.5929 88.98 16.3395 88.44C16.0862 87.8933 15.9595 87.2467 15.9595 86.5C15.9595 85.7533 16.0862 85.11 16.3395 84.57C16.5929 84.0233 16.9395 83.61 17.3795 83.33C17.8195 83.0433 18.3195 82.9 18.8795 82.9C19.4395 82.9 19.9395 83.0433 20.3795 83.33C20.8262 83.61 21.1762 84.0233 21.4295 84.57C21.6829 85.11 21.8095 85.7533 21.8095 86.5C21.8095 87.2467 21.6829 87.8933 21.4295 88.44C21.1762 88.98 20.8262 89.3933 20.3795 89.68C19.9395 89.96 19.4395 90.1 18.8795 90.1ZM18.8795 88.97C19.3795 88.97 19.7729 88.7633 20.0595 88.35C20.3529 87.9367 20.4995 87.32 20.4995 86.5C20.4995 85.68 20.3529 85.0633 20.0595 84.65C19.7729 84.2367 19.3795 84.03 18.8795 84.03C18.3862 84.03 17.9929 84.2367 17.6995 84.65C17.4129 85.0633 17.2695 85.68 17.2695 86.5C17.2695 87.32 17.4129 87.9367 17.6995 88.35C17.9929 88.7633 18.3862 88.97 18.8795 88.97ZM28.9617 90.1C27.9951 90.1 27.2417 89.83 26.7017 89.29C26.1617 88.7433 25.8917 87.9633 25.8917 86.95V83H27.1917V86.9C27.1917 88.2733 27.7851 88.96 28.9717 88.96C30.1517 88.96 30.7417 88.2733 30.7417 86.9V83H32.0217V86.95C32.0217 87.9633 31.7517 88.7433 31.2117 89.29C30.6784 89.83 29.9284 90.1 28.9617 90.1ZM36.0123 90.1C35.4723 90.1 34.949 90.0233 34.4423 89.87C33.9423 89.7167 33.5457 89.5133 33.2523 89.26L33.7023 88.25C33.989 88.4767 34.339 88.6633 34.7523 88.81C35.1723 88.95 35.5923 89.02 36.0123 89.02C36.5323 89.02 36.919 88.9367 37.1723 88.77C37.4323 88.6033 37.5623 88.3833 37.5623 88.11C37.5623 87.91 37.489 87.7467 37.3423 87.62C37.2023 87.4867 37.0223 87.3833 36.8023 87.31C36.5823 87.2367 36.2823 87.1533 35.9023 87.06C35.369 86.9333 34.9357 86.8067 34.6023 86.68C34.2757 86.5533 33.9923 86.3567 33.7523 86.09C33.519 85.8167 33.4023 85.45 33.4023 84.99C33.4023 84.6033 33.5057 84.2533 33.7123 83.94C33.9257 83.62 34.2423 83.3667 34.6623 83.18C35.089 82.9933 35.609 82.9 36.2223 82.9C36.649 82.9 37.069 82.9533 37.4823 83.06C37.8957 83.1667 38.2523 83.32 38.5523 83.52L38.1423 84.53C37.8357 84.35 37.5157 84.2133 37.1823 84.12C36.849 84.0267 36.5257 83.98 36.2123 83.98C35.699 83.98 35.3157 84.0667 35.0623 84.24C34.8157 84.4133 34.6923 84.6433 34.6923 84.93C34.6923 85.13 34.7623 85.2933 34.9023 85.42C35.049 85.5467 35.2323 85.6467 35.4523 85.72C35.6723 85.7933 35.9723 85.8767 36.3523 85.97C36.8723 86.09 37.299 86.2167 37.6323 86.35C37.9657 86.4767 38.249 86.6733 38.4823 86.94C38.7223 87.2067 38.8423 87.5667 38.8423 88.02C38.8423 88.4067 38.7357 88.7567 38.5223 89.07C38.3157 89.3833 37.999 89.6333 37.5723 89.82C37.1457 90.0067 36.6257 90.1 36.0123 90.1ZM40.1314 83H43.1914C43.9381 83 44.6014 83.1467 45.1814 83.44C45.7614 83.7267 46.2114 84.1367 46.5314 84.67C46.8514 85.1967 47.0114 85.8067 47.0114 86.5C47.0114 87.1933 46.8514 87.8067 46.5314 88.34C46.2114 88.8667 45.7614 89.2767 45.1814 89.57C44.6014 89.8567 43.9381 90 43.1914 90H40.1314V83ZM43.1314 88.9C43.6447 88.9 44.0947 88.8033 44.4814 88.61C44.8747 88.41 45.1747 88.13 45.3814 87.77C45.5947 87.4033 45.7014 86.98 45.7014 86.5C45.7014 86.02 45.5947 85.6 45.3814 85.24C45.1747 84.8733 44.8747 84.5933 44.4814 84.4C44.0947 84.2 43.6447 84.1 43.1314 84.1H41.4314V88.9H43.1314Z" fill="#737373"/>
<rect width="51" height="11" fill="#242424"/>
<path d="M6.42 4.89C7.06667 4.97 7.56 5.19 7.9 5.55C8.24 5.91 8.41 6.36 8.41 6.9C8.41 7.30667 8.30667 7.67667 8.1 8.01C7.89333 8.34333 7.58 8.61 7.16 8.81C6.74667 9.00333 6.24 9.1 5.64 9.1C5.14 9.1 4.65667 9.03 4.19 8.89C3.73 8.74333 3.33667 8.54333 3.01 8.29L3.57 7.28C3.82333 7.49333 4.13 7.66333 4.49 7.79C4.85667 7.91 5.23333 7.97 5.62 7.97C6.08 7.97 6.44 7.87667 6.7 7.69C6.96667 7.49667 7.1 7.23667 7.1 6.91C7.1 6.58333 6.97333 6.33 6.72 6.15C6.47333 5.96333 6.09333 5.87 5.58 5.87H4.94V4.98L6.53 3.09H3.35V2H8.12V2.87L6.42 4.89ZM12.1803 9.1C11.6203 9.1 11.1203 8.96 10.6803 8.68C10.2403 8.39333 9.89365 7.98 9.64031 7.44C9.38698 6.89333 9.26031 6.24667 9.26031 5.5C9.26031 4.75333 9.38698 4.11 9.64031 3.57C9.89365 3.02333 10.2403 2.61 10.6803 2.33C11.1203 2.04333 11.6203 1.9 12.1803 1.9C12.7403 1.9 13.2403 2.04333 13.6803 2.33C14.127 2.61 14.477 3.02333 14.7303 3.57C14.9836 4.11 15.1103 4.75333 15.1103 5.5C15.1103 6.24667 14.9836 6.89333 14.7303 7.44C14.477 7.98 14.127 8.39333 13.6803 8.68C13.2403 8.96 12.7403 9.1 12.1803 9.1ZM12.1803 7.97C12.6803 7.97 13.0736 7.76333 13.3603 7.35C13.6536 6.93667 13.8003 6.32 13.8003 5.5C13.8003 4.68 13.6536 4.06333 13.3603 3.65C13.0736 3.23667 12.6803 3.03 12.1803 3.03C11.687 3.03 11.2936 3.23667 11.0003 3.65C10.7136 4.06333 10.5703 4.68 10.5703 5.5C10.5703 6.32 10.7136 6.93667 11.0003 7.35C11.2936 7.76333 11.687 7.97 12.1803 7.97ZM18.9088 9.1C18.3488 9.1 17.8488 8.96 17.4088 8.68C16.9688 8.39333 16.6222 7.98 16.3688 7.44C16.1155 6.89333 15.9888 6.24667 15.9888 5.5C15.9888 4.75333 16.1155 4.11 16.3688 3.57C16.6222 3.02333 16.9688 2.61 17.4088 2.33C17.8488 2.04333 18.3488 1.9 18.9088 1.9C19.4688 1.9 19.9688 2.04333 20.4088 2.33C20.8555 2.61 21.2055 3.02333 21.4588 3.57C21.7122 4.11 21.8388 4.75333 21.8388 5.5C21.8388 6.24667 21.7122 6.89333 21.4588 7.44C21.2055 7.98 20.8555 8.39333 20.4088 8.68C19.9688 8.96 19.4688 9.1 18.9088 9.1ZM18.9088 7.97C19.4088 7.97 19.8022 7.76333 20.0888 7.35C20.3822 6.93667 20.5288 6.32 20.5288 5.5C20.5288 4.68 20.3822 4.06333 20.0888 3.65C19.8022 3.23667 19.4088 3.03 18.9088 3.03C18.4155 3.03 18.0222 3.23667 17.7288 3.65C17.4422 4.06333 17.2988 4.68 17.2988 5.5C17.2988 6.32 17.4422 6.93667 17.7288 7.35C18.0222 7.76333 18.4155 7.97 18.9088 7.97ZM28.991 9.1C28.0243 9.1 27.271 8.83 26.731 8.29C26.191 7.74333 25.921 6.96333 25.921 5.95V2H27.221V5.9C27.221 7.27333 27.8143 7.96 29.001 7.96C30.181 7.96 30.771 7.27333 30.771 5.9V2H32.051V5.95C32.051 6.96333 31.781 7.74333 31.241 8.29C30.7077 8.83 29.9577 9.1 28.991 9.1ZM36.0416 9.1C35.5016 9.1 34.9783 9.02333 34.4716 8.87C33.9716 8.71667 33.575 8.51333 33.2816 8.26L33.7316 7.25C34.0183 7.47667 34.3683 7.66333 34.7816 7.81C35.2016 7.95 35.6216 8.02 36.0416 8.02C36.5616 8.02 36.9483 7.93667 37.2016 7.77C37.4616 7.60333 37.5916 7.38333 37.5916 7.11C37.5916 6.91 37.5183 6.74667 37.3716 6.62C37.2316 6.48667 37.0516 6.38333 36.8316 6.31C36.6116 6.23667 36.3116 6.15333 35.9316 6.06C35.3983 5.93333 34.965 5.80667 34.6316 5.68C34.305 5.55333 34.0216 5.35667 33.7816 5.09C33.5483 4.81667 33.4316 4.45 33.4316 3.99C33.4316 3.60333 33.535 3.25333 33.7416 2.94C33.955 2.62 34.2716 2.36667 34.6916 2.18C35.1183 1.99333 35.6383 1.9 36.2516 1.9C36.6783 1.9 37.0983 1.95333 37.5116 2.06C37.925 2.16667 38.2816 2.32 38.5816 2.52L38.1716 3.53C37.865 3.35 37.545 3.21333 37.2116 3.12C36.8783 3.02667 36.555 2.98 36.2416 2.98C35.7283 2.98 35.345 3.06667 35.0916 3.24C34.845 3.41333 34.7216 3.64333 34.7216 3.93C34.7216 4.13 34.7916 4.29333 34.9316 4.42C35.0783 4.54667 35.2616 4.64667 35.4816 4.72C35.7016 4.79333 36.0016 4.87667 36.3816 4.97C36.9016 5.09 37.3283 5.21667 37.6616 5.35C37.995 5.47667 38.2783 5.67333 38.5116 5.94C38.7516 6.20667 38.8716 6.56667 38.8716 7.02C38.8716 7.40667 38.765 7.75667 38.5516 8.07C38.345 8.38333 38.0283 8.63333 37.6016 8.82C37.175 9.00667 36.655 9.1 36.0416 9.1ZM40.1607 2H43.2207C43.9674 2 44.6307 2.14667 45.2107 2.44C45.7907 2.72667 46.2407 3.13667 46.5607 3.67C46.8807 4.19667 47.0407 4.80667 47.0407 5.5C47.0407 6.19333 46.8807 6.80667 46.5607 7.34C46.2407 7.86667 45.7907 8.27667 45.2107 8.57C44.6307 8.85667 43.9674 9 43.2207 9H40.1607V2ZM43.1607 7.9C43.674 7.9 44.124 7.80333 44.5107 7.61C44.904 7.41 45.204 7.13 45.4107 6.77C45.624 6.40333 45.7307 5.98 45.7307 5.5C45.7307 5.02 45.624 4.6 45.4107 4.24C45.204 3.87333 44.904 3.59333 44.5107 3.4C44.124 3.2 43.674 3.1 43.1607 3.1H41.4607V7.9H43.1607Z" fill="#737373"/>
<defs>
<linearGradient id="paint0_linear" x1="180" y1="7" x2="180" y2="248" gradientUnits="userSpaceOnUse">
<stop stop-color="white" stop-opacity="0.1"/>
<stop offset="1" stop-color="white" stop-opacity="0"/>
</linearGradient>
</defs>
</svg>
