<svg width="360" height="253" viewBox="0 0 360 253" fill="none" xmlns="http://www.w3.org/2000/svg">
<rect y="247" width="360" height="1" fill="white" fill-opacity="0.07"/>
<rect y="167" width="360" height="1" fill="white" fill-opacity="0.07"/>
<rect y="86" width="360" height="1" fill="white" fill-opacity="0.07"/>
<rect y="5" width="360" height="1" fill="white" fill-opacity="0.07"/>
<path d="M11.7391 216.268L7.82609 248H360V35.5183L356.087 37.9283L352.174 31.5017L348.261 21.0583L344.348 7L340.435 20.6567L336.522 37.5267L332.609 28.69L328.696 48.3717L324.783 39.9367L320.87 50.38L316.957 61.6267L313.043 57.61L309.13 60.02L305.217 68.0533L301.304 70.865L297.391 80.1033L293.478 82.5133L289.565 66.045L285.652 59.2167L281.739 62.8317L277.826 60.4217L273.913 39.9367L270 33.1083H262.174L258.261 54.3967L254.348 51.1833L250.435 62.0283L246.522 62.8317L242.609 69.2583L238.696 70.865L234.783 67.25L230.87 56.8067L226.957 72.07L223.043 69.2583L219.13 74.48L215.217 77.2917L211.304 74.48L207.391 83.3167L203.478 84.9233L199.565 106.613L195.652 110.63H187.826L183.913 114.647L180 122.278L176.087 135.533L172.174 137.542L168.261 131.115L164.348 129.107L160.435 118.663L156.522 123.082H148.696L144.783 130.312L140.87 132.722L136.957 127.902L133.043 129.508L129.13 137.14L125.217 143.968L121.304 147.182L117.391 145.575L113.478 147.985L109.565 153.608L105.652 151.198L101.739 157.625L97.8261 159.232H93.913L90 172.487L86.087 168.47L82.1739 170.077L78.2609 178.913L74.3478 181.323L70.4348 191.767L66.5217 193.775L62.6087 211.448L58.6957 201.808L54.7826 205.825L50.8696 203.817L46.9565 211.047L43.0435 214.662H35.2174L31.3043 220.687L27.3913 223.097L23.4783 217.875L19.5652 214.26L15.6522 216.268H11.7391Z" fill="url(#paint0_linear)"/>
<path d="M0 248H3.91304H7.82609L11.7391 216.268H15.6522L19.5652 214.26L23.4783 217.875L27.3913 223.097L31.3043 220.687L35.2174 214.662H43.0435L46.9565 211.047L50.8696 203.817L54.7826 205.825L58.6957 201.808L62.6087 211.448L66.5217 193.775L70.4348 191.767L74.3478 181.323L78.2609 178.913L82.1739 170.077L86.087 168.47L90 172.487L93.913 159.232H97.8261L101.739 157.625L105.652 151.198L109.565 153.608L113.478 147.985L117.391 145.575L121.304 147.182L125.217 143.968L129.13 137.14L133.043 129.508L136.957 127.902L140.87 132.722L144.783 130.312L148.696 123.082H156.522L160.435 118.663L164.348 129.107L168.261 131.115L172.174 137.542L176.087 135.533L180 122.278L183.913 114.647L187.826 110.63H195.652L199.565 106.613L203.478 84.9233L207.391 83.3167L211.304 74.48L215.217 77.2917L219.13 74.48L223.043 69.2583L226.957 72.07L230.87 56.8067L234.783 67.25L238.696 70.865L242.609 69.2583L246.522 62.8317L250.435 62.0283L254.348 51.1833L258.261 54.3967L262.174 33.1083H270L273.913 39.9367L277.826 60.4217L281.739 62.8317L285.652 59.2167L289.565 66.045L293.478 82.5133L297.391 80.1033L301.304 70.865L305.217 68.0533L309.13 60.02L313.043 57.61L316.957 61.6267L320.87 50.38L324.783 39.9367L328.696 48.3717L332.609 28.69L336.522 37.5267L340.435 20.6567L344.348 7L348.261 21.0583L352.174 31.5017L356.087 37.9283L360 35.5183" stroke="white" stroke-opacity="0.5" stroke-linejoin="round"/>
<rect y="242" width="25" height="11" fill="#242424"/>
<path d="M6.36 251.1C5.8 251.1 5.3 250.96 4.86 250.68C4.42 250.393 4.07333 249.98 3.82 249.44C3.56667 248.893 3.44 248.247 3.44 247.5C3.44 246.753 3.56667 246.11 3.82 245.57C4.07333 245.023 4.42 244.61 4.86 244.33C5.3 244.043 5.8 243.9 6.36 243.9C6.92 243.9 7.42 244.043 7.86 244.33C8.30667 244.61 8.65667 245.023 8.91 245.57C9.16333 246.11 9.29 246.753 9.29 247.5C9.29 248.247 9.16333 248.893 8.91 249.44C8.65667 249.98 8.30667 250.393 7.86 250.68C7.42 250.96 6.92 251.1 6.36 251.1ZM6.36 249.97C6.86 249.97 7.25333 249.763 7.54 249.35C7.83333 248.937 7.98 248.32 7.98 247.5C7.98 246.68 7.83333 246.063 7.54 245.65C7.25333 245.237 6.86 245.03 6.36 245.03C5.86667 245.03 5.47333 245.237 5.18 245.65C4.89333 246.063 4.75 246.68 4.75 247.5C4.75 248.32 4.89333 248.937 5.18 249.35C5.47333 249.763 5.86667 249.97 6.36 249.97ZM14.4922 247.77C13.9922 247.77 13.5889 247.593 13.2822 247.24C12.9755 246.887 12.8222 246.423 12.8222 245.85C12.8222 245.277 12.9755 244.813 13.2822 244.46C13.5889 244.107 13.9922 243.93 14.4922 243.93C14.9922 243.93 15.3955 244.107 15.7022 244.46C16.0155 244.807 16.1722 245.27 16.1722 245.85C16.1722 246.43 16.0155 246.897 15.7022 247.25C15.3955 247.597 14.9922 247.77 14.4922 247.77ZM18.6922 244H19.6722L14.8922 251H13.9122L18.6922 244ZM14.4922 247.07C14.7655 247.07 14.9755 246.963 15.1222 246.75C15.2755 246.537 15.3522 246.237 15.3522 245.85C15.3522 245.463 15.2755 245.163 15.1222 244.95C14.9755 244.737 14.7655 244.63 14.4922 244.63C14.2322 244.63 14.0222 244.74 13.8622 244.96C13.7089 245.173 13.6322 245.47 13.6322 245.85C13.6322 246.23 13.7089 246.53 13.8622 246.75C14.0222 246.963 14.2322 247.07 14.4922 247.07ZM19.0822 251.07C18.5822 251.07 18.1789 250.893 17.8722 250.54C17.5655 250.187 17.4122 249.723 17.4122 249.15C17.4122 248.577 17.5655 248.113 17.8722 247.76C18.1789 247.407 18.5822 247.23 19.0822 247.23C19.5822 247.23 19.9855 247.407 20.2922 247.76C20.6055 248.113 20.7622 248.577 20.7622 249.15C20.7622 249.723 20.6055 250.187 20.2922 250.54C19.9855 250.893 19.5822 251.07 19.0822 251.07ZM19.0822 250.37C19.3489 250.37 19.5589 250.263 19.7122 250.05C19.8655 249.83 19.9422 249.53 19.9422 249.15C19.9422 248.77 19.8655 248.473 19.7122 248.26C19.5589 248.04 19.3489 247.93 19.0822 247.93C18.8155 247.93 18.6055 248.037 18.4522 248.25C18.2989 248.463 18.2222 248.763 18.2222 249.15C18.2222 249.537 18.2989 249.837 18.4522 250.05C18.6055 250.263 18.8155 250.37 19.0822 250.37Z" fill="#737373"/>
<rect y="162" width="35" height="11" fill="#242424"/>
<path d="M5.86 164V171H4.56V165.09H3.08V164H5.86ZM10.1686 171.1C9.60859 171.1 9.10859 170.96 8.66859 170.68C8.22859 170.393 7.88193 169.98 7.62859 169.44C7.37526 168.893 7.24859 168.247 7.24859 167.5C7.24859 166.753 7.37526 166.11 7.62859 165.57C7.88193 165.023 8.22859 164.61 8.66859 164.33C9.10859 164.043 9.60859 163.9 10.1686 163.9C10.7286 163.9 11.2286 164.043 11.6686 164.33C12.1153 164.61 12.4653 165.023 12.7186 165.57C12.9719 166.11 13.0986 166.753 13.0986 167.5C13.0986 168.247 12.9719 168.893 12.7186 169.44C12.4653 169.98 12.1153 170.393 11.6686 170.68C11.2286 170.96 10.7286 171.1 10.1686 171.1ZM10.1686 169.97C10.6686 169.97 11.0619 169.763 11.3486 169.35C11.6419 168.937 11.7886 168.32 11.7886 167.5C11.7886 166.68 11.6419 166.063 11.3486 165.65C11.0619 165.237 10.6686 165.03 10.1686 165.03C9.67526 165.03 9.28193 165.237 8.98859 165.65C8.70193 166.063 8.55859 166.68 8.55859 167.5C8.55859 168.32 8.70193 168.937 8.98859 169.35C9.28193 169.763 9.67526 169.97 10.1686 169.97ZM16.8971 171.1C16.3371 171.1 15.8371 170.96 15.3971 170.68C14.9571 170.393 14.6104 169.98 14.3571 169.44C14.1038 168.893 13.9771 168.247 13.9771 167.5C13.9771 166.753 14.1038 166.11 14.3571 165.57C14.6104 165.023 14.9571 164.61 15.3971 164.33C15.8371 164.043 16.3371 163.9 16.8971 163.9C17.4571 163.9 17.9571 164.043 18.3971 164.33C18.8438 164.61 19.1938 165.023 19.4471 165.57C19.7004 166.11 19.8271 166.753 19.8271 167.5C19.8271 168.247 19.7004 168.893 19.4471 169.44C19.1938 169.98 18.8438 170.393 18.3971 170.68C17.9571 170.96 17.4571 171.1 16.8971 171.1ZM16.8971 169.97C17.3971 169.97 17.7904 169.763 18.0771 169.35C18.3704 168.937 18.5171 168.32 18.5171 167.5C18.5171 166.68 18.3704 166.063 18.0771 165.65C17.7904 165.237 17.3971 165.03 16.8971 165.03C16.4038 165.03 16.0104 165.237 15.7171 165.65C15.4304 166.063 15.2871 166.68 15.2871 167.5C15.2871 168.32 15.4304 168.937 15.7171 169.35C16.0104 169.763 16.4038 169.97 16.8971 169.97ZM25.0293 167.77C24.5293 167.77 24.126 167.593 23.8193 167.24C23.5126 166.887 23.3593 166.423 23.3593 165.85C23.3593 165.277 23.5126 164.813 23.8193 164.46C24.126 164.107 24.5293 163.93 25.0293 163.93C25.5293 163.93 25.9326 164.107 26.2393 164.46C26.5526 164.807 26.7093 165.27 26.7093 165.85C26.7093 166.43 26.5526 166.897 26.2393 167.25C25.9326 167.597 25.5293 167.77 25.0293 167.77ZM29.2293 164H30.2093L25.4293 171H24.4493L29.2293 164ZM25.0293 167.07C25.3026 167.07 25.5126 166.963 25.6593 166.75C25.8126 166.537 25.8893 166.237 25.8893 165.85C25.8893 165.463 25.8126 165.163 25.6593 164.95C25.5126 164.737 25.3026 164.63 25.0293 164.63C24.7693 164.63 24.5593 164.74 24.3993 164.96C24.246 165.173 24.1693 165.47 24.1693 165.85C24.1693 166.23 24.246 166.53 24.3993 166.75C24.5593 166.963 24.7693 167.07 25.0293 167.07ZM29.6193 171.07C29.1193 171.07 28.716 170.893 28.4093 170.54C28.1026 170.187 27.9493 169.723 27.9493 169.15C27.9493 168.577 28.1026 168.113 28.4093 167.76C28.716 167.407 29.1193 167.23 29.6193 167.23C30.1193 167.23 30.5226 167.407 30.8293 167.76C31.1426 168.113 31.2993 168.577 31.2993 169.15C31.2993 169.723 31.1426 170.187 30.8293 170.54C30.5226 170.893 30.1193 171.07 29.6193 171.07ZM29.6193 170.37C29.886 170.37 30.096 170.263 30.2493 170.05C30.4026 169.83 30.4793 169.53 30.4793 169.15C30.4793 168.77 30.4026 168.473 30.2493 168.26C30.096 168.04 29.886 167.93 29.6193 167.93C29.3526 167.93 29.1426 168.037 28.9893 168.25C28.836 168.463 28.7593 168.763 28.7593 169.15C28.7593 169.537 28.836 169.837 28.9893 170.05C29.1426 170.263 29.3526 170.37 29.6193 170.37Z" fill="#737373"/>
<rect y="81" width="37" height="11" fill="#242424"/>
<path d="M8.51 88.9V90H3.35V89.13L6.13 86.49C6.44333 86.19 6.65333 85.93 6.76 85.71C6.87333 85.4833 6.93 85.26 6.93 85.04C6.93 84.7133 6.82 84.4633 6.6 84.29C6.38 84.1167 6.05667 84.03 5.63 84.03C4.91667 84.03 4.37 84.2733 3.99 84.76L3.08 84.06C3.35333 83.6933 3.72 83.41 4.18 83.21C4.64667 83.0033 5.16667 82.9 5.74 82.9C6.5 82.9 7.10667 83.08 7.56 83.44C8.01333 83.8 8.24 84.29 8.24 84.91C8.24 85.29 8.16 85.6467 8 85.98C7.84 86.3133 7.53333 86.6933 7.08 87.12L5.21 88.9H8.51ZM12.151 90.1C11.591 90.1 11.091 89.96 10.651 89.68C10.211 89.3933 9.86435 88.98 9.61102 88.44C9.35768 87.8933 9.23102 87.2467 9.23102 86.5C9.23102 85.7533 9.35768 85.11 9.61102 84.57C9.86435 84.0233 10.211 83.61 10.651 83.33C11.091 83.0433 11.591 82.9 12.151 82.9C12.711 82.9 13.211 83.0433 13.651 83.33C14.0977 83.61 14.4477 84.0233 14.701 84.57C14.9543 85.11 15.081 85.7533 15.081 86.5C15.081 87.2467 14.9543 87.8933 14.701 88.44C14.4477 88.98 14.0977 89.3933 13.651 89.68C13.211 89.96 12.711 90.1 12.151 90.1ZM12.151 88.97C12.651 88.97 13.0443 88.7633 13.331 88.35C13.6243 87.9367 13.771 87.32 13.771 86.5C13.771 85.68 13.6243 85.0633 13.331 84.65C13.0443 84.2367 12.651 84.03 12.151 84.03C11.6577 84.03 11.2643 84.2367 10.971 84.65C10.6843 85.0633 10.541 85.68 10.541 86.5C10.541 87.32 10.6843 87.9367 10.971 88.35C11.2643 88.7633 11.6577 88.97 12.151 88.97ZM18.8795 90.1C18.3195 90.1 17.8195 89.96 17.3795 89.68C16.9395 89.3933 16.5929 88.98 16.3395 88.44C16.0862 87.8933 15.9595 87.2467 15.9595 86.5C15.9595 85.7533 16.0862 85.11 16.3395 84.57C16.5929 84.0233 16.9395 83.61 17.3795 83.33C17.8195 83.0433 18.3195 82.9 18.8795 82.9C19.4395 82.9 19.9395 83.0433 20.3795 83.33C20.8262 83.61 21.1762 84.0233 21.4295 84.57C21.6829 85.11 21.8095 85.7533 21.8095 86.5C21.8095 87.2467 21.6829 87.8933 21.4295 88.44C21.1762 88.98 20.8262 89.3933 20.3795 89.68C19.9395 89.96 19.4395 90.1 18.8795 90.1ZM18.8795 88.97C19.3795 88.97 19.7729 88.7633 20.0595 88.35C20.3529 87.9367 20.4995 87.32 20.4995 86.5C20.4995 85.68 20.3529 85.0633 20.0595 84.65C19.7729 84.2367 19.3795 84.03 18.8795 84.03C18.3862 84.03 17.9929 84.2367 17.6995 84.65C17.4129 85.0633 17.2695 85.68 17.2695 86.5C17.2695 87.32 17.4129 87.9367 17.6995 88.35C17.9929 88.7633 18.3862 88.97 18.8795 88.97ZM27.0117 86.77C26.5117 86.77 26.1084 86.5933 25.8017 86.24C25.4951 85.8867 25.3417 85.4233 25.3417 84.85C25.3417 84.2767 25.4951 83.8133 25.8017 83.46C26.1084 83.1067 26.5117 82.93 27.0117 82.93C27.5117 82.93 27.9151 83.1067 28.2217 83.46C28.5351 83.8067 28.6917 84.27 28.6917 84.85C28.6917 85.43 28.5351 85.8967 28.2217 86.25C27.9151 86.5967 27.5117 86.77 27.0117 86.77ZM31.2117 83H32.1917L27.4117 90H26.4317L31.2117 83ZM27.0117 86.07C27.2851 86.07 27.4951 85.9633 27.6417 85.75C27.7951 85.5367 27.8717 85.2367 27.8717 84.85C27.8717 84.4633 27.7951 84.1633 27.6417 83.95C27.4951 83.7367 27.2851 83.63 27.0117 83.63C26.7517 83.63 26.5417 83.74 26.3817 83.96C26.2284 84.1733 26.1517 84.47 26.1517 84.85C26.1517 85.23 26.2284 85.53 26.3817 85.75C26.5417 85.9633 26.7517 86.07 27.0117 86.07ZM31.6017 90.07C31.1017 90.07 30.6984 89.8933 30.3917 89.54C30.0851 89.1867 29.9317 88.7233 29.9317 88.15C29.9317 87.5767 30.0851 87.1133 30.3917 86.76C30.6984 86.4067 31.1017 86.23 31.6017 86.23C32.1017 86.23 32.5051 86.4067 32.8117 86.76C33.1251 87.1133 33.2817 87.5767 33.2817 88.15C33.2817 88.7233 33.1251 89.1867 32.8117 89.54C32.5051 89.8933 32.1017 90.07 31.6017 90.07ZM31.6017 89.37C31.8684 89.37 32.0784 89.2633 32.2317 89.05C32.3851 88.83 32.4617 88.53 32.4617 88.15C32.4617 87.77 32.3851 87.4733 32.2317 87.26C32.0784 87.04 31.8684 86.93 31.6017 86.93C31.3351 86.93 31.1251 87.0367 30.9717 87.25C30.8184 87.4633 30.7417 87.7633 30.7417 88.15C30.7417 88.5367 30.8184 88.8367 30.9717 89.05C31.1251 89.2633 31.3351 89.37 31.6017 89.37Z" fill="#737373"/>
<rect width="37" height="11" fill="#242424"/>
<path d="M6.42 4.89C7.06667 4.97 7.56 5.19 7.9 5.55C8.24 5.91 8.41 6.36 8.41 6.9C8.41 7.30667 8.30667 7.67667 8.1 8.01C7.89333 8.34333 7.58 8.61 7.16 8.81C6.74667 9.00333 6.24 9.1 5.64 9.1C5.14 9.1 4.65667 9.03 4.19 8.89C3.73 8.74333 3.33667 8.54333 3.01 8.29L3.57 7.28C3.82333 7.49333 4.13 7.66333 4.49 7.79C4.85667 7.91 5.23333 7.97 5.62 7.97C6.08 7.97 6.44 7.87667 6.7 7.69C6.96667 7.49667 7.1 7.23667 7.1 6.91C7.1 6.58333 6.97333 6.33 6.72 6.15C6.47333 5.96333 6.09333 5.87 5.58 5.87H4.94V4.98L6.53 3.09H3.35V2H8.12V2.87L6.42 4.89ZM12.1803 9.1C11.6203 9.1 11.1203 8.96 10.6803 8.68C10.2403 8.39333 9.89365 7.98 9.64031 7.44C9.38698 6.89333 9.26031 6.24667 9.26031 5.5C9.26031 4.75333 9.38698 4.11 9.64031 3.57C9.89365 3.02333 10.2403 2.61 10.6803 2.33C11.1203 2.04333 11.6203 1.9 12.1803 1.9C12.7403 1.9 13.2403 2.04333 13.6803 2.33C14.127 2.61 14.477 3.02333 14.7303 3.57C14.9836 4.11 15.1103 4.75333 15.1103 5.5C15.1103 6.24667 14.9836 6.89333 14.7303 7.44C14.477 7.98 14.127 8.39333 13.6803 8.68C13.2403 8.96 12.7403 9.1 12.1803 9.1ZM12.1803 7.97C12.6803 7.97 13.0736 7.76333 13.3603 7.35C13.6536 6.93667 13.8003 6.32 13.8003 5.5C13.8003 4.68 13.6536 4.06333 13.3603 3.65C13.0736 3.23667 12.6803 3.03 12.1803 3.03C11.687 3.03 11.2936 3.23667 11.0003 3.65C10.7136 4.06333 10.5703 4.68 10.5703 5.5C10.5703 6.32 10.7136 6.93667 11.0003 7.35C11.2936 7.76333 11.687 7.97 12.1803 7.97ZM18.9088 9.1C18.3488 9.1 17.8488 8.96 17.4088 8.68C16.9688 8.39333 16.6222 7.98 16.3688 7.44C16.1155 6.89333 15.9888 6.24667 15.9888 5.5C15.9888 4.75333 16.1155 4.11 16.3688 3.57C16.6222 3.02333 16.9688 2.61 17.4088 2.33C17.8488 2.04333 18.3488 1.9 18.9088 1.9C19.4688 1.9 19.9688 2.04333 20.4088 2.33C20.8555 2.61 21.2055 3.02333 21.4588 3.57C21.7122 4.11 21.8388 4.75333 21.8388 5.5C21.8388 6.24667 21.7122 6.89333 21.4588 7.44C21.2055 7.98 20.8555 8.39333 20.4088 8.68C19.9688 8.96 19.4688 9.1 18.9088 9.1ZM18.9088 7.97C19.4088 7.97 19.8022 7.76333 20.0888 7.35C20.3822 6.93667 20.5288 6.32 20.5288 5.5C20.5288 4.68 20.3822 4.06333 20.0888 3.65C19.8022 3.23667 19.4088 3.03 18.9088 3.03C18.4155 3.03 18.0222 3.23667 17.7288 3.65C17.4422 4.06333 17.2988 4.68 17.2988 5.5C17.2988 6.32 17.4422 6.93667 17.7288 7.35C18.0222 7.76333 18.4155 7.97 18.9088 7.97ZM27.041 5.77C26.541 5.77 26.1377 5.59333 25.831 5.24C25.5243 4.88667 25.371 4.42333 25.371 3.85C25.371 3.27667 25.5243 2.81333 25.831 2.46C26.1377 2.10667 26.541 1.93 27.041 1.93C27.541 1.93 27.9443 2.10667 28.251 2.46C28.5643 2.80667 28.721 3.27 28.721 3.85C28.721 4.43 28.5643 4.89667 28.251 5.25C27.9443 5.59667 27.541 5.77 27.041 5.77ZM31.241 2H32.221L27.441 9H26.461L31.241 2ZM27.041 5.07C27.3143 5.07 27.5243 4.96333 27.671 4.75C27.8243 4.53667 27.901 4.23667 27.901 3.85C27.901 3.46333 27.8243 3.16333 27.671 2.95C27.5243 2.73667 27.3143 2.63 27.041 2.63C26.781 2.63 26.571 2.74 26.411 2.96C26.2577 3.17333 26.181 3.47 26.181 3.85C26.181 4.23 26.2577 4.53 26.411 4.75C26.571 4.96333 26.781 5.07 27.041 5.07ZM31.631 9.07C31.131 9.07 30.7277 8.89333 30.421 8.54C30.1143 8.18667 29.961 7.72333 29.961 7.15C29.961 6.57667 30.1143 6.11333 30.421 5.76C30.7277 5.40667 31.131 5.23 31.631 5.23C32.131 5.23 32.5343 5.40667 32.841 5.76C33.1543 6.11333 33.311 6.57667 33.311 7.15C33.311 7.72333 33.1543 8.18667 32.841 8.54C32.5343 8.89333 32.131 9.07 31.631 9.07ZM31.631 8.37C31.8977 8.37 32.1077 8.26333 32.261 8.05C32.4143 7.83 32.491 7.53 32.491 7.15C32.491 6.77 32.4143 6.47333 32.261 6.26C32.1077 6.04 31.8977 5.93 31.631 5.93C31.3643 5.93 31.1543 6.03667 31.001 6.25C30.8477 6.46333 30.771 6.76333 30.771 7.15C30.771 7.53667 30.8477 7.83667 31.001 8.05C31.1543 8.26333 31.3643 8.37 31.631 8.37Z" fill="#737373"/>
<defs>
<linearGradient id="paint0_linear" x1="180" y1="7" x2="180" y2="248" gradientUnits="userSpaceOnUse">
<stop stop-color="white" stop-opacity="0.1"/>
<stop offset="1" stop-color="white" stop-opacity="0"/>
</linearGradient>
</defs>
</svg>
