<svg width="360" height="274" viewBox="0 0 360 274" fill="none" xmlns="http://www.w3.org/2000/svg">
<rect y="247" width="360" height="1" fill="white" fill-opacity="0.07"/>
<rect y="167" width="360" height="1" fill="white" fill-opacity="0.07"/>
<rect y="86" width="360" height="1" fill="white" fill-opacity="0.07"/>
<rect y="5" width="360" height="1" fill="white" fill-opacity="0.07"/>
<path d="M0 248H3.91304H7.82609L11.7391 216.137H15.6522L19.5652 214.12L23.4783 217.75L27.3913 222.993L31.3043 220.573L35.2174 214.523H43.0435L46.9565 210.893L50.8696 203.633L54.7826 205.65L58.6957 201.617L62.6087 211.297L66.5217 193.55L70.4348 191.533L74.3478 181.047L78.2609 178.627L82.1739 169.753L86.087 168.14L90 172.173L93.913 158.863H97.8261L101.739 157.25L105.652 150.797L109.565 153.217L113.478 147.57L117.391 145.15L121.304 146.763L125.217 143.537L129.13 136.68L133.043 129.017L136.957 127.403L140.87 132.243L144.783 129.823L148.696 122.563H156.522L160.435 118.127L164.348 128.613L168.261 130.63L172.174 137.083L176.087 135.067L180 121.757L183.913 114.093L187.826 110.06H195.652L199.565 106.027L203.478 84.2467L207.391 82.6333L211.304 73.76L215.217 76.5833L219.13 73.76L223.043 68.5167L226.957 71.34L230.87 56.0133L234.783 66.5L238.696 70.13L242.609 68.5167L246.522 62.0633L250.435 61.2567L254.348 50.3667L258.261 53.5933L262.174 32.2167H270L273.913 39.0733L277.826 59.6433L281.739 62.0633L285.652 58.4333L289.565 65.29L293.478 81.8267L297.391 79.4067L301.304 70.13L305.217 67.3067L309.13 59.24L313.043 56.82L316.957 60.8533L320.87 49.56L324.783 39.0733L328.696 47.5433L332.609 27.78L336.522 36.6533L340.435 19.7133L344.348 6L348.261 20.1167L352.174 30.6033L356.087 37.0567L360 34.6367" stroke="white" stroke-opacity="0.5" stroke-linejoin="round"/>
<path d="M0 248H3.91304H7.82609L11.7391 216.096H15.6522L19.5652 214.077L23.4783 217.712L27.3913 222.962L31.3043 220.538H35.2174L43.0435 219.731L46.9565 221.346L50.8696 203.577L54.7826 205.596L58.6957 201.558L62.6087 211.25L66.5217 193.481L70.4348 196.308L74.3478 190.654L78.2609 187.827L82.1739 169.654L86.087 168.038L90 172.077L93.913 158.75H97.8261L101.739 157.135L105.652 150.673L109.565 153.096L113.478 159.558L117.391 162.788L121.304 160.769L125.217 156.327L129.13 136.538L133.043 128.865L136.957 127.25L140.87 132.096L144.783 129.673L148.696 122.404H156.522L160.435 117.962L164.348 132.096L168.261 133.308L172.174 139.365L176.087 137.75L180 133.308L183.913 129.673L187.826 132.096L191.739 127.654L195.652 120.385L199.565 105.846L203.478 84.0385L207.391 82.4231L211.304 73.5385L215.217 76.3654L219.13 73.5385L223.043 68.2885L226.957 71.1154L230.87 55.7692L234.783 66.2692L238.696 69.9038L242.609 68.2885L246.522 61.8269L250.435 61.0192L254.348 50.1154L258.261 53.3462L262.174 31.9423H270L273.913 38.8077L277.826 71.1154L281.739 76.3654L285.652 79.1923L289.565 84.0385L293.478 101.808L297.391 79.1923L301.304 69.9038L305.217 67.0769L309.13 59L313.043 56.5769L316.957 60.6154L320.87 49.3077L324.783 38.8077L328.696 47.2885L332.609 27.5L336.522 41.2308L340.435 36.7885L344.348 17L348.261 36.7885L352.174 30.3269L356.087 36.7885L360 34.3654" stroke="white" stroke-opacity="0.3" stroke-linecap="round" stroke-linejoin="round" stroke-dasharray="1 2"/>
<path d="M21 274C16.5886 274 13 270.411 13 266C13 261.589 16.5886 258 21 258C25.4114 258 29 261.589 29 266C29 270.411 25.4114 274 21 274ZM21 259C17.14 259 14 262.14 14 266C14 269.86 17.14 273 21 273C24.86 273 28 269.86 28 266C28 262.14 24.86 259 21 259Z" fill="#737373"/>
<path d="M24.5 266.5H17.5C17.224 266.5 17 266.276 17 266C17 265.724 17.224 265.5 17.5 265.5H24.5C24.776 265.5 25 265.724 25 266C25 266.276 24.776 266.5 24.5 266.5Z" fill="#737373"/>
<path d="M21 270C20.724 270 20.5 269.776 20.5 269.5V262.5C20.5 262.224 20.724 262 21 262C21.276 262 21.5 262.224 21.5 262.5V269.5C21.5 269.776 21.276 270 21 270Z" fill="#737373"/>
<path d="M252 274C247.589 274 244 270.411 244 266C244 261.589 247.589 258 252 258C256.411 258 260 261.589 260 266C260 270.411 256.411 274 252 274ZM252 259C248.14 259 245 262.14 245 266C245 269.86 248.14 273 252 273C255.86 273 259 269.86 259 266C259 262.14 255.86 259 252 259Z" fill="#737373"/>
<path d="M255.5 266.5H248.5C248.224 266.5 248 266.276 248 266C248 265.724 248.224 265.5 248.5 265.5H255.5C255.776 265.5 256 265.724 256 266C256 266.276 255.776 266.5 255.5 266.5Z" fill="#737373"/>
<path d="M252 270C251.724 270 251.5 269.776 251.5 269.5V262.5C251.5 262.224 251.724 262 252 262C252.276 262 252.5 262.224 252.5 262.5V269.5C252.5 269.776 252.276 270 252 270Z" fill="#737373"/>
<path d="M151 274C146.589 274 143 270.411 143 266C143 261.589 146.589 258 151 258C155.411 258 159 261.589 159 266C159 270.411 155.411 274 151 274ZM151 259C147.14 259 144 262.14 144 266C144 269.86 147.14 273 151 273C154.86 273 158 269.86 158 266C158 262.14 154.86 259 151 259Z" fill="#737373"/>
<path d="M154.5 266.5H147.5C147.224 266.5 147 266.276 147 266C147 265.724 147.224 265.5 147.5 265.5H154.5C154.776 265.5 155 265.724 155 266C155 266.276 154.776 266.5 154.5 266.5Z" fill="#737373"/>
<path d="M319 274C314.589 274 311 270.411 311 266C311 261.589 314.589 258 319 258C323.411 258 327 261.589 327 266C327 270.411 323.411 274 319 274ZM319 259C315.14 259 312 262.14 312 266C312 269.86 315.14 273 319 273C322.86 273 326 269.86 326 266C326 262.14 322.86 259 319 259Z" fill="#737373"/>
<path d="M322.5 266.5H315.5C315.224 266.5 315 266.276 315 266C315 265.724 315.224 265.5 315.5 265.5H322.5C322.776 265.5 323 265.724 323 266C323 266.276 322.776 266.5 322.5 266.5Z" fill="#737373"/>
<rect y="242" width="38" height="11" fill="#242424"/>
<path d="M6.36 251.1C5.8 251.1 5.3 250.96 4.86 250.68C4.42 250.393 4.07333 249.98 3.82 249.44C3.56667 248.893 3.44 248.247 3.44 247.5C3.44 246.753 3.56667 246.11 3.82 245.57C4.07333 245.023 4.42 244.61 4.86 244.33C5.3 244.043 5.8 243.9 6.36 243.9C6.92 243.9 7.42 244.043 7.86 244.33C8.30667 244.61 8.65667 245.023 8.91 245.57C9.16333 246.11 9.29 246.753 9.29 247.5C9.29 248.247 9.16333 248.893 8.91 249.44C8.65667 249.98 8.30667 250.393 7.86 250.68C7.42 250.96 6.92 251.1 6.36 251.1ZM6.36 249.97C6.86 249.97 7.25333 249.763 7.54 249.35C7.83333 248.937 7.98 248.32 7.98 247.5C7.98 246.68 7.83333 246.063 7.54 245.65C7.25333 245.237 6.86 245.03 6.36 245.03C5.86667 245.03 5.47333 245.237 5.18 245.65C4.89333 246.063 4.75 246.68 4.75 247.5C4.75 248.32 4.89333 248.937 5.18 249.35C5.47333 249.763 5.86667 249.97 6.36 249.97ZM16.4422 251.1C15.4755 251.1 14.7222 250.83 14.1822 250.29C13.6422 249.743 13.3722 248.963 13.3722 247.95V244H14.6722V247.9C14.6722 249.273 15.2655 249.96 16.4522 249.96C17.6322 249.96 18.2222 249.273 18.2222 247.9V244H19.5022V247.95C19.5022 248.963 19.2322 249.743 18.6922 250.29C18.1589 250.83 17.4089 251.1 16.4422 251.1ZM23.4928 251.1C22.9528 251.1 22.4295 251.023 21.9228 250.87C21.4228 250.717 21.0261 250.513 20.7328 250.26L21.1828 249.25C21.4695 249.477 21.8195 249.663 22.2328 249.81C22.6528 249.95 23.0728 250.02 23.4928 250.02C24.0128 250.02 24.3995 249.937 24.6528 249.77C24.9128 249.603 25.0428 249.383 25.0428 249.11C25.0428 248.91 24.9695 248.747 24.8228 248.62C24.6828 248.487 24.5028 248.383 24.2828 248.31C24.0628 248.237 23.7628 248.153 23.3828 248.06C22.8495 247.933 22.4161 247.807 22.0828 247.68C21.7561 247.553 21.4728 247.357 21.2328 247.09C20.9995 246.817 20.8828 246.45 20.8828 245.99C20.8828 245.603 20.9861 245.253 21.1928 244.94C21.4061 244.62 21.7228 244.367 22.1428 244.18C22.5695 243.993 23.0895 243.9 23.7028 243.9C24.1295 243.9 24.5495 243.953 24.9628 244.06C25.3761 244.167 25.7328 244.32 26.0328 244.52L25.6228 245.53C25.3161 245.35 24.9961 245.213 24.6628 245.12C24.3295 245.027 24.0061 244.98 23.6928 244.98C23.1795 244.98 22.7961 245.067 22.5428 245.24C22.2961 245.413 22.1728 245.643 22.1728 245.93C22.1728 246.13 22.2428 246.293 22.3828 246.42C22.5295 246.547 22.7128 246.647 22.9328 246.72C23.1528 246.793 23.4528 246.877 23.8328 246.97C24.3528 247.09 24.7795 247.217 25.1128 247.35C25.4461 247.477 25.7295 247.673 25.9628 247.94C26.2028 248.207 26.3228 248.567 26.3228 249.02C26.3228 249.407 26.2161 249.757 26.0028 250.07C25.7961 250.383 25.4795 250.633 25.0528 250.82C24.6261 251.007 24.1061 251.1 23.4928 251.1ZM27.6119 244H30.6719C31.4185 244 32.0819 244.147 32.6619 244.44C33.2419 244.727 33.6919 245.137 34.0119 245.67C34.3319 246.197 34.4919 246.807 34.4919 247.5C34.4919 248.193 34.3319 248.807 34.0119 249.34C33.6919 249.867 33.2419 250.277 32.6619 250.57C32.0819 250.857 31.4185 251 30.6719 251H27.6119V244ZM30.6119 249.9C31.1252 249.9 31.5752 249.803 31.9619 249.61C32.3552 249.41 32.6552 249.13 32.8619 248.77C33.0752 248.403 33.1819 247.98 33.1819 247.5C33.1819 247.02 33.0752 246.6 32.8619 246.24C32.6552 245.873 32.3552 245.593 31.9619 245.4C31.5752 245.2 31.1252 245.1 30.6119 245.1H28.9119V249.9H30.6119Z" fill="#737373"/>
<rect y="162" width="57" height="11" fill="#242424"/>
<path d="M5.86 164V171H4.56V165.09H3.08V164H5.86ZM15.0823 169.9V171H9.92227V170.13L12.7023 167.49C13.0156 167.19 13.2256 166.93 13.3323 166.71C13.4456 166.483 13.5023 166.26 13.5023 166.04C13.5023 165.713 13.3923 165.463 13.1723 165.29C12.9523 165.117 12.6289 165.03 12.2023 165.03C11.4889 165.03 10.9423 165.273 10.5623 165.76L9.65227 165.06C9.9256 164.693 10.2923 164.41 10.7523 164.21C11.2189 164.003 11.7389 163.9 12.3123 163.9C13.0723 163.9 13.6789 164.08 14.1323 164.44C14.5856 164.8 14.8123 165.29 14.8123 165.91C14.8123 166.29 14.7323 166.647 14.5723 166.98C14.4123 167.313 14.1056 167.693 13.6523 168.12L11.7823 169.9H15.0823ZM18.7233 171.1C18.1633 171.1 17.6633 170.96 17.2233 170.68C16.7833 170.393 16.4366 169.98 16.1833 169.44C15.9299 168.893 15.8033 168.247 15.8033 167.5C15.8033 166.753 15.9299 166.11 16.1833 165.57C16.4366 165.023 16.7833 164.61 17.2233 164.33C17.6633 164.043 18.1633 163.9 18.7233 163.9C19.2833 163.9 19.7833 164.043 20.2233 164.33C20.6699 164.61 21.0199 165.023 21.2733 165.57C21.5266 166.11 21.6533 166.753 21.6533 167.5C21.6533 168.247 21.5266 168.893 21.2733 169.44C21.0199 169.98 20.6699 170.393 20.2233 170.68C19.7833 170.96 19.2833 171.1 18.7233 171.1ZM18.7233 169.97C19.2233 169.97 19.6166 169.763 19.9033 169.35C20.1966 168.937 20.3433 168.32 20.3433 167.5C20.3433 166.68 20.1966 166.063 19.9033 165.65C19.6166 165.237 19.2233 165.03 18.7233 165.03C18.2299 165.03 17.8366 165.237 17.5433 165.65C17.2566 166.063 17.1133 166.68 17.1133 167.5C17.1133 168.32 17.2566 168.937 17.5433 169.35C17.8366 169.763 18.2299 169.97 18.7233 169.97ZM25.4518 171.1C24.8918 171.1 24.3918 170.96 23.9518 170.68C23.5118 170.393 23.1651 169.98 22.9118 169.44C22.6585 168.893 22.5318 168.247 22.5318 167.5C22.5318 166.753 22.6585 166.11 22.9118 165.57C23.1651 165.023 23.5118 164.61 23.9518 164.33C24.3918 164.043 24.8918 163.9 25.4518 163.9C26.0118 163.9 26.5118 164.043 26.9518 164.33C27.3985 164.61 27.7485 165.023 28.0018 165.57C28.2551 166.11 28.3818 166.753 28.3818 167.5C28.3818 168.247 28.2551 168.893 28.0018 169.44C27.7485 169.98 27.3985 170.393 26.9518 170.68C26.5118 170.96 26.0118 171.1 25.4518 171.1ZM25.4518 169.97C25.9518 169.97 26.3451 169.763 26.6318 169.35C26.9251 168.937 27.0718 168.32 27.0718 167.5C27.0718 166.68 26.9251 166.063 26.6318 165.65C26.3451 165.237 25.9518 165.03 25.4518 165.03C24.9585 165.03 24.5651 165.237 24.2718 165.65C23.9851 166.063 23.8418 166.68 23.8418 167.5C23.8418 168.32 23.9851 168.937 24.2718 169.35C24.5651 169.763 24.9585 169.97 25.4518 169.97ZM35.534 171.1C34.5673 171.1 33.814 170.83 33.274 170.29C32.734 169.743 32.464 168.963 32.464 167.95V164H33.764V167.9C33.764 169.273 34.3573 169.96 35.544 169.96C36.724 169.96 37.314 169.273 37.314 167.9V164H38.594V167.95C38.594 168.963 38.324 169.743 37.784 170.29C37.2507 170.83 36.5007 171.1 35.534 171.1ZM42.5846 171.1C42.0446 171.1 41.5213 171.023 41.0146 170.87C40.5146 170.717 40.1179 170.513 39.8246 170.26L40.2746 169.25C40.5613 169.477 40.9113 169.663 41.3246 169.81C41.7446 169.95 42.1646 170.02 42.5846 170.02C43.1046 170.02 43.4913 169.937 43.7446 169.77C44.0046 169.603 44.1346 169.383 44.1346 169.11C44.1346 168.91 44.0613 168.747 43.9146 168.62C43.7746 168.487 43.5946 168.383 43.3746 168.31C43.1546 168.237 42.8546 168.153 42.4746 168.06C41.9413 167.933 41.5079 167.807 41.1746 167.68C40.8479 167.553 40.5646 167.357 40.3246 167.09C40.0913 166.817 39.9746 166.45 39.9746 165.99C39.9746 165.603 40.0779 165.253 40.2846 164.94C40.4979 164.62 40.8146 164.367 41.2346 164.18C41.6613 163.993 42.1813 163.9 42.7946 163.9C43.2213 163.9 43.6413 163.953 44.0546 164.06C44.4679 164.167 44.8246 164.32 45.1246 164.52L44.7146 165.53C44.4079 165.35 44.0879 165.213 43.7546 165.12C43.4213 165.027 43.0979 164.98 42.7846 164.98C42.2713 164.98 41.8879 165.067 41.6346 165.24C41.3879 165.413 41.2646 165.643 41.2646 165.93C41.2646 166.13 41.3346 166.293 41.4746 166.42C41.6213 166.547 41.8046 166.647 42.0246 166.72C42.2446 166.793 42.5446 166.877 42.9246 166.97C43.4446 167.09 43.8713 167.217 44.2046 167.35C44.5379 167.477 44.8213 167.673 45.0546 167.94C45.2946 168.207 45.4146 168.567 45.4146 169.02C45.4146 169.407 45.3079 169.757 45.0946 170.07C44.8879 170.383 44.5713 170.633 44.1446 170.82C43.7179 171.007 43.1979 171.1 42.5846 171.1ZM46.7037 164H49.7637C50.5103 164 51.1737 164.147 51.7537 164.44C52.3337 164.727 52.7837 165.137 53.1037 165.67C53.4237 166.197 53.5837 166.807 53.5837 167.5C53.5837 168.193 53.4237 168.807 53.1037 169.34C52.7837 169.867 52.3337 170.277 51.7537 170.57C51.1737 170.857 50.5103 171 49.7637 171H46.7037V164ZM49.7037 169.9C50.217 169.9 50.667 169.803 51.0537 169.61C51.447 169.41 51.747 169.13 51.9537 168.77C52.167 168.403 52.2737 167.98 52.2737 167.5C52.2737 167.02 52.167 166.6 51.9537 166.24C51.747 165.873 51.447 165.593 51.0537 165.4C50.667 165.2 50.217 165.1 49.7037 165.1H48.0037V169.9H49.7037Z" fill="#737373"/>
<rect y="81" width="60" height="11" fill="#242424"/>
<path d="M8.51 88.9V90H3.35V89.13L6.13 86.49C6.44333 86.19 6.65333 85.93 6.76 85.71C6.87333 85.4833 6.93 85.26 6.93 85.04C6.93 84.7133 6.82 84.4633 6.6 84.29C6.38 84.1167 6.05667 84.03 5.63 84.03C4.91667 84.03 4.37 84.2733 3.99 84.76L3.08 84.06C3.35333 83.6933 3.72 83.41 4.18 83.21C4.64667 83.0033 5.16667 82.9 5.74 82.9C6.5 82.9 7.10667 83.08 7.56 83.44C8.01333 83.8 8.24 84.29 8.24 84.91C8.24 85.29 8.16 85.6467 8 85.98C7.84 86.3133 7.53333 86.6933 7.08 87.12L5.21 88.9H8.51ZM18.264 88.41H17.024V90H15.764V88.41H11.924V87.51L15.374 83H16.764L13.514 87.31H15.804V85.9H17.024V87.31H18.264V88.41ZM21.7311 90.1C21.1711 90.1 20.6711 89.96 20.2311 89.68C19.7911 89.3933 19.4444 88.98 19.1911 88.44C18.9378 87.8933 18.8111 87.2467 18.8111 86.5C18.8111 85.7533 18.9378 85.11 19.1911 84.57C19.4444 84.0233 19.7911 83.61 20.2311 83.33C20.6711 83.0433 21.1711 82.9 21.7311 82.9C22.2911 82.9 22.7911 83.0433 23.2311 83.33C23.6778 83.61 24.0278 84.0233 24.2811 84.57C24.5344 85.11 24.6611 85.7533 24.6611 86.5C24.6611 87.2467 24.5344 87.8933 24.2811 88.44C24.0278 88.98 23.6778 89.3933 23.2311 89.68C22.7911 89.96 22.2911 90.1 21.7311 90.1ZM21.7311 88.97C22.2311 88.97 22.6244 88.7633 22.9111 88.35C23.2044 87.9367 23.3511 87.32 23.3511 86.5C23.3511 85.68 23.2044 85.0633 22.9111 84.65C22.6244 84.2367 22.2311 84.03 21.7311 84.03C21.2378 84.03 20.8444 84.2367 20.5511 84.65C20.2644 85.0633 20.1211 85.68 20.1211 86.5C20.1211 87.32 20.2644 87.9367 20.5511 88.35C20.8444 88.7633 21.2378 88.97 21.7311 88.97ZM28.4596 90.1C27.8996 90.1 27.3996 89.96 26.9596 89.68C26.5196 89.3933 26.1729 88.98 25.9196 88.44C25.6663 87.8933 25.5396 87.2467 25.5396 86.5C25.5396 85.7533 25.6663 85.11 25.9196 84.57C26.1729 84.0233 26.5196 83.61 26.9596 83.33C27.3996 83.0433 27.8996 82.9 28.4596 82.9C29.0196 82.9 29.5196 83.0433 29.9596 83.33C30.4063 83.61 30.7563 84.0233 31.0096 84.57C31.2629 85.11 31.3896 85.7533 31.3896 86.5C31.3896 87.2467 31.2629 87.8933 31.0096 88.44C30.7563 88.98 30.4063 89.3933 29.9596 89.68C29.5196 89.96 29.0196 90.1 28.4596 90.1ZM28.4596 88.97C28.9596 88.97 29.3529 88.7633 29.6396 88.35C29.9329 87.9367 30.0796 87.32 30.0796 86.5C30.0796 85.68 29.9329 85.0633 29.6396 84.65C29.3529 84.2367 28.9596 84.03 28.4596 84.03C27.9663 84.03 27.5729 84.2367 27.2796 84.65C26.9929 85.0633 26.8496 85.68 26.8496 86.5C26.8496 87.32 26.9929 87.9367 27.2796 88.35C27.5729 88.7633 27.9663 88.97 28.4596 88.97ZM38.5418 90.1C37.5751 90.1 36.8218 89.83 36.2818 89.29C35.7418 88.7433 35.4718 87.9633 35.4718 86.95V83H36.7718V86.9C36.7718 88.2733 37.3651 88.96 38.5518 88.96C39.7318 88.96 40.3218 88.2733 40.3218 86.9V83H41.6018V86.95C41.6018 87.9633 41.3318 88.7433 40.7918 89.29C40.2585 89.83 39.5085 90.1 38.5418 90.1ZM45.5924 90.1C45.0524 90.1 44.5291 90.0233 44.0224 89.87C43.5224 89.7167 43.1258 89.5133 42.8324 89.26L43.2824 88.25C43.5691 88.4767 43.9191 88.6633 44.3324 88.81C44.7524 88.95 45.1724 89.02 45.5924 89.02C46.1124 89.02 46.4991 88.9367 46.7524 88.77C47.0124 88.6033 47.1424 88.3833 47.1424 88.11C47.1424 87.91 47.0691 87.7467 46.9224 87.62C46.7824 87.4867 46.6024 87.3833 46.3824 87.31C46.1624 87.2367 45.8624 87.1533 45.4824 87.06C44.9491 86.9333 44.5158 86.8067 44.1824 86.68C43.8558 86.5533 43.5724 86.3567 43.3324 86.09C43.0991 85.8167 42.9824 85.45 42.9824 84.99C42.9824 84.6033 43.0858 84.2533 43.2924 83.94C43.5058 83.62 43.8224 83.3667 44.2424 83.18C44.6691 82.9933 45.1891 82.9 45.8024 82.9C46.2291 82.9 46.6491 82.9533 47.0624 83.06C47.4758 83.1667 47.8324 83.32 48.1324 83.52L47.7224 84.53C47.4158 84.35 47.0958 84.2133 46.7624 84.12C46.4291 84.0267 46.1058 83.98 45.7924 83.98C45.2791 83.98 44.8958 84.0667 44.6424 84.24C44.3958 84.4133 44.2724 84.6433 44.2724 84.93C44.2724 85.13 44.3424 85.2933 44.4824 85.42C44.6291 85.5467 44.8124 85.6467 45.0324 85.72C45.2524 85.7933 45.5524 85.8767 45.9324 85.97C46.4524 86.09 46.8791 86.2167 47.2124 86.35C47.5458 86.4767 47.8291 86.6733 48.0624 86.94C48.3024 87.2067 48.4224 87.5667 48.4224 88.02C48.4224 88.4067 48.3158 88.7567 48.1024 89.07C47.8958 89.3833 47.5791 89.6333 47.1524 89.82C46.7258 90.0067 46.2058 90.1 45.5924 90.1ZM49.7115 83H52.7715C53.5182 83 54.1815 83.1467 54.7615 83.44C55.3415 83.7267 55.7915 84.1367 56.1115 84.67C56.4315 85.1967 56.5915 85.8067 56.5915 86.5C56.5915 87.1933 56.4315 87.8067 56.1115 88.34C55.7915 88.8667 55.3415 89.2767 54.7615 89.57C54.1815 89.8567 53.5182 90 52.7715 90H49.7115V83ZM52.7115 88.9C53.2248 88.9 53.6748 88.8033 54.0615 88.61C54.4548 88.41 54.7548 88.13 54.9615 87.77C55.1748 87.4033 55.2815 86.98 55.2815 86.5C55.2815 86.02 55.1748 85.6 54.9615 85.24C54.7548 84.8733 54.4548 84.5933 54.0615 84.4C53.6748 84.2 53.2248 84.1 52.7115 84.1H51.0115V88.9H52.7115Z" fill="#737373"/>
<rect width="59" height="11" fill="#242424"/>
<path d="M6.42 4.89C7.06667 4.97 7.56 5.19 7.9 5.55C8.24 5.91 8.41 6.36 8.41 6.9C8.41 7.30667 8.30667 7.67667 8.1 8.01C7.89333 8.34333 7.58 8.61 7.16 8.81C6.74667 9.00333 6.24 9.1 5.64 9.1C5.14 9.1 4.65667 9.03 4.19 8.89C3.73 8.74333 3.33667 8.54333 3.01 8.29L3.57 7.28C3.82333 7.49333 4.13 7.66333 4.49 7.79C4.85667 7.91 5.23333 7.97 5.62 7.97C6.08 7.97 6.44 7.87667 6.7 7.69C6.96667 7.49667 7.1 7.23667 7.1 6.91C7.1 6.58333 6.97333 6.33 6.72 6.15C6.47333 5.96333 6.09333 5.87 5.58 5.87H4.94V4.98L6.53 3.09H3.35V2H8.12V2.87L6.42 4.89ZM15.204 4.68C15.664 4.68 16.0773 4.77 16.444 4.95C16.8107 5.12333 17.0973 5.37333 17.304 5.7C17.5107 6.02667 17.614 6.40333 17.614 6.83C17.614 7.28333 17.5007 7.68333 17.274 8.03C17.0473 8.37 16.7407 8.63333 16.354 8.82C15.9673 9.00667 15.534 9.1 15.054 9.1C14.094 9.1 13.3473 8.8 12.814 8.2C12.2873 7.6 12.024 6.74 12.024 5.62C12.024 4.83333 12.1673 4.16333 12.454 3.61C12.7407 3.05 13.1407 2.62667 13.654 2.34C14.174 2.04667 14.774 1.9 15.454 1.9C15.814 1.9 16.1507 1.94 16.464 2.02C16.784 2.09333 17.0607 2.20333 17.294 2.35L16.814 3.33C16.4673 3.10333 16.024 2.99 15.484 2.99C14.8107 2.99 14.284 3.19667 13.904 3.61C13.524 4.02333 13.334 4.62 13.334 5.4V5.41C13.5407 5.17 13.804 4.99 14.124 4.87C14.444 4.74333 14.804 4.68 15.204 4.68ZM14.984 8.08C15.3907 8.08 15.7207 7.97333 15.974 7.76C16.2273 7.54 16.354 7.25 16.354 6.89C16.354 6.52333 16.2273 6.23333 15.974 6.02C15.7207 5.80667 15.3807 5.7 14.954 5.7C14.534 5.7 14.1907 5.81333 13.924 6.04C13.664 6.26667 13.534 6.55333 13.534 6.9C13.534 7.24 13.6607 7.52333 13.914 7.75C14.174 7.97 14.5307 8.08 14.984 8.08ZM21.2135 9.1C20.6535 9.1 20.1535 8.96 19.7135 8.68C19.2735 8.39333 18.9268 7.98 18.6735 7.44C18.4202 6.89333 18.2935 6.24667 18.2935 5.5C18.2935 4.75333 18.4202 4.11 18.6735 3.57C18.9268 3.02333 19.2735 2.61 19.7135 2.33C20.1535 2.04333 20.6535 1.9 21.2135 1.9C21.7735 1.9 22.2735 2.04333 22.7135 2.33C23.1602 2.61 23.5102 3.02333 23.7635 3.57C24.0168 4.11 24.1435 4.75333 24.1435 5.5C24.1435 6.24667 24.0168 6.89333 23.7635 7.44C23.5102 7.98 23.1602 8.39333 22.7135 8.68C22.2735 8.96 21.7735 9.1 21.2135 9.1ZM21.2135 7.97C21.7135 7.97 22.1068 7.76333 22.3935 7.35C22.6868 6.93667 22.8335 6.32 22.8335 5.5C22.8335 4.68 22.6868 4.06333 22.3935 3.65C22.1068 3.23667 21.7135 3.03 21.2135 3.03C20.7202 3.03 20.3268 3.23667 20.0335 3.65C19.7468 4.06333 19.6035 4.68 19.6035 5.5C19.6035 6.32 19.7468 6.93667 20.0335 7.35C20.3268 7.76333 20.7202 7.97 21.2135 7.97ZM27.942 9.1C27.382 9.1 26.882 8.96 26.442 8.68C26.002 8.39333 25.6554 7.98 25.402 7.44C25.1487 6.89333 25.022 6.24667 25.022 5.5C25.022 4.75333 25.1487 4.11 25.402 3.57C25.6554 3.02333 26.002 2.61 26.442 2.33C26.882 2.04333 27.382 1.9 27.942 1.9C28.502 1.9 29.002 2.04333 29.442 2.33C29.8887 2.61 30.2387 3.02333 30.492 3.57C30.7454 4.11 30.872 4.75333 30.872 5.5C30.872 6.24667 30.7454 6.89333 30.492 7.44C30.2387 7.98 29.8887 8.39333 29.442 8.68C29.002 8.96 28.502 9.1 27.942 9.1ZM27.942 7.97C28.442 7.97 28.8354 7.76333 29.122 7.35C29.4154 6.93667 29.562 6.32 29.562 5.5C29.562 4.68 29.4154 4.06333 29.122 3.65C28.8354 3.23667 28.442 3.03 27.942 3.03C27.4487 3.03 27.0554 3.23667 26.762 3.65C26.4754 4.06333 26.332 4.68 26.332 5.5C26.332 6.32 26.4754 6.93667 26.762 7.35C27.0554 7.76333 27.4487 7.97 27.942 7.97ZM38.0242 9.1C37.0576 9.1 36.3042 8.83 35.7642 8.29C35.2242 7.74333 34.9542 6.96333 34.9542 5.95V2H36.2542V5.9C36.2542 7.27333 36.8476 7.96 38.0342 7.96C39.2142 7.96 39.8042 7.27333 39.8042 5.9V2H41.0842V5.95C41.0842 6.96333 40.8142 7.74333 40.2742 8.29C39.7409 8.83 38.9909 9.1 38.0242 9.1ZM45.0748 9.1C44.5348 9.1 44.0115 9.02333 43.5048 8.87C43.0048 8.71667 42.6082 8.51333 42.3148 8.26L42.7648 7.25C43.0515 7.47667 43.4015 7.66333 43.8148 7.81C44.2348 7.95 44.6548 8.02 45.0748 8.02C45.5948 8.02 45.9815 7.93667 46.2348 7.77C46.4948 7.60333 46.6248 7.38333 46.6248 7.11C46.6248 6.91 46.5515 6.74667 46.4048 6.62C46.2648 6.48667 46.0848 6.38333 45.8648 6.31C45.6448 6.23667 45.3448 6.15333 44.9648 6.06C44.4315 5.93333 43.9982 5.80667 43.6648 5.68C43.3382 5.55333 43.0548 5.35667 42.8148 5.09C42.5815 4.81667 42.4648 4.45 42.4648 3.99C42.4648 3.60333 42.5682 3.25333 42.7748 2.94C42.9882 2.62 43.3048 2.36667 43.7248 2.18C44.1515 1.99333 44.6715 1.9 45.2848 1.9C45.7115 1.9 46.1315 1.95333 46.5448 2.06C46.9582 2.16667 47.3148 2.32 47.6148 2.52L47.2048 3.53C46.8982 3.35 46.5782 3.21333 46.2448 3.12C45.9115 3.02667 45.5882 2.98 45.2748 2.98C44.7615 2.98 44.3782 3.06667 44.1248 3.24C43.8782 3.41333 43.7548 3.64333 43.7548 3.93C43.7548 4.13 43.8248 4.29333 43.9648 4.42C44.1115 4.54667 44.2948 4.64667 44.5148 4.72C44.7348 4.79333 45.0348 4.87667 45.4148 4.97C45.9348 5.09 46.3615 5.21667 46.6948 5.35C47.0282 5.47667 47.3115 5.67333 47.5448 5.94C47.7848 6.20667 47.9048 6.56667 47.9048 7.02C47.9048 7.40667 47.7982 7.75667 47.5848 8.07C47.3782 8.38333 47.0615 8.63333 46.6348 8.82C46.2082 9.00667 45.6882 9.1 45.0748 9.1ZM49.1939 2H52.2539C53.0006 2 53.6639 2.14667 54.2439 2.44C54.8239 2.72667 55.2739 3.13667 55.5939 3.67C55.9139 4.19667 56.0739 4.80667 56.0739 5.5C56.0739 6.19333 55.9139 6.80667 55.5939 7.34C55.2739 7.86667 54.8239 8.27667 54.2439 8.57C53.6639 8.85667 53.0006 9 52.2539 9H49.1939V2ZM52.1939 7.9C52.7072 7.9 53.1572 7.80333 53.5439 7.61C53.9372 7.41 54.2372 7.13 54.4439 6.77C54.6572 6.40333 54.7639 5.98 54.7639 5.5C54.7639 5.02 54.6572 4.6 54.4439 4.24C54.2372 3.87333 53.9372 3.59333 53.5439 3.4C53.1572 3.2 52.7072 3.1 52.1939 3.1H50.4939V7.9H52.1939Z" fill="#737373"/>
</svg>
