<svg width="360" height="253" viewBox="0 0 360 253" fill="none" xmlns="http://www.w3.org/2000/svg">
<rect y="247" width="360" height="1" fill="white" fill-opacity="0.07"/>
<rect y="167" width="360" height="1" fill="white" fill-opacity="0.07"/>
<rect y="86" width="360" height="1" fill="white" fill-opacity="0.07"/>
<rect y="5" width="360" height="1" fill="white" fill-opacity="0.07"/>
<path d="M0 248H3.91304H7.82609L11.7391 216.137H15.6522L19.5652 214.12L23.4783 217.75L27.3913 222.993L31.3043 220.573L35.2174 214.523H43.0435L46.9565 210.893L50.8696 203.633L54.7826 205.65L58.6957 201.617L62.6087 211.297L66.5217 193.55L70.4348 191.533L74.3478 181.047L78.2609 178.627L82.1739 169.753L86.087 168.14L90 172.173L93.913 158.863H97.8261L101.739 157.25L105.652 150.797L109.565 153.217L113.478 147.57L117.391 145.15L121.304 146.763L125.217 143.537L129.13 136.68L133.043 129.017L136.957 127.403L140.87 132.243L144.783 129.823L148.696 122.563H156.522L160.435 118.127L164.348 128.613L168.261 130.63L172.174 137.083L176.087 135.067L180 121.757L183.913 114.093L187.826 110.06H195.652L199.565 106.027L203.478 84.2467L207.391 82.6333L211.304 73.76L215.217 76.5833L219.13 73.76L223.043 68.5167L226.957 71.34L230.87 56.0133L234.783 66.5L238.696 70.13L242.609 68.5167L246.522 62.0633L250.435 61.2567L254.348 50.3667L258.261 53.5933L262.174 32.2167H270L273.913 39.0733L277.826 59.6433L281.739 62.0633L285.652 58.4333L289.565 65.29L293.478 81.8267L297.391 79.4067L301.304 70.13L305.217 67.3067L309.13 59.24L313.043 56.82L316.957 60.8533L320.87 49.56L324.783 39.0733L328.696 47.5433L332.609 27.78L336.522 36.6533L340.435 19.7133L344.348 6L348.261 20.1167L352.174 30.6033L356.087 37.0567L360 34.6367" stroke="white" stroke-opacity="0.5" stroke-linejoin="round"/>
<path d="M0 248H3.91304H7.82609L11.7391 216.096H15.6522L19.5652 214.077L23.4783 217.712L27.3913 222.962L31.3043 220.538H35.2174L43.0435 219.731L46.9565 221.346L50.8696 203.577L54.7826 205.596L58.6957 201.558L62.6087 211.25L66.5217 193.481L70.4348 196.308L74.3478 190.654L78.2609 187.827L82.1739 169.654L86.087 168.038L90 172.077L93.913 158.75H97.8261L101.739 157.135L105.652 150.673L109.565 153.096L113.478 159.558L117.391 162.788L121.304 160.769L125.217 156.327L129.13 136.538L133.043 128.865L136.957 127.25L140.87 132.096L144.783 129.673L148.696 122.404H156.522L160.435 117.962L164.348 132.096L168.261 133.308L172.174 139.365L176.087 137.75L180 133.308L183.913 129.673L187.826 132.096L191.739 127.654L195.652 120.385L199.565 105.846L203.478 84.0385L207.391 82.4231L211.304 73.5385L215.217 76.3654L219.13 73.5385L223.043 68.2885L226.957 71.1154L230.87 55.7692L234.783 66.2692L238.696 69.9038L242.609 68.2885L246.522 61.8269L250.435 61.0192L254.348 50.1154L258.261 53.3462L262.174 31.9423H270L273.913 38.8077L277.826 71.1154L281.739 76.3654L285.652 79.1923L289.565 84.0385L293.478 101.808L297.391 79.1923L301.304 69.9038L305.217 67.0769L309.13 59L313.043 56.5769L316.957 60.6154L320.87 49.3077L324.783 38.8077L328.696 47.2885L332.609 27.5L336.522 41.2308L340.435 36.7885L344.348 17L348.261 36.7885L352.174 30.3269L356.087 36.7885L360 34.3654" stroke="white" stroke-opacity="0.3" stroke-linecap="round" stroke-linejoin="round" stroke-dasharray="1 2"/>
<rect y="242" width="13" height="11" fill="#242424"/>
<path d="M6.36 251.1C5.8 251.1 5.3 250.96 4.86 250.68C4.42 250.393 4.07333 249.98 3.82 249.44C3.56667 248.893 3.44 248.247 3.44 247.5C3.44 246.753 3.56667 246.11 3.82 245.57C4.07333 245.023 4.42 244.61 4.86 244.33C5.3 244.043 5.8 243.9 6.36 243.9C6.92 243.9 7.42 244.043 7.86 244.33C8.30667 244.61 8.65667 245.023 8.91 245.57C9.16333 246.11 9.29 246.753 9.29 247.5C9.29 248.247 9.16333 248.893 8.91 249.44C8.65667 249.98 8.30667 250.393 7.86 250.68C7.42 250.96 6.92 251.1 6.36 251.1ZM6.36 249.97C6.86 249.97 7.25333 249.763 7.54 249.35C7.83333 248.937 7.98 248.32 7.98 247.5C7.98 246.68 7.83333 246.063 7.54 245.65C7.25333 245.237 6.86 245.03 6.36 245.03C5.86667 245.03 5.47333 245.237 5.18 245.65C4.89333 246.063 4.75 246.68 4.75 247.5C4.75 248.32 4.89333 248.937 5.18 249.35C5.47333 249.763 5.86667 249.97 6.36 249.97Z" fill="#737373"/>
<rect y="162" width="19" height="11" fill="#242424"/>
<path d="M5.63 166.71C6.61667 166.71 7.34667 166.903 7.82 167.29C8.29333 167.67 8.53 168.19 8.53 168.85C8.53 169.27 8.42667 169.65 8.22 169.99C8.01333 170.33 7.70333 170.6 7.29 170.8C6.87667 171 6.36667 171.1 5.76 171.1C5.26 171.1 4.77667 171.03 4.31 170.89C3.84333 170.743 3.45 170.543 3.13 170.29L3.68 169.28C3.94 169.493 4.25 169.663 4.61 169.79C4.97667 169.91 5.35333 169.97 5.74 169.97C6.2 169.97 6.56 169.877 6.82 169.69C7.08667 169.497 7.22 169.233 7.22 168.9C7.22 168.54 7.07667 168.27 6.79 168.09C6.51 167.903 6.02667 167.81 5.34 167.81H3.65L4.01 164H8.12V165.09H5.11L4.96 166.71H5.63ZM12.1998 171.1C11.6398 171.1 11.1398 170.96 10.6998 170.68C10.2598 170.393 9.91318 169.98 9.65984 169.44C9.40651 168.893 9.27984 168.247 9.27984 167.5C9.27984 166.753 9.40651 166.11 9.65984 165.57C9.91318 165.023 10.2598 164.61 10.6998 164.33C11.1398 164.043 11.6398 163.9 12.1998 163.9C12.7598 163.9 13.2598 164.043 13.6998 164.33C14.1465 164.61 14.4965 165.023 14.7498 165.57C15.0032 166.11 15.1298 166.753 15.1298 167.5C15.1298 168.247 15.0032 168.893 14.7498 169.44C14.4965 169.98 14.1465 170.393 13.6998 170.68C13.2598 170.96 12.7598 171.1 12.1998 171.1ZM12.1998 169.97C12.6998 169.97 13.0932 169.763 13.3798 169.35C13.6732 168.937 13.8198 168.32 13.8198 167.5C13.8198 166.68 13.6732 166.063 13.3798 165.65C13.0932 165.237 12.6998 165.03 12.1998 165.03C11.7065 165.03 11.3132 165.237 11.0198 165.65C10.7332 166.063 10.5898 166.68 10.5898 167.5C10.5898 168.32 10.7332 168.937 11.0198 169.35C11.3132 169.763 11.7065 169.97 12.1998 169.97Z" fill="#737373"/>
<rect y="81" width="24" height="11" fill="#242424"/>
<path d="M5.86 83V90H4.56V84.09H3.08V83H5.86ZM10.1686 90.1C9.60859 90.1 9.10859 89.96 8.66859 89.68C8.22859 89.3933 7.88193 88.98 7.62859 88.44C7.37526 87.8933 7.24859 87.2467 7.24859 86.5C7.24859 85.7533 7.37526 85.11 7.62859 84.57C7.88193 84.0233 8.22859 83.61 8.66859 83.33C9.10859 83.0433 9.60859 82.9 10.1686 82.9C10.7286 82.9 11.2286 83.0433 11.6686 83.33C12.1153 83.61 12.4653 84.0233 12.7186 84.57C12.9719 85.11 13.0986 85.7533 13.0986 86.5C13.0986 87.2467 12.9719 87.8933 12.7186 88.44C12.4653 88.98 12.1153 89.3933 11.6686 89.68C11.2286 89.96 10.7286 90.1 10.1686 90.1ZM10.1686 88.97C10.6686 88.97 11.0619 88.7633 11.3486 88.35C11.6419 87.9367 11.7886 87.32 11.7886 86.5C11.7886 85.68 11.6419 85.0633 11.3486 84.65C11.0619 84.2367 10.6686 84.03 10.1686 84.03C9.67526 84.03 9.28193 84.2367 8.98859 84.65C8.70193 85.0633 8.55859 85.68 8.55859 86.5C8.55859 87.32 8.70193 87.9367 8.98859 88.35C9.28193 88.7633 9.67526 88.97 10.1686 88.97ZM16.8971 90.1C16.3371 90.1 15.8371 89.96 15.3971 89.68C14.9571 89.3933 14.6104 88.98 14.3571 88.44C14.1038 87.8933 13.9771 87.2467 13.9771 86.5C13.9771 85.7533 14.1038 85.11 14.3571 84.57C14.6104 84.0233 14.9571 83.61 15.3971 83.33C15.8371 83.0433 16.3371 82.9 16.8971 82.9C17.4571 82.9 17.9571 83.0433 18.3971 83.33C18.8438 83.61 19.1938 84.0233 19.4471 84.57C19.7004 85.11 19.8271 85.7533 19.8271 86.5C19.8271 87.2467 19.7004 87.8933 19.4471 88.44C19.1938 88.98 18.8438 89.3933 18.3971 89.68C17.9571 89.96 17.4571 90.1 16.8971 90.1ZM16.8971 88.97C17.3971 88.97 17.7904 88.7633 18.0771 88.35C18.3704 87.9367 18.5171 87.32 18.5171 86.5C18.5171 85.68 18.3704 85.0633 18.0771 84.65C17.7904 84.2367 17.3971 84.03 16.8971 84.03C16.4038 84.03 16.0104 84.2367 15.7171 84.65C15.4304 85.0633 15.2871 85.68 15.2871 86.5C15.2871 87.32 15.4304 87.9367 15.7171 88.35C16.0104 88.7633 16.4038 88.97 16.8971 88.97Z" fill="#737373"/>
<rect width="23" height="11" fill="#242424"/>
<path d="M5.86 2V9H4.56V3.09H3.08V2H5.86ZM9.43859 4.71C10.4253 4.71 11.1553 4.90333 11.6286 5.29C12.1019 5.67 12.3386 6.19 12.3386 6.85C12.3386 7.27 12.2353 7.65 12.0286 7.99C11.8219 8.33 11.5119 8.6 11.0986 8.8C10.6853 9 10.1753 9.1 9.56859 9.1C9.06859 9.1 8.58526 9.03 8.11859 8.89C7.65193 8.74333 7.25859 8.54333 6.93859 8.29L7.48859 7.28C7.74859 7.49333 8.05859 7.66333 8.41859 7.79C8.78526 7.91 9.16193 7.97 9.54859 7.97C10.0086 7.97 10.3686 7.87667 10.6286 7.69C10.8953 7.49667 11.0286 7.23333 11.0286 6.9C11.0286 6.54 10.8853 6.27 10.5986 6.09C10.3186 5.90333 9.83526 5.81 9.14859 5.81H7.45859L7.81859 2H11.9286V3.09H8.91859L8.76859 4.71H9.43859ZM16.0084 9.1C15.4484 9.1 14.9484 8.96 14.5084 8.68C14.0684 8.39333 13.7218 7.98 13.4684 7.44C13.2151 6.89333 13.0884 6.24667 13.0884 5.5C13.0884 4.75333 13.2151 4.11 13.4684 3.57C13.7218 3.02333 14.0684 2.61 14.5084 2.33C14.9484 2.04333 15.4484 1.9 16.0084 1.9C16.5684 1.9 17.0684 2.04333 17.5084 2.33C17.9551 2.61 18.3051 3.02333 18.5584 3.57C18.8118 4.11 18.9384 4.75333 18.9384 5.5C18.9384 6.24667 18.8118 6.89333 18.5584 7.44C18.3051 7.98 17.9551 8.39333 17.5084 8.68C17.0684 8.96 16.5684 9.1 16.0084 9.1ZM16.0084 7.97C16.5084 7.97 16.9018 7.76333 17.1884 7.35C17.4818 6.93667 17.6284 6.32 17.6284 5.5C17.6284 4.68 17.4818 4.06333 17.1884 3.65C16.9018 3.23667 16.5084 3.03 16.0084 3.03C15.5151 3.03 15.1218 3.23667 14.8284 3.65C14.5418 4.06333 14.3984 4.68 14.3984 5.5C14.3984 6.32 14.5418 6.93667 14.8284 7.35C15.1218 7.76333 15.5151 7.97 16.0084 7.97Z" fill="#737373"/>
</svg>
