<svg width="360" height="215" viewBox="0 0 360 215" fill="none" xmlns="http://www.w3.org/2000/svg">
<rect x="6" y="189" width="2" height="21" fill="#737373"/>
<rect x="10" y="195" width="2" height="15" fill="#737373"/>
<rect x="14" y="191" width="2" height="19" fill="#737373"/>
<rect x="18" y="201" width="2" height="9" fill="#737373"/>
<rect x="22" y="203" width="2" height="7" fill="#737373"/>
<rect x="26" y="199" width="2" height="11" fill="#737373"/>
<rect x="30" y="197" width="2" height="13" fill="#737373"/>
<rect x="34" y="195" width="2" height="15" fill="#737373"/>
<rect x="38" y="163" width="2" height="47" fill="#737373"/>
<rect x="42" y="165" width="2" height="45" fill="#737373"/>
<rect x="46" y="174" width="2" height="36" fill="#737373"/>
<rect x="50" y="171" width="2" height="39" fill="#737373"/>
<rect x="66" y="208" width="2" height="2" fill="#737373"/>
<rect x="70" y="202" width="2" height="8" fill="#737373"/>
<rect x="74" y="194" width="2" height="16" fill="#737373"/>
<rect x="78" y="197" width="2" height="13" fill="#737373"/>
<rect x="82" y="196" width="2" height="14" fill="#737373"/>
<rect x="86" y="201" width="2" height="9" fill="#737373"/>
<rect x="90" y="202" width="2" height="8" fill="#737373"/>
<rect x="94" y="202" width="2" height="8" fill="#737373"/>
<rect x="130" y="203" width="2" height="7" fill="#737373"/>
<rect x="134" y="184" width="2" height="26" fill="#737373"/>
<rect x="138" y="179" width="2" height="31" fill="#737373"/>
<rect x="142" y="181" width="2" height="29" fill="#737373"/>
<rect x="146" y="182" width="2" height="28" fill="#737373"/>
<rect x="150" y="177" width="2" height="33" fill="#737373"/>
<rect x="154" y="141" width="2" height="69" fill="#737373"/>
<rect x="158" y="104" width="2" height="106" fill="#737373"/>
<rect x="162" y="72" width="2" height="138" fill="#737373"/>
<rect x="166" y="94" width="2" height="116" fill="#737373"/>
<rect x="170" y="111" width="2" height="99" fill="#737373"/>
<rect x="174" y="121" width="2" height="89" fill="#737373"/>
<rect x="178" y="132" width="2" height="78" fill="#737373"/>
<rect x="182" y="127" width="2" height="83" fill="#737373"/>
<rect x="186" y="152" width="2" height="58" fill="#737373"/>
<rect x="190" y="166" width="2" height="44" fill="#737373"/>
<rect x="194" y="172" width="2" height="38" fill="#737373"/>
<rect x="198" y="184" width="2" height="26" fill="#737373"/>
<rect x="202" y="179" width="2" height="31" fill="#737373"/>
<rect x="206" y="190" width="2" height="20" fill="#737373"/>
<rect x="210" y="195" width="2" height="15" fill="#737373"/>
<rect x="214" y="192" width="2" height="18" fill="#737373"/>
<rect x="218" y="202" width="2" height="8" fill="#737373"/>
<rect x="222" y="198" width="2" height="12" fill="#737373"/>
<rect x="226" y="195" width="2" height="15" fill="#737373"/>
<rect x="230" y="195" width="2" height="15" fill="#737373"/>
<rect x="234" y="187" width="2" height="23" fill="#737373"/>
<rect x="238" y="182" width="2" height="28" fill="#737373"/>
<rect x="242" y="184" width="2" height="26" fill="#737373"/>
<rect x="246" y="174" width="2" height="36" fill="#737373"/>
<rect x="250" y="177" width="2" height="33" fill="#737373"/>
<rect x="254" y="166" width="2" height="44" fill="#737373"/>
<rect x="258" y="169" width="2" height="41" fill="#737373"/>
<rect x="262" y="163" width="2" height="47" fill="#737373"/>
<rect x="266" y="174" width="2" height="36" fill="#737373"/>
<rect x="270" y="177" width="2" height="33" fill="#737373"/>
<rect x="274" y="181" width="2" height="29" fill="#737373"/>
<rect x="278" y="190" width="2" height="20" fill="#737373"/>
<rect x="282" y="195" width="2" height="15" fill="#737373"/>
<rect x="286" y="206" width="2" height="4" fill="#737373"/>
<rect x="290" y="207" width="2" height="3" fill="#737373"/>
<rect x="294" y="207" width="2" height="3" fill="#737373"/>
<rect x="298" y="205" width="2" height="5" fill="#737373"/>
<rect x="302" y="201" width="2" height="9" fill="#737373"/>
<rect x="306" y="196" width="2" height="14" fill="#737373"/>
<rect x="310" y="198" width="2" height="12" fill="#737373"/>
<rect x="314" y="184" width="2" height="26" fill="#737373"/>
<rect x="318" y="187" width="2" height="23" fill="#737373"/>
<rect x="322" y="172" width="2" height="38" fill="#737373"/>
<rect x="326" y="177" width="2" height="33" fill="#737373"/>
<rect x="330" y="182" width="2" height="28" fill="#737373"/>
<rect x="334" y="190" width="2" height="20" fill="#737373"/>
<rect x="338" y="187" width="2" height="23" fill="#737373"/>
<rect x="342" y="195" width="2" height="15" fill="#737373"/>
<rect x="346" y="192" width="2" height="18" fill="#737373"/>
<rect x="350" y="198" width="2" height="12" fill="#737373"/>
<rect x="354" y="187" width="2" height="23" fill="#737373"/>
<rect x="358" y="184" width="2" height="26" fill="#737373"/>
<rect y="158" width="360" height="1" fill="white" fill-opacity="0.07"/>
<rect y="209" width="360" height="1" fill="white" fill-opacity="0.07"/>
<rect y="107" width="360" height="1" fill="white" fill-opacity="0.07"/>
<rect y="56" width="360" height="1" fill="white" fill-opacity="0.07"/>
<rect y="5" width="360" height="1" fill="white" fill-opacity="0.07"/>
<rect y="153" width="30" height="11" fill="#242424"/>
<path d="M8.51 160.9V162H3.35V161.13L6.13 158.49C6.44333 158.19 6.65333 157.93 6.76 157.71C6.87333 157.483 6.93 157.26 6.93 157.04C6.93 156.713 6.82 156.463 6.6 156.29C6.38 156.117 6.05667 156.03 5.63 156.03C4.91667 156.03 4.37 156.273 3.99 156.76L3.08 156.06C3.35333 155.693 3.72 155.41 4.18 155.21C4.64667 155.003 5.16667 154.9 5.74 154.9C6.5 154.9 7.10667 155.08 7.56 155.44C8.01333 155.8 8.24 156.29 8.24 156.91C8.24 157.29 8.16 157.647 8 157.98C7.84 158.313 7.53333 158.693 7.08 159.12L5.21 160.9H8.51ZM11.4503 157.71C12.437 157.71 13.167 157.903 13.6403 158.29C14.1136 158.67 14.3503 159.19 14.3503 159.85C14.3503 160.27 14.247 160.65 14.0403 160.99C13.8336 161.33 13.5236 161.6 13.1103 161.8C12.697 162 12.187 162.1 11.5803 162.1C11.0803 162.1 10.597 162.03 10.1303 161.89C9.66365 161.743 9.27031 161.543 8.95031 161.29L9.50031 160.28C9.76031 160.493 10.0703 160.663 10.4303 160.79C10.797 160.91 11.1736 160.97 11.5603 160.97C12.0203 160.97 12.3803 160.877 12.6403 160.69C12.907 160.497 13.0403 160.233 13.0403 159.9C13.0403 159.54 12.897 159.27 12.6103 159.09C12.3303 158.903 11.847 158.81 11.1603 158.81H9.47031L9.83031 155H13.9403V156.09H10.9303L10.7803 157.71H11.4503ZM19.4238 158.77C18.9238 158.77 18.5205 158.593 18.2138 158.24C17.9072 157.887 17.7538 157.423 17.7538 156.85C17.7538 156.277 17.9072 155.813 18.2138 155.46C18.5205 155.107 18.9238 154.93 19.4238 154.93C19.9238 154.93 20.3272 155.107 20.6338 155.46C20.9472 155.807 21.1038 156.27 21.1038 156.85C21.1038 157.43 20.9472 157.897 20.6338 158.25C20.3272 158.597 19.9238 158.77 19.4238 158.77ZM23.6238 155H24.6038L19.8238 162H18.8438L23.6238 155ZM19.4238 158.07C19.6972 158.07 19.9072 157.963 20.0538 157.75C20.2072 157.537 20.2838 157.237 20.2838 156.85C20.2838 156.463 20.2072 156.163 20.0538 155.95C19.9072 155.737 19.6972 155.63 19.4238 155.63C19.1638 155.63 18.9538 155.74 18.7938 155.96C18.6405 156.173 18.5638 156.47 18.5638 156.85C18.5638 157.23 18.6405 157.53 18.7938 157.75C18.9538 157.963 19.1638 158.07 19.4238 158.07ZM24.0138 162.07C23.5138 162.07 23.1105 161.893 22.8038 161.54C22.4972 161.187 22.3438 160.723 22.3438 160.15C22.3438 159.577 22.4972 159.113 22.8038 158.76C23.1105 158.407 23.5138 158.23 24.0138 158.23C24.5138 158.23 24.9172 158.407 25.2238 158.76C25.5372 159.113 25.6938 159.577 25.6938 160.15C25.6938 160.723 25.5372 161.187 25.2238 161.54C24.9172 161.893 24.5138 162.07 24.0138 162.07ZM24.0138 161.37C24.2805 161.37 24.4905 161.263 24.6438 161.05C24.7972 160.83 24.8738 160.53 24.8738 160.15C24.8738 159.77 24.7972 159.473 24.6438 159.26C24.4905 159.04 24.2805 158.93 24.0138 158.93C23.7472 158.93 23.5372 159.037 23.3838 159.25C23.2305 159.463 23.1538 159.763 23.1538 160.15C23.1538 160.537 23.2305 160.837 23.3838 161.05C23.5372 161.263 23.7472 161.37 24.0138 161.37Z" fill="#737373"/>
<rect y="204" width="27" height="11" fill="#242424"/>
<path d="M6.36 213.1C5.8 213.1 5.3 212.96 4.86 212.68C4.42 212.393 4.07333 211.98 3.82 211.44C3.56667 210.893 3.44 210.247 3.44 209.5C3.44 208.753 3.56667 208.11 3.82 207.57C4.07333 207.023 4.42 206.61 4.86 206.33C5.3 206.043 5.8 205.9 6.36 205.9C6.92 205.9 7.42 206.043 7.86 206.33C8.30667 206.61 8.65667 207.023 8.91 207.57C9.16333 208.11 9.29 208.753 9.29 209.5C9.29 210.247 9.16333 210.893 8.91 211.44C8.65667 211.98 8.30667 212.393 7.86 212.68C7.42 212.96 6.92 213.1 6.36 213.1ZM6.36 211.97C6.86 211.97 7.25333 211.763 7.54 211.35C7.83333 210.937 7.98 210.32 7.98 209.5C7.98 208.68 7.83333 208.063 7.54 207.65C7.25333 207.237 6.86 207.03 6.36 207.03C5.86667 207.03 5.47333 207.237 5.18 207.65C4.89333 208.063 4.75 208.68 4.75 209.5C4.75 210.32 4.89333 210.937 5.18 211.35C5.47333 211.763 5.86667 211.97 6.36 211.97ZM14.4922 209.77C13.9922 209.77 13.5889 209.593 13.2822 209.24C12.9755 208.887 12.8222 208.423 12.8222 207.85C12.8222 207.277 12.9755 206.813 13.2822 206.46C13.5889 206.107 13.9922 205.93 14.4922 205.93C14.9922 205.93 15.3955 206.107 15.7022 206.46C16.0155 206.807 16.1722 207.27 16.1722 207.85C16.1722 208.43 16.0155 208.897 15.7022 209.25C15.3955 209.597 14.9922 209.77 14.4922 209.77ZM18.6922 206H19.6722L14.8922 213H13.9122L18.6922 206ZM14.4922 209.07C14.7655 209.07 14.9755 208.963 15.1222 208.75C15.2755 208.537 15.3522 208.237 15.3522 207.85C15.3522 207.463 15.2755 207.163 15.1222 206.95C14.9755 206.737 14.7655 206.63 14.4922 206.63C14.2322 206.63 14.0222 206.74 13.8622 206.96C13.7089 207.173 13.6322 207.47 13.6322 207.85C13.6322 208.23 13.7089 208.53 13.8622 208.75C14.0222 208.963 14.2322 209.07 14.4922 209.07ZM19.0822 213.07C18.5822 213.07 18.1789 212.893 17.8722 212.54C17.5655 212.187 17.4122 211.723 17.4122 211.15C17.4122 210.577 17.5655 210.113 17.8722 209.76C18.1789 209.407 18.5822 209.23 19.0822 209.23C19.5822 209.23 19.9855 209.407 20.2922 209.76C20.6055 210.113 20.7622 210.577 20.7622 211.15C20.7622 211.723 20.6055 212.187 20.2922 212.54C19.9855 212.893 19.5822 213.07 19.0822 213.07ZM19.0822 212.37C19.3489 212.37 19.5589 212.263 19.7122 212.05C19.8655 211.83 19.9422 211.53 19.9422 211.15C19.9422 210.77 19.8655 210.473 19.7122 210.26C19.5589 210.04 19.3489 209.93 19.0822 209.93C18.8155 209.93 18.6055 210.037 18.4522 210.25C18.2989 210.463 18.2222 210.763 18.2222 211.15C18.2222 211.537 18.2989 211.837 18.4522 212.05C18.6055 212.263 18.8155 212.37 19.0822 212.37Z" fill="#737373"/>
<rect y="102" width="30" height="11" fill="#242424"/>
<path d="M5.63 106.71C6.61667 106.71 7.34667 106.903 7.82 107.29C8.29333 107.67 8.53 108.19 8.53 108.85C8.53 109.27 8.42667 109.65 8.22 109.99C8.01333 110.33 7.70333 110.6 7.29 110.8C6.87667 111 6.36667 111.1 5.76 111.1C5.26 111.1 4.77667 111.03 4.31 110.89C3.84333 110.743 3.45 110.543 3.13 110.29L3.68 109.28C3.94 109.493 4.25 109.663 4.61 109.79C4.97667 109.91 5.35333 109.97 5.74 109.97C6.2 109.97 6.56 109.877 6.82 109.69C7.08667 109.497 7.22 109.233 7.22 108.9C7.22 108.54 7.07667 108.27 6.79 108.09C6.51 107.903 6.02667 107.81 5.34 107.81H3.65L4.01 104H8.12V105.09H5.11L4.96 106.71H5.63ZM12.1998 111.1C11.6398 111.1 11.1398 110.96 10.6998 110.68C10.2598 110.393 9.91318 109.98 9.65984 109.44C9.40651 108.893 9.27984 108.247 9.27984 107.5C9.27984 106.753 9.40651 106.11 9.65984 105.57C9.91318 105.023 10.2598 104.61 10.6998 104.33C11.1398 104.043 11.6398 103.9 12.1998 103.9C12.7598 103.9 13.2598 104.043 13.6998 104.33C14.1465 104.61 14.4965 105.023 14.7498 105.57C15.0032 106.11 15.1298 106.753 15.1298 107.5C15.1298 108.247 15.0032 108.893 14.7498 109.44C14.4965 109.98 14.1465 110.393 13.6998 110.68C13.2598 110.96 12.7598 111.1 12.1998 111.1ZM12.1998 109.97C12.6998 109.97 13.0932 109.763 13.3798 109.35C13.6732 108.937 13.8198 108.32 13.8198 107.5C13.8198 106.68 13.6732 106.063 13.3798 105.65C13.0932 105.237 12.6998 105.03 12.1998 105.03C11.7065 105.03 11.3132 105.237 11.0198 105.65C10.7332 106.063 10.5898 106.68 10.5898 107.5C10.5898 108.32 10.7332 108.937 11.0198 109.35C11.3132 109.763 11.7065 109.97 12.1998 109.97ZM20.332 107.77C19.832 107.77 19.4287 107.593 19.122 107.24C18.8154 106.887 18.662 106.423 18.662 105.85C18.662 105.277 18.8154 104.813 19.122 104.46C19.4287 104.107 19.832 103.93 20.332 103.93C20.832 103.93 21.2354 104.107 21.542 104.46C21.8554 104.807 22.012 105.27 22.012 105.85C22.012 106.43 21.8554 106.897 21.542 107.25C21.2354 107.597 20.832 107.77 20.332 107.77ZM24.532 104H25.512L20.732 111H19.752L24.532 104ZM20.332 107.07C20.6054 107.07 20.8154 106.963 20.962 106.75C21.1154 106.537 21.192 106.237 21.192 105.85C21.192 105.463 21.1154 105.163 20.962 104.95C20.8154 104.737 20.6054 104.63 20.332 104.63C20.072 104.63 19.862 104.74 19.702 104.96C19.5487 105.173 19.472 105.47 19.472 105.85C19.472 106.23 19.5487 106.53 19.702 106.75C19.862 106.963 20.072 107.07 20.332 107.07ZM24.922 111.07C24.422 111.07 24.0187 110.893 23.712 110.54C23.4054 110.187 23.252 109.723 23.252 109.15C23.252 108.577 23.4054 108.113 23.712 107.76C24.0187 107.407 24.422 107.23 24.922 107.23C25.422 107.23 25.8254 107.407 26.132 107.76C26.4454 108.113 26.602 108.577 26.602 109.15C26.602 109.723 26.4454 110.187 26.132 110.54C25.8254 110.893 25.422 111.07 24.922 111.07ZM24.922 110.37C25.1887 110.37 25.3987 110.263 25.552 110.05C25.7054 109.83 25.782 109.53 25.782 109.15C25.782 108.77 25.7054 108.473 25.552 108.26C25.3987 108.04 25.1887 107.93 24.922 107.93C24.6554 107.93 24.4454 108.037 24.292 108.25C24.1387 108.463 24.062 108.763 24.062 109.15C24.062 109.537 24.1387 109.837 24.292 110.05C24.4454 110.263 24.6554 110.37 24.922 110.37Z" fill="#737373"/>
<rect y="51" width="30" height="11" fill="#242424"/>
<path d="M8.72 53V53.87L6 60H4.61L7.24 54.1H4.49V55.29H3.28V53H8.72ZM11.5382 55.71C12.5249 55.71 13.2549 55.9033 13.7282 56.29C14.2015 56.67 14.4382 57.19 14.4382 57.85C14.4382 58.27 14.3349 58.65 14.1282 58.99C13.9215 59.33 13.6115 59.6 13.1982 59.8C12.7849 60 12.2749 60.1 11.6682 60.1C11.1682 60.1 10.6849 60.03 10.2182 59.89C9.75154 59.7433 9.3582 59.5433 9.0382 59.29L9.5882 58.28C9.8482 58.4933 10.1582 58.6633 10.5182 58.79C10.8849 58.91 11.2615 58.97 11.6482 58.97C12.1082 58.97 12.4682 58.8767 12.7282 58.69C12.9949 58.4967 13.1282 58.2333 13.1282 57.9C13.1282 57.54 12.9849 57.27 12.6982 57.09C12.4182 56.9033 11.9349 56.81 11.2482 56.81H9.5582L9.9182 53H14.0282V54.09H11.0182L10.8682 55.71H11.5382ZM19.5117 56.77C19.0117 56.77 18.6084 56.5933 18.3017 56.24C17.9951 55.8867 17.8417 55.4233 17.8417 54.85C17.8417 54.2767 17.9951 53.8133 18.3017 53.46C18.6084 53.1067 19.0117 52.93 19.5117 52.93C20.0117 52.93 20.4151 53.1067 20.7217 53.46C21.0351 53.8067 21.1917 54.27 21.1917 54.85C21.1917 55.43 21.0351 55.8967 20.7217 56.25C20.4151 56.5967 20.0117 56.77 19.5117 56.77ZM23.7117 53H24.6917L19.9117 60H18.9317L23.7117 53ZM19.5117 56.07C19.7851 56.07 19.9951 55.9633 20.1417 55.75C20.2951 55.5367 20.3717 55.2367 20.3717 54.85C20.3717 54.4633 20.2951 54.1633 20.1417 53.95C19.9951 53.7367 19.7851 53.63 19.5117 53.63C19.2517 53.63 19.0417 53.74 18.8817 53.96C18.7284 54.1733 18.6517 54.47 18.6517 54.85C18.6517 55.23 18.7284 55.53 18.8817 55.75C19.0417 55.9633 19.2517 56.07 19.5117 56.07ZM24.1017 60.07C23.6017 60.07 23.1984 59.8933 22.8917 59.54C22.5851 59.1867 22.4317 58.7233 22.4317 58.15C22.4317 57.5767 22.5851 57.1133 22.8917 56.76C23.1984 56.4067 23.6017 56.23 24.1017 56.23C24.6017 56.23 25.0051 56.4067 25.3117 56.76C25.6251 57.1133 25.7817 57.5767 25.7817 58.15C25.7817 58.7233 25.6251 59.1867 25.3117 59.54C25.0051 59.8933 24.6017 60.07 24.1017 60.07ZM24.1017 59.37C24.3684 59.37 24.5784 59.2633 24.7317 59.05C24.8851 58.83 24.9617 58.53 24.9617 58.15C24.9617 57.77 24.8851 57.4733 24.7317 57.26C24.5784 57.04 24.3684 56.93 24.1017 56.93C23.8351 56.93 23.6251 57.0367 23.4717 57.25C23.3184 57.4633 23.2417 57.7633 23.2417 58.15C23.2417 58.5367 23.3184 58.8367 23.4717 59.05C23.6251 59.2633 23.8351 59.37 24.1017 59.37Z" fill="#737373"/>
<rect width="35" height="11" fill="#242424"/>
<path d="M5.86 2V9H4.56V3.09H3.08V2H5.86ZM10.1686 9.1C9.60859 9.1 9.10859 8.96 8.66859 8.68C8.22859 8.39333 7.88193 7.98 7.62859 7.44C7.37526 6.89333 7.24859 6.24667 7.24859 5.5C7.24859 4.75333 7.37526 4.11 7.62859 3.57C7.88193 3.02333 8.22859 2.61 8.66859 2.33C9.10859 2.04333 9.60859 1.9 10.1686 1.9C10.7286 1.9 11.2286 2.04333 11.6686 2.33C12.1153 2.61 12.4653 3.02333 12.7186 3.57C12.9719 4.11 13.0986 4.75333 13.0986 5.5C13.0986 6.24667 12.9719 6.89333 12.7186 7.44C12.4653 7.98 12.1153 8.39333 11.6686 8.68C11.2286 8.96 10.7286 9.1 10.1686 9.1ZM10.1686 7.97C10.6686 7.97 11.0619 7.76333 11.3486 7.35C11.6419 6.93667 11.7886 6.32 11.7886 5.5C11.7886 4.68 11.6419 4.06333 11.3486 3.65C11.0619 3.23667 10.6686 3.03 10.1686 3.03C9.67526 3.03 9.28193 3.23667 8.98859 3.65C8.70193 4.06333 8.55859 4.68 8.55859 5.5C8.55859 6.32 8.70193 6.93667 8.98859 7.35C9.28193 7.76333 9.67526 7.97 10.1686 7.97ZM16.8971 9.1C16.3371 9.1 15.8371 8.96 15.3971 8.68C14.9571 8.39333 14.6104 7.98 14.3571 7.44C14.1038 6.89333 13.9771 6.24667 13.9771 5.5C13.9771 4.75333 14.1038 4.11 14.3571 3.57C14.6104 3.02333 14.9571 2.61 15.3971 2.33C15.8371 2.04333 16.3371 1.9 16.8971 1.9C17.4571 1.9 17.9571 2.04333 18.3971 2.33C18.8438 2.61 19.1938 3.02333 19.4471 3.57C19.7004 4.11 19.8271 4.75333 19.8271 5.5C19.8271 6.24667 19.7004 6.89333 19.4471 7.44C19.1938 7.98 18.8438 8.39333 18.3971 8.68C17.9571 8.96 17.4571 9.1 16.8971 9.1ZM16.8971 7.97C17.3971 7.97 17.7904 7.76333 18.0771 7.35C18.3704 6.93667 18.5171 6.32 18.5171 5.5C18.5171 4.68 18.3704 4.06333 18.0771 3.65C17.7904 3.23667 17.3971 3.03 16.8971 3.03C16.4038 3.03 16.0104 3.23667 15.7171 3.65C15.4304 4.06333 15.2871 4.68 15.2871 5.5C15.2871 6.32 15.4304 6.93667 15.7171 7.35C16.0104 7.76333 16.4038 7.97 16.8971 7.97ZM25.0293 5.77C24.5293 5.77 24.126 5.59333 23.8193 5.24C23.5126 4.88667 23.3593 4.42333 23.3593 3.85C23.3593 3.27667 23.5126 2.81333 23.8193 2.46C24.126 2.10667 24.5293 1.93 25.0293 1.93C25.5293 1.93 25.9326 2.10667 26.2393 2.46C26.5526 2.80667 26.7093 3.27 26.7093 3.85C26.7093 4.43 26.5526 4.89667 26.2393 5.25C25.9326 5.59667 25.5293 5.77 25.0293 5.77ZM29.2293 2H30.2093L25.4293 9H24.4493L29.2293 2ZM25.0293 5.07C25.3026 5.07 25.5126 4.96333 25.6593 4.75C25.8126 4.53667 25.8893 4.23667 25.8893 3.85C25.8893 3.46333 25.8126 3.16333 25.6593 2.95C25.5126 2.73667 25.3026 2.63 25.0293 2.63C24.7693 2.63 24.5593 2.74 24.3993 2.96C24.246 3.17333 24.1693 3.47 24.1693 3.85C24.1693 4.23 24.246 4.53 24.3993 4.75C24.5593 4.96333 24.7693 5.07 25.0293 5.07ZM29.6193 9.07C29.1193 9.07 28.716 8.89333 28.4093 8.54C28.1026 8.18667 27.9493 7.72333 27.9493 7.15C27.9493 6.57667 28.1026 6.11333 28.4093 5.76C28.716 5.40667 29.1193 5.23 29.6193 5.23C30.1193 5.23 30.5226 5.40667 30.8293 5.76C31.1426 6.11333 31.2993 6.57667 31.2993 7.15C31.2993 7.72333 31.1426 8.18667 30.8293 8.54C30.5226 8.89333 30.1193 9.07 29.6193 9.07ZM29.6193 8.37C29.886 8.37 30.096 8.26333 30.2493 8.05C30.4026 7.83 30.4793 7.53 30.4793 7.15C30.4793 6.77 30.4026 6.47333 30.2493 6.26C30.096 6.04 29.886 5.93 29.6193 5.93C29.3526 5.93 29.1426 6.03667 28.9893 6.25C28.836 6.46333 28.7593 6.76333 28.7593 7.15C28.7593 7.53667 28.836 7.83667 28.9893 8.05C29.1426 8.26333 29.3526 8.37 29.6193 8.37Z" fill="#737373"/>
</svg>
