<svg width="24" height="24" viewBox="0 0 24 24" fill="none" xmlns="http://www.w3.org/2000/svg">
<path d="M23.6485 11.5607C23.5957 11.4946 22.3301 9.92414 20.2785 8.33827C19.0669 7.40166 17.8302 6.65381 16.6028 6.11559C15.0447 5.43234 13.496 5.08594 12 5.08594C10.5039 5.08594 8.95538 5.43239 7.3972 6.11559C6.16978 6.65377 4.93308 7.40161 3.72141 8.33827C1.66992 9.92419 0.404344 11.4947 0.351469 11.5608L0 12L0.351516 12.4394C0.404391 12.5055 1.66992 14.076 3.72145 15.6618C4.93308 16.5984 6.16978 17.3463 7.39725 17.8845C8.95537 18.5678 10.504 18.9142 12 18.9142C13.4961 18.9142 15.0447 18.5677 16.6028 17.8845C17.8303 17.3463 19.067 16.5985 20.2786 15.6618C22.3301 14.0759 23.5957 12.5054 23.6486 12.4394L24 12L23.6485 11.5607ZM19.3922 14.5694C17.6522 15.9099 14.9572 17.5078 12 17.5078C9.04266 17.5078 6.34777 15.9099 4.60777 14.5694C3.31027 13.5698 2.33334 12.5586 1.83014 12.0003C3.07219 10.6246 7.20309 6.49238 12 6.49238C14.9573 6.49238 17.6523 8.0903 19.3923 9.43083C20.6899 10.4305 21.6669 11.4418 22.1701 12.0001C21.6668 12.5584 20.6899 13.5697 19.3922 14.5694Z" fill="#737373"/>
<path d="M12.0006 7.26562C9.38972 7.26562 7.26562 9.38977 7.26562 12.0006C7.26562 14.6114 9.38977 16.7355 12.0006 16.7355C14.6114 16.7355 16.7355 14.6114 16.7355 12.0006C16.7355 9.38972 14.6114 7.26562 12.0006 7.26562ZM12.0006 15.3291C10.1652 15.3291 8.67202 13.8359 8.67202 12.0006C8.67202 10.1652 10.1652 8.67202 12.0006 8.67202C13.8359 8.67202 15.3291 10.1652 15.3291 12.0006C15.3291 13.8359 13.8359 15.3291 12.0006 15.3291Z" fill="#737373"/>
<path d="M11.9998 9.82764C10.8021 9.82764 9.82764 10.8021 9.82764 11.9998C9.82764 13.1975 10.8021 14.1719 11.9998 14.1719C13.1975 14.1719 14.1719 13.1975 14.1719 11.9998C14.1719 10.802 13.1975 9.82764 11.9998 9.82764ZM11.9998 12.7655C11.5776 12.7655 11.2341 12.422 11.2341 11.9998C11.2341 11.5775 11.5776 11.2341 11.9998 11.2341C12.422 11.2341 12.7655 11.5776 12.7655 11.9998C12.7655 12.422 12.422 12.7655 11.9998 12.7655Z" fill="#737373"/>
</svg>
