<svg width="58" height="44" viewBox="0 0 58 44" fill="none" xmlns="http://www.w3.org/2000/svg">
<g clip-path="url(#clip0)">
<path d="M50.6506 18H39.6199C38.8758 18 38.2705 18.7384 38.2705 19.6461V42.354C38.2705 43.2616 38.8758 44.0001 39.6199 44.0001H50.6506C51.3947 44.0001 52 43.2616 52 42.354V19.6461C52 18.7384 51.3947 18 50.6506 18ZM38.9467 22.1372H51.3238V39.332H38.9467V22.1372ZM39.6199 18.8249H50.6506C51.0218 18.8249 51.3238 19.1932 51.3238 19.6461V21.5873H38.9467V19.6461C38.9467 19.1932 39.2487 18.8249 39.6199 18.8249ZM50.6506 43.1751H39.6199C39.2487 43.1751 38.9467 42.8068 38.9467 42.3539V39.8818H51.3238V42.3539C51.3238 42.8068 51.0218 43.1751 50.6506 43.1751Z" fill="#E52525"/>
<path d="M45.1354 40.2466C44.5248 40.2466 44.0281 40.8526 44.0281 41.5974C44.0281 42.3423 44.5249 42.9482 45.1354 42.9482C45.746 42.9482 46.2428 42.3422 46.2428 41.5974C46.2428 40.8526 45.746 40.2466 45.1354 40.2466ZM45.1354 42.3983C44.7734 42.3983 44.4789 42.039 44.4789 41.5974C44.4789 41.1558 44.7734 40.7965 45.1354 40.7965C45.4975 40.7965 45.792 41.1558 45.792 41.5974C45.792 42.039 45.4975 42.3983 45.1354 42.3983Z" fill="#E52525"/>
<path d="M43.6026 20.6202H46.6681C46.7926 20.6202 46.8935 20.4971 46.8935 20.3453C46.8935 20.1934 46.7926 20.0703 46.6681 20.0703H43.6026C43.4781 20.0703 43.3772 20.1934 43.3772 20.3453C43.3772 20.4971 43.4781 20.6202 43.6026 20.6202Z" fill="#E52525"/>
<path d="M42.7911 20.6202C42.8501 20.6202 42.9083 20.5911 42.9502 20.5399C42.9921 20.4882 43.0165 20.4179 43.0165 20.3453C43.0165 20.2727 42.9921 20.2023 42.9502 20.1506C42.9082 20.0995 42.8501 20.0703 42.7911 20.0703C42.7316 20.0703 42.6738 20.0995 42.6315 20.1506C42.5896 20.2017 42.5657 20.2727 42.5657 20.3453C42.5657 20.4179 42.5896 20.4882 42.6315 20.5399C42.6734 20.5911 42.7316 20.6202 42.7911 20.6202Z" fill="#E52525"/>
</g>
<path d="M32.7404 0H6.25946C4.9875 0 3.95264 1.16754 3.95264 2.60256V41.3974C3.95264 42.8325 4.98742 44 6.25946 44H32.7404C34.0123 44 35.0472 42.8325 35.0472 41.3974V2.60256C35.0472 1.16754 34.0123 0 32.7404 0ZM33.7296 41.3974C33.7296 42.0128 33.2858 42.5134 32.7404 42.5134H6.25946C5.71404 42.5134 5.27027 42.0128 5.27027 41.3974V2.60256C5.27027 1.98723 5.71404 1.48656 6.25946 1.48656H32.7404C33.2858 1.48656 33.7296 1.98723 33.7296 2.60256V41.3974Z" fill="#E52525"/>
<path d="M32.4121 4.7478H6.58789C6.34536 4.7478 6.14868 4.9697 6.14868 5.24332V38.7566C6.14868 39.0302 6.34536 39.2521 6.58789 39.2521H32.4121C32.6546 39.2521 32.8513 39.0302 32.8513 38.7566V5.24332C32.8513 4.9696 32.6546 4.7478 32.4121 4.7478ZM31.9729 38.261H7.0271V5.73884H31.9729V38.261Z" fill="#E52525"/>
<path d="M19.5004 40.2834C19.3264 40.2834 19.1569 40.3627 19.0339 40.5015C18.9118 40.6392 18.8416 40.8315 18.8416 41.0267C18.8416 41.222 18.9118 41.4142 19.0339 41.552C19.1569 41.6907 19.3264 41.77 19.5004 41.77C19.6734 41.77 19.8438 41.6907 19.9659 41.552C20.0889 41.4142 20.1592 41.222 20.1592 41.0267C20.1592 40.8315 20.0889 40.6392 19.9659 40.5015C19.8429 40.3627 19.6734 40.2834 19.5004 40.2834Z" fill="#E52525"/>
<path d="M19.5002 3.69123C19.6153 3.69123 19.7286 3.63871 19.8103 3.54654C19.892 3.45438 19.9395 3.32653 19.9395 3.19571C19.9395 3.0649 19.892 2.93804 19.8103 2.84489C19.7286 2.75272 19.6153 2.7002 19.5002 2.7002C19.3843 2.7002 19.271 2.75272 19.1893 2.84489C19.1076 2.93705 19.061 3.0649 19.061 3.19571C19.061 3.32653 19.1076 3.45438 19.1893 3.54654C19.271 3.63871 19.3843 3.69123 19.5002 3.69123Z" fill="#E52525"/>
<defs>
<clipPath id="clip0">
<rect width="24" height="26" fill="white" transform="translate(34 18)"/>
</clipPath>
</defs>
</svg>
