<svg width="112" height="28" viewBox="0 0 112 28" fill="none" xmlns="http://www.w3.org/2000/svg">
<path d="M25.6945 1.35681H0V27.3067H25.6945V1.35681Z" fill="#E52525"/>
<path d="M37.9899 27.3486V26.0931C38.4216 26.0328 38.8432 25.9139 39.2434 25.7395C39.5311 25.6113 39.7715 25.3948 39.9306 25.1209C40.0959 24.8055 40.1924 24.4581 40.2137 24.1019C40.2497 23.6912 40.2703 23.1791 40.2703 22.5709V3.59518H38.744C38.1545 3.56613 37.5651 3.65446 37.0093 3.85512C36.5965 4.04159 36.2364 4.32931 35.9617 4.69213C35.6209 5.15589 35.3598 5.67438 35.1896 6.22579C34.9734 6.86697 34.7975 7.4735 34.662 8.04537H32.0881V1.35449H54.2771V8.03497H51.6904C51.4519 7.1685 51.264 6.53425 51.1267 6.13221C51.008 5.77048 50.8528 5.42206 50.6634 5.09244C50.5144 4.83241 50.3337 4.59226 50.1255 4.37761C49.9485 4.19563 49.7455 4.04142 49.5232 3.92011C49.2717 3.79121 49.0015 3.70347 48.7228 3.66017C48.3081 3.59613 47.8888 3.56744 47.4693 3.57439H46.1103V22.5501C46.1103 23.2233 46.1309 23.7328 46.167 24.0811C46.1908 24.3731 46.2612 24.6593 46.3754 24.9285C46.4625 25.1249 46.5877 25.3017 46.7435 25.4484C46.9228 25.6021 47.1264 25.7242 47.3458 25.8097C47.6837 25.9375 48.0353 26.0247 48.3933 26.0697V27.3486H37.9899Z" fill="#020202"/>
<path d="M56.8663 26.0928C57.4805 25.9196 57.9044 25.7038 58.1377 25.4456C58.3895 25.1333 58.5524 24.7577 58.6087 24.359C58.7127 23.5325 58.754 22.6991 58.7323 21.8662V13.0126C58.7394 12.5095 58.7111 12.0066 58.6474 11.5076C58.6101 11.1827 58.5001 10.8707 58.3256 10.5952C58.1647 10.3644 57.9425 10.1842 57.6847 10.0753C57.3485 9.93317 56.9982 9.82773 56.6398 9.76076V8.46105L61.8235 8.30769H64.1785V21.8428C64.1785 22.5551 64.1879 23.1044 64.2068 23.4908C64.2186 23.7903 64.247 24.0888 64.2917 24.385C64.3251 24.5777 64.3795 24.766 64.4539 24.9465C64.5217 25.1119 64.6136 25.2662 64.7267 25.404C64.8629 25.563 65.0292 25.6929 65.2157 25.7861C65.4859 25.9211 65.7711 26.0232 66.0651 26.0902V27.3484H56.8663V26.0928ZM64.0292 0.878576V5.54451H58.8636V0.865578L64.0292 0.878576Z" fill="#020202"/>
<path d="M68.9863 26.0929C69.4344 25.9855 69.8552 25.7845 70.2217 25.5029C70.4714 25.2566 70.6449 24.9423 70.721 24.5983C70.8462 23.9302 70.8971 23.2502 70.8729 22.5707V10.8422H68.5719V9.5295C68.9944 9.48339 69.4095 9.38384 69.8073 9.23316C70.0296 9.13445 70.226 8.98496 70.3813 8.79647C70.5464 8.58458 70.6681 8.34156 70.7391 8.08163C70.8402 7.71484 70.9041 7.33857 70.9295 6.95868C71.1303 4.67293 71.9685 2.93999 73.4441 1.75986C74.9198 0.57973 77.0098 -0.00687104 79.714 6.0716e-05C80.4147 0.00687529 81.1139 0.064209 81.8065 0.171623V3.84459H79.6934C79.5441 2.69045 79.0602 2.11338 78.2418 2.11338C78.0134 2.10363 77.7863 2.15153 77.5809 2.25274C77.3756 2.35395 77.1984 2.50529 77.0655 2.69305C76.7437 3.18402 76.5426 3.74543 76.4787 4.33068C76.3612 5.21717 76.3079 6.11114 76.3191 7.00547V8.45334H79.9585V10.8318H76.3191V22.5603C76.2957 23.2363 76.3466 23.9128 76.471 24.5775C76.5503 24.9373 76.7383 25.2633 77.0089 25.5107C77.4149 25.8048 77.8826 26.0004 78.3756 26.0825V27.3485H68.9863V26.0929Z" fill="#020202"/>
<path d="M82.6275 26.0928C83.2418 25.9196 83.6656 25.7038 83.899 25.4456C84.1555 25.1354 84.3213 24.7591 84.3777 24.359C84.4816 23.5325 84.5229 22.6991 84.5013 21.8662V13.0126C84.5084 12.5095 84.48 12.0066 84.4163 11.5076C84.3799 11.1829 84.2708 10.8709 84.0972 10.5952C83.9362 10.3644 83.7141 10.1842 83.4563 10.0753C83.1192 9.9332 82.768 9.82776 82.4088 9.76076V8.46105L87.5924 8.30769H89.9501V21.8428C89.9501 22.5551 89.9501 23.1035 89.9784 23.4908C89.9876 23.7904 90.016 24.0891 90.0633 24.385C90.0947 24.5778 90.1482 24.7663 90.2229 24.9465C90.2916 25.1114 90.3835 25.2655 90.4957 25.404C90.6329 25.563 90.8 25.6929 90.9873 25.7861C91.2568 25.9208 91.541 26.0228 91.8341 26.0902V27.3484H82.6275V26.0928ZM89.7905 0.878576V5.54451H84.6351V0.865578L89.7905 0.878576Z" fill="#020202"/>
<path d="M105.156 24.8557L104.873 24.7595C104 25.6603 102.984 26.4071 101.867 26.969C100.895 27.4237 99.8361 27.6571 98.7652 27.6527C97.7926 27.6758 96.828 27.4712 95.9468 27.0548C95.195 26.6935 94.5675 26.1132 94.1451 25.3886C93.727 24.6399 93.5155 23.7916 93.5326 22.9321C93.5326 21.0658 94.4403 19.5928 96.2557 18.5132C98.0711 17.4335 100.827 16.7577 104.523 16.4856V14.6894C104.523 13.5058 104.391 12.5952 104.126 11.9574C103.962 11.4255 103.625 10.9647 103.171 10.6486C102.717 10.3324 102.17 10.1791 101.62 10.2132C101.103 10.201 100.59 10.3058 100.119 10.52C99.6364 10.7841 99.2403 11.1842 98.9788 11.6715C98.5878 12.3982 98.3322 13.1911 98.2247 14.011H94.6548V10.5564C95.8113 10.0365 96.773 9.63703 97.54 9.35803C98.2834 9.08449 99.0413 8.85279 99.8101 8.66399C100.472 8.49677 101.142 8.36574 101.818 8.27148C102.406 8.19589 102.998 8.15768 103.591 8.1571C105.113 8.1571 106.329 8.36073 107.238 8.76797C108.133 9.15819 108.859 9.86025 109.284 10.7461C109.737 11.6611 109.963 12.9244 109.961 14.5361V21.96C109.961 22.7996 109.982 23.4468 110.018 23.9043C110.035 24.2494 110.096 24.5909 110.198 24.9207C110.265 25.118 110.371 25.2993 110.51 25.4536C110.64 25.5917 110.797 25.7022 110.97 25.7785C111.305 25.9091 111.649 26.0142 112 26.093V27.3485H104.986L105.156 24.8557ZM104.533 18.3572C102.586 18.4092 101.143 18.7774 100.207 19.4619C99.2696 20.1464 98.7978 21.1507 98.7909 22.4747C98.7909 23.2545 99.0071 23.8627 99.4344 24.2734C99.6748 24.489 99.955 24.6545 100.259 24.7607C100.563 24.8668 100.884 24.9115 101.205 24.8921C101.784 24.893 102.351 24.732 102.845 24.4268C103.352 24.1232 103.773 23.6937 104.07 23.1791C104.366 22.6786 104.523 22.1064 104.523 21.5233L104.533 18.3572Z" fill="#020202"/>
<path d="M12.7604 12.88C15.4499 12.88 17.6301 10.6397 17.6301 7.87613C17.6301 5.11257 15.4499 2.87227 12.7604 2.87227C10.071 2.87227 7.89075 5.11257 7.89075 7.87613C7.89075 10.6397 10.071 12.88 12.7604 12.88Z" fill="white"/>
<path d="M3.06738 10.9722H5.29889C5.29889 10.9722 7.52782 15.9345 12.8479 15.9345C18.3379 15.9345 20.1627 10.9514 20.1627 10.9514L22.6722 10.9956V17.7749H16.1707L16.1501 24.2292L9.50195 24.2084L9.48136 17.7099L3.08797 17.6891L3.06738 10.9722Z" fill="white"/>
</svg>
