<svg width="112" height="28" viewBox="0 0 112 28" fill="none" xmlns="http://www.w3.org/2000/svg">
<path d="M25.6945 1.35693H0V27.3068H25.6945V1.35693Z" fill="#E52525"/>
<path d="M37.9897 27.3486V26.0931C38.4214 26.0328 38.843 25.9139 39.2431 25.7395C39.5308 25.6113 39.7712 25.3948 39.9303 25.1209C40.0956 24.8055 40.1921 24.4581 40.2135 24.1019C40.2495 23.6912 40.2701 23.1791 40.2701 22.5709V3.59518H38.7438C38.1543 3.56613 37.5648 3.65446 37.009 3.85512C36.5962 4.04159 36.2361 4.32931 35.9615 4.69213C35.6206 5.15589 35.3596 5.67438 35.1894 6.22579C34.9731 6.86697 34.7973 7.4735 34.6617 8.04537H32.0879V1.35449H54.2768V8.03497H51.6901C51.4516 7.1685 51.2637 6.53425 51.1265 6.13221C51.0078 5.77048 50.8525 5.42206 50.6632 5.09244C50.5141 4.83241 50.3334 4.59226 50.1253 4.37761C49.9482 4.19563 49.7452 4.04142 49.523 3.92011C49.2715 3.79121 49.0013 3.70347 48.7225 3.66017C48.3078 3.59613 47.8885 3.56744 47.4691 3.57439H46.1101V22.5501C46.1101 23.2233 46.1307 23.7328 46.1667 24.0811C46.1906 24.3731 46.261 24.6593 46.3752 24.9285C46.4623 25.1249 46.5874 25.3017 46.7433 25.4484C46.9226 25.6021 47.1262 25.7242 47.3455 25.8097C47.6834 25.9375 48.035 26.0247 48.3931 26.0697V27.3486H37.9897Z" fill="white"/>
<path d="M56.8661 26.093C57.4804 25.9197 57.9042 25.7039 58.1376 25.4457C58.3894 25.1335 58.5522 24.7578 58.6086 24.3592C58.7125 23.5326 58.7538 22.6993 58.7322 21.8664V13.0128C58.7393 12.5097 58.7109 12.0067 58.6472 11.5077C58.61 11.1828 58.5 10.8708 58.3255 10.5953C58.1646 10.3646 57.9424 10.1844 57.6846 10.0754C57.3484 9.93332 56.9981 9.82787 56.6396 9.7609V8.4612L61.8233 8.30783H64.1784V21.843C64.1784 22.5552 64.1878 23.1045 64.2067 23.491C64.2185 23.7904 64.2469 24.0889 64.2916 24.3852C64.325 24.5778 64.3794 24.7661 64.4538 24.9466C64.5215 25.1121 64.6135 25.2663 64.7266 25.4041C64.8628 25.5631 65.0291 25.693 65.2156 25.7863C65.4858 25.9213 65.7709 26.0234 66.065 26.0904V27.3485H56.8661V26.093ZM64.0291 0.87872V5.54466H58.8634V0.865723L64.0291 0.87872Z" fill="white"/>
<path d="M68.9862 26.0929C69.4343 25.9855 69.8551 25.7845 70.2216 25.5029C70.4713 25.2566 70.6448 24.9423 70.7209 24.5983C70.846 23.9302 70.897 23.2502 70.8728 22.5707V10.8422H68.5718V9.5295C68.9943 9.48339 69.4093 9.38384 69.8072 9.23316C70.0294 9.13445 70.2259 8.98496 70.3812 8.79647C70.5463 8.58458 70.6679 8.34156 70.7389 8.08163C70.8401 7.71484 70.9039 7.33857 70.9294 6.95868C71.1302 4.67293 71.9684 2.93999 73.444 1.75986C74.9197 0.57973 77.0096 -0.00687104 79.7139 6.0716e-05C80.4145 0.00687529 81.1138 0.064209 81.8064 0.171623V3.84459H79.6933C79.544 2.69045 79.0601 2.11338 78.2416 2.11338C78.0133 2.10363 77.7862 2.15153 77.5808 2.25274C77.3754 2.35395 77.1983 2.50529 77.0654 2.69305C76.7436 3.18402 76.5424 3.74543 76.4786 4.33068C76.3611 5.21717 76.3077 6.11114 76.319 7.00547V8.45334H79.9584V10.8318H76.319V22.5603C76.2956 23.2363 76.3465 23.9128 76.4708 24.5775C76.5502 24.9373 76.7381 25.2633 77.0088 25.5107C77.4148 25.8048 77.8825 26.0004 78.3755 26.0825V27.3485H68.9862V26.0929Z" fill="white"/>
<path d="M82.6275 26.093C83.2418 25.9197 83.6656 25.7039 83.8989 25.4457C84.1555 25.1356 84.3212 24.7593 84.3777 24.3592C84.4816 23.5326 84.5229 22.6993 84.5012 21.8664V13.0128C84.5084 12.5097 84.48 12.0067 84.4163 11.5077C84.3798 11.1831 84.2707 10.871 84.0971 10.5953C83.9362 10.3646 83.714 10.1844 83.4562 10.0754C83.1191 9.93335 82.7679 9.82791 82.4087 9.7609V8.4612L87.5924 8.30783H89.95V21.843C89.95 22.5552 89.95 23.1037 89.9783 23.491C89.9875 23.7906 90.0159 24.0893 90.0632 24.3852C90.0946 24.578 90.1482 24.7664 90.2228 24.9466C90.2915 25.1116 90.3834 25.2657 90.4956 25.4041C90.6329 25.5631 90.8 25.693 90.9872 25.7863C91.2567 25.9209 91.5409 26.023 91.834 26.0904V27.3485H82.6275V26.093ZM89.7904 0.87872V5.54466H84.635V0.865723L89.7904 0.87872Z" fill="white"/>
<path d="M105.156 24.8558L104.873 24.7597C104 25.6604 102.984 26.4072 101.867 26.9692C100.895 27.4238 99.8362 27.6572 98.7653 27.6528C97.7927 27.6759 96.8281 27.4713 95.9469 27.0549C95.1951 26.6936 94.5676 26.1133 94.1453 25.3887C93.7271 24.64 93.5156 23.7917 93.5327 22.9323C93.5327 21.0659 94.4404 19.5929 96.2558 18.5133C98.0712 17.4337 100.827 16.7578 104.523 16.4857V14.6895C104.523 13.5059 104.391 12.5953 104.127 11.9576C103.962 11.4257 103.625 10.9648 103.171 10.6487C102.717 10.3325 102.17 10.1792 101.62 10.2134C101.103 10.2011 100.59 10.3059 100.119 10.5201C99.6366 10.7842 99.2404 11.1843 98.9789 11.6716C98.5879 12.3983 98.3323 13.1912 98.2248 14.0111H94.6549V10.5565C95.8114 10.0366 96.7731 9.63716 97.5401 9.35815C98.2836 9.08461 99.0414 8.85291 99.8103 8.66411C100.472 8.49689 101.142 8.36586 101.818 8.2716C102.406 8.19601 102.998 8.15781 103.591 8.15723C105.113 8.15723 106.329 8.36085 107.238 8.76809C108.133 9.15832 108.859 9.86037 109.285 10.7462C109.737 11.6612 109.963 12.9245 109.961 14.5362V21.9601C109.961 22.7997 109.982 23.447 110.018 23.9044C110.035 24.2496 110.096 24.591 110.198 24.9208C110.265 25.1181 110.371 25.2995 110.51 25.4537C110.64 25.5919 110.797 25.7023 110.97 25.7786C111.305 25.9092 111.649 26.0144 112 26.0932V27.3487H104.986L105.156 24.8558ZM104.533 18.3573C102.586 18.4093 101.143 18.7775 100.207 19.4621C99.2698 20.1466 98.7979 21.1508 98.791 22.4748C98.791 23.2546 99.0072 23.8629 99.4345 24.2736C99.6749 24.4891 99.9551 24.6546 100.259 24.7608C100.563 24.867 100.884 24.9116 101.205 24.8922C101.784 24.8932 102.351 24.7321 102.845 24.4269C103.352 24.1233 103.774 23.6938 104.07 23.1792C104.366 22.6788 104.523 22.1065 104.523 21.5234L104.533 18.3573Z" fill="white"/>
<path d="M12.7603 12.8798C15.4498 12.8798 17.63 10.6395 17.63 7.87593C17.63 5.11238 15.4498 2.87207 12.7603 2.87207C10.0709 2.87207 7.89062 5.11238 7.89062 7.87593C7.89062 10.6395 10.0709 12.8798 12.7603 12.8798Z" fill="white"/>
<path d="M3.06738 10.9725H5.29889C5.29889 10.9725 7.52782 15.9347 12.8479 15.9347C18.3379 15.9347 20.1627 10.9517 20.1627 10.9517L22.6722 10.9958V17.7751H16.1707L16.1501 24.2294L9.50195 24.2086L9.48136 17.7101L3.08797 17.6893L3.06738 10.9725Z" fill="white"/>
</svg>
