<svg width="60" height="38" viewBox="0 0 60 38" fill="none" xmlns="http://www.w3.org/2000/svg">
<path d="M38.9305 3.97485H21.1017V33.0988H38.9305V3.97485Z" fill="#FF5F00"/>
<path d="M22.8638 18.5383C22.8619 15.7328 23.4984 12.9636 24.7251 10.4407C25.9519 7.9177 27.7366 5.70708 29.9442 3.9763C27.2129 1.83106 23.9335 0.49751 20.4805 0.128016C17.0275 -0.241479 13.5402 0.367988 10.4171 1.88678C7.29401 3.40556 4.66097 5.77242 2.8189 8.71692C0.976831 11.6614 -1.57045e-05 15.0648 -1.57045e-05 18.5383C-1.57045e-05 22.0117 0.976831 25.4151 2.8189 28.3596C4.66097 31.3041 7.29401 33.671 10.4171 35.1898C13.5402 36.7086 17.0275 37.318 20.4805 36.9485C23.9335 36.579 27.2129 35.2455 29.9442 33.1002C27.7366 31.3695 25.9519 29.1588 24.7251 26.6359C23.4984 24.1129 22.8619 21.3438 22.8638 18.5383Z" fill="#EB001B"/>
<path d="M58.2383 30.0274V29.4302H58.4658H57.8402H58.0677V30.0274H58.2383ZM59.4326 30.0274V29.3164H59.2335L59.0061 29.7999L58.7786 29.3164H58.5795V30.0274V29.4871L58.7786 29.9421L58.9776 29.4871V30.0274H59.4326Z" fill="#F79E1B"/>
<path d="M60 18.5362C60.0039 22.0143 59.0283 25.4232 57.1849 28.3724C55.3415 31.3215 52.7049 33.6917 49.5771 35.2115C46.4492 36.7312 42.9567 37.339 39.4995 36.9652C36.0423 36.5915 32.7603 35.2513 30.0293 33.0982C32.2301 31.3626 34.0089 29.1505 35.2319 26.6283C36.4549 24.1061 37.0903 21.3394 37.0903 18.5362C37.0903 15.733 36.4549 12.9663 35.2319 10.4441C34.0089 7.92191 32.2301 5.70985 30.0293 3.97427C32.7603 1.82116 36.0423 0.480974 39.4995 0.107224C42.9567 -0.266526 46.4492 0.341273 49.5771 1.861C52.7049 3.38073 55.3415 5.75093 57.1849 8.7001C59.0283 11.6493 60.0039 15.0581 60 18.5362Z" fill="#F79E1B"/>
</svg>
