<svg width="80" height="50" viewBox="0 0 80 50" fill="none" xmlns="http://www.w3.org/2000/svg">
<path d="M51.9072 5.2998H28.1355V44.1316H51.9072V5.2998Z" fill="#FF5F00"/>
<path d="M30.4849 24.7178C30.4824 20.9771 31.3311 17.2849 32.9668 13.921C34.6024 10.5571 36.9821 7.60958 39.9254 5.30189C36.2838 2.44157 31.9112 0.663508 27.3072 0.17085C22.7032 -0.321808 18.0536 0.490812 13.8895 2.51586C9.72531 4.5409 6.21461 7.69669 3.75853 11.6227C1.30244 15.5487 -2.09393e-05 20.0865 -2.09393e-05 24.7178C-2.09393e-05 29.349 1.30244 33.8869 3.75853 37.8129C6.21461 41.7389 9.72531 44.8947 13.8895 46.9197C18.0536 48.9448 22.7032 49.7574 27.3072 49.2647C31.9112 48.7721 36.2838 46.994 39.9254 44.1337C36.9821 41.826 34.6024 38.8785 32.9668 35.5146C31.3311 32.1506 30.4824 28.4584 30.4849 24.7178Z" fill="#EB001B"/>
<path d="M77.6508 40.0364V39.2401H77.9541H77.12H77.4233V40.0364H77.6508ZM79.2432 40.0364V39.0884H78.9777L78.6745 39.7331L78.3712 39.0884H78.1057V40.0364V39.3159L78.3712 39.9227L78.6365 39.3159V40.0364H79.2432Z" fill="#F79E1B"/>
<path d="M79.9997 24.7149C80.005 29.3523 78.7042 33.8975 76.2463 37.8297C73.7885 41.7619 70.273 44.9222 66.1026 46.9485C61.9321 48.9748 57.2754 49.7852 52.6658 49.2868C48.0562 48.7885 43.6802 47.0016 40.039 44.1308C42.9734 41.8167 45.345 38.8673 46.9757 35.5043C48.6063 32.1414 49.4535 28.4525 49.4535 24.7149C49.4535 20.9773 48.6063 17.2884 46.9757 13.9254C45.345 10.5625 42.9734 7.61311 40.039 5.299C43.6802 2.4282 48.0562 0.641297 52.6658 0.142965C57.2754 -0.355367 61.9321 0.45503 66.1026 2.48133C70.273 4.50763 73.7885 7.66788 76.2463 11.6001C78.7042 15.5323 80.005 20.0775 79.9997 24.7149Z" fill="#F79E1B"/>
</svg>
