<svg width="200" height="35" viewBox="0 0 200 35" fill="none" xmlns="http://www.w3.org/2000/svg">
<path d="M150.803 11.8385C150.324 11.2465 149.607 10.921 148.83 10.921C147.992 10.921 147.335 11.2169 146.856 11.7793C146.139 12.6376 146.019 13.7918 146.019 14.8869H151.461C151.49 13.851 151.49 12.7263 150.803 11.8385ZM20.4499 25.7782L19.523 12.8447C19.4334 11.4833 19.3736 10.1515 19.3437 8.79005C19.1045 10.0627 18.7756 11.2761 18.4168 12.5192L14.5601 25.7782H10.3744L6.87642 13.0519C6.48775 11.6313 6.12898 10.2107 5.8898 8.76046C5.8599 10.2107 5.80011 11.6609 5.71042 13.1111L4.87329 25.7486H0L2.30211 1.5686H8.61047L11.8095 13.703C12.1683 14.9756 12.3178 16.2779 12.6466 17.5209C12.8858 16.1891 13.2745 14.9164 13.5137 13.5846L16.8323 1.5686H23.0808L25.2634 25.7782H20.4499ZM33.3656 18.32C33.3656 20.8357 34.5017 22.7002 37.2223 22.7002C38.9265 22.7002 40.4214 21.9603 41.7369 20.9245L43.5606 23.7065C41.6472 25.2751 39.2554 26.1926 36.7739 26.1926C33.2161 26.1926 30.3459 24.3576 28.9706 21.102C27.984 18.7344 27.9541 15.094 28.881 12.6671C30.1067 9.47077 32.7676 7.51742 36.1759 7.51742C42.6936 7.51742 43.7699 13.1703 43.7699 18.32H33.3656ZM38.8069 13.2295C38.6574 11.8976 37.611 10.921 36.2656 10.921C34.8305 10.921 33.814 11.9568 33.6048 13.3183C33.5151 13.851 33.4553 14.3837 33.4553 14.9164H38.8966C38.8966 14.3541 38.8667 13.7918 38.8069 13.2295ZM56.1175 25.3935C53.8154 26.4589 50.2277 26.6957 48.2545 24.8312C47.1184 23.7361 47.0885 22.2859 47.0885 20.8357V11.1577H45.2947V7.93177H47.0885C47.0885 6.54075 47.0287 5.12013 47.2679 3.72911L52.0515 2.54527C51.902 4.35063 51.7824 6.1264 51.7824 7.93177H55.998L54.8021 11.1281H51.7824V20.0662C51.7824 21.4868 51.902 22.9074 53.6361 22.9074C54.2041 22.9074 54.9814 22.8186 55.4897 22.5523L56.1175 25.3935ZM70.9766 26.6957C69.9302 26.2222 69.0033 25.5415 68.4353 24.5352C67.06 25.8966 65.7146 26.4589 63.7115 26.4589C60.0939 26.4589 57.5227 24.5352 57.5227 20.8949C57.5227 19.7406 57.7619 18.7048 58.2403 17.8169C59.765 14.9756 64.3991 14.4429 67.2394 14.7981V14.0582C67.2394 12.46 66.9703 11.3649 65.1765 11.3649C63.2929 11.3649 61.4094 12.312 59.9444 13.4071L57.9114 10.0627C60.1836 8.64207 62.9043 7.51742 65.6249 7.51742C70.2291 7.51742 71.7838 9.79632 71.7838 13.851V19.8294C71.7838 21.546 71.9034 22.7002 73.488 23.7953L70.9766 26.6957ZM63.3826 18.6456C62.7548 19.1191 62.5156 20.007 62.5754 20.8653C62.6651 22.0195 63.3826 23.0554 64.6383 23.0554C65.595 23.0554 66.4621 22.5523 67.0899 21.8419L67.1497 17.9945C66.0435 17.9649 64.3094 17.9057 63.3826 18.6456ZM91.7254 5.56408H85.8954V25.7782H80.9025V5.56408H74.923V1.5686H92.5626L91.7254 5.56408ZM101.861 12.016L103.176 7.90217C100.934 6.74792 98.5719 8.28692 97.1967 10.0627C97.1369 9.1748 96.9276 8.28691 96.4492 7.51742L92.2337 8.64207C92.8316 10.2995 92.8914 12.1344 92.8914 13.8806V25.7782H97.6152V13.1703C98.6018 12.016 100.426 11.0985 101.861 12.016ZM116.959 26.6957C115.912 26.2222 114.986 25.5415 114.418 24.5352C113.012 25.9262 111.637 26.4589 109.694 26.4589C107.212 26.4589 105.179 25.6894 104.013 23.4697C103.655 22.789 103.475 21.9307 103.475 20.8949C103.475 18.5568 104.432 16.7218 106.614 15.7155C108.498 14.8573 111.159 14.5613 113.192 14.7981C113.192 13.1999 113.311 11.3945 111.129 11.3945C109.245 11.3945 107.362 12.3416 105.897 13.4366L103.894 10.0627C106.166 8.64207 108.887 7.51742 111.607 7.51742C116.122 7.51742 117.766 9.64834 117.766 13.851V19.8294C117.766 21.6052 117.916 22.7002 119.47 23.7953L116.959 26.6957ZM109.365 18.6456C108.737 19.1191 108.558 19.859 108.558 20.5989C108.558 21.8419 109.245 23.0258 110.621 23.0258C111.577 23.0258 112.444 22.5227 113.072 21.8124L113.132 17.9649C112.026 17.9649 110.292 17.9057 109.365 18.6456ZM133.462 25.7782C133.283 25.4527 133.193 25.0975 133.193 24.7424C131.967 25.719 130.622 26.1926 129.037 26.1926C126.825 26.1926 124.852 25.3639 123.477 23.6177C121.982 21.8124 121.533 19.4447 121.533 17.1658C121.533 14.7389 122.041 12.0752 123.596 10.1219C124.971 8.4349 127.064 7.51742 129.247 7.51742C130.443 7.51742 131.609 7.81338 132.446 8.70126C132.296 7.84297 132.296 6.98469 132.296 6.1264V0L136.93 0.739903V19.2671C136.93 21.3684 136.781 23.7953 137.588 25.7782H133.462ZM132.416 12.5784C131.668 11.8976 130.801 11.4241 129.785 11.4241C126.975 11.4241 126.825 15.2124 126.825 17.1954C126.825 19.3559 126.945 22.2859 129.934 22.2859C130.921 22.2859 131.788 21.9011 132.446 21.1316V12.5784H132.416ZM168.682 12.016C167.246 11.0985 165.423 12.016 164.436 13.1703V25.7782H159.712V13.851C159.712 12.1344 159.623 10.2699 159.055 8.61248L163.27 7.48783C163.748 8.25733 163.958 9.1452 164.017 10.0331C165.393 8.25732 167.755 6.71832 169.997 7.87257L168.682 12.016ZM145.959 18.32C145.959 20.8357 147.096 22.7002 149.816 22.7002C151.49 22.7002 153.045 21.9603 154.331 20.9245L156.154 23.7065C154.241 25.2751 151.849 26.1926 149.368 26.1926C147.096 26.1926 144.883 25.4231 143.269 23.8249C141.445 21.9307 140.847 19.3559 140.847 16.8106C140.847 15.1236 141.056 13.7326 141.475 12.6671C142.701 9.50036 145.332 7.51742 148.77 7.51742C153.553 7.51742 155.975 10.8914 156.304 15.4788C156.364 16.4259 156.364 17.3729 156.364 18.32H145.959Z" fill="#737373"/>
<path d="M174.276 22.7714L188.868 1.41003L194.112 2.0846V22.3217H199.356V26.1442H194.112V33.5645H189.415V26.1442H174.732L174.276 22.7714ZM189.415 7.48115L179.292 22.3217H189.415V7.48115Z" fill="#737373"/>
<path fill-rule="evenodd" clip-rule="evenodd" d="M173.605 22.6127L188.559 0.721924L194.755 1.51893V21.6786H199.999V26.7873H194.755V34.2076H188.772V26.7873H174.17L173.605 22.6127ZM189.415 26.1442V33.5645H194.112V26.1442H199.356V22.3217H194.112V2.0846L188.868 1.41003L174.276 22.7714L174.732 26.1442H189.415ZM179.292 22.3217H189.415V7.48115L179.292 22.3217ZM180.509 21.6786H188.772V9.56509L180.509 21.6786Z" fill="#737373"/>
</svg>
