<svg width="200" height="39" viewBox="0 0 200 39" fill="none" xmlns="http://www.w3.org/2000/svg">
<g clip-path="url(#clip0_1_783)">
<path d="M153.266 13.8667C152.78 13.2651 152.051 12.9342 151.261 12.9342C150.41 12.9342 149.742 13.235 149.256 13.8065C148.526 14.6788 148.405 15.852 148.405 16.9649H153.935C153.965 15.9121 153.965 14.7691 153.266 13.8667ZM20.784 28.0342L19.842 14.8894C19.7508 13.5057 19.6901 12.1522 19.6597 10.7685C19.4166 12.0619 19.0823 13.2952 18.7177 14.5585L14.7979 28.0342H10.5439L6.98876 15.1C6.59374 13.6561 6.22911 12.2123 5.98602 10.7384C5.95564 12.2123 5.89486 13.6862 5.80371 15.1601L4.9529 28.0041H0L2.33971 3.42907H8.75114L12.0024 15.7617C12.3671 17.0551 12.519 18.3786 12.8532 19.642C13.0963 18.2884 13.4913 16.995 13.7344 15.6414L17.1073 3.42907H23.4579L25.6761 28.0342H20.784ZM33.9107 20.4541C33.9107 23.0109 35.0653 24.9059 37.8304 24.9059C39.5624 24.9059 41.0817 24.1539 42.4187 23.1011L44.2723 25.9286C42.3276 27.5229 39.8967 28.4553 37.3747 28.4553C33.7587 28.4553 30.8417 26.5904 29.4439 23.2816C28.4412 20.8753 28.4108 17.1755 29.3528 14.7089C30.5986 11.4603 33.3029 9.47506 36.7669 9.47506C43.3911 9.47506 44.485 15.2203 44.485 20.4541H33.9107ZM39.4409 15.2804C39.289 13.9269 38.2255 12.9342 36.8581 12.9342C35.3996 12.9342 34.3664 13.987 34.1537 15.3707C34.0626 15.9121 34.0018 16.4535 34.0018 16.995H39.5321C39.5321 16.4235 39.5017 15.852 39.4409 15.2804ZM57.0343 27.6432C54.6946 28.726 51.0483 28.9667 49.0428 27.0717C47.8882 25.9587 47.8578 24.4848 47.8578 23.0109V13.1749H46.0346V9.89619H47.8578C47.8578 8.48244 47.797 7.03862 48.0401 5.62487L52.9018 4.42169C52.7499 6.25655 52.6284 8.06133 52.6284 9.89619H56.9128L55.6973 13.1448H52.6284V22.2288C52.6284 23.6727 52.7499 25.1165 54.5123 25.1165C55.0896 25.1165 55.8797 25.0262 56.3962 24.7555L57.0343 27.6432ZM72.1361 28.9667C71.0726 28.4854 70.1306 27.7936 69.5533 26.7709C68.1556 28.1545 66.7882 28.726 64.7523 28.726C61.0757 28.726 58.4625 26.7709 58.4625 23.0711C58.4625 21.898 58.7056 20.8452 59.1917 19.9428C60.7414 17.0551 65.4512 16.5137 68.3379 16.8747V16.1227C68.3379 14.4984 68.0644 13.3854 66.2413 13.3854C64.3269 13.3854 62.4126 14.348 60.9237 15.4609L58.8575 12.0619C61.1668 10.6181 63.9319 9.47506 66.697 9.47506C71.3765 9.47506 72.9565 11.7912 72.9565 15.9121V21.9882C72.9565 23.7328 73.0781 24.9059 74.6885 26.0189L72.1361 28.9667ZM64.4181 20.785C63.78 21.2663 63.5369 22.1687 63.5977 23.041C63.6888 24.2141 64.4181 25.2669 65.6943 25.2669C66.6667 25.2669 67.5478 24.7555 68.186 24.0336L68.2467 20.1233C67.1224 20.0932 65.3601 20.033 64.4181 20.785ZM93.2239 7.48982H87.2987V28.0342H82.2242V7.48982H76.1471V3.42907H94.0747L93.2239 7.48982ZM103.525 14.0472L104.862 9.86611C102.583 8.693 100.182 10.2571 98.7846 12.0619C98.7238 11.1595 98.5111 10.2571 98.0249 9.47506L93.7405 10.6181C94.3482 12.3026 94.409 14.1675 94.409 15.9422V28.0342H99.21V15.2203C100.213 14.0472 102.066 13.1147 103.525 14.0472ZM118.87 28.9667C117.806 28.4854 116.864 27.7936 116.287 26.7709C114.859 28.1846 113.461 28.726 111.486 28.726C108.964 28.726 106.898 27.944 105.713 25.688C105.348 24.9962 105.166 24.1239 105.166 23.0711C105.166 20.6948 106.138 18.8298 108.356 17.8071C110.27 16.9348 112.975 16.634 115.041 16.8747C115.041 15.2504 115.163 13.4155 112.944 13.4155C111.03 13.4155 109.116 14.378 107.627 15.491L105.591 12.0619C107.9 10.6181 110.665 9.47506 113.431 9.47506C118.019 9.47506 119.69 11.6408 119.69 15.9121V21.9882C119.69 23.793 119.842 24.9059 121.422 26.0189L118.87 28.9667ZM111.152 20.785C110.514 21.2663 110.331 22.0183 110.331 22.7703C110.331 24.0336 111.03 25.2368 112.428 25.2368C113.4 25.2368 114.281 24.7254 114.919 24.0035L114.98 20.0932C113.856 20.0932 112.094 20.033 111.152 20.785ZM135.643 28.0342C135.46 27.7033 135.369 27.3424 135.369 26.9814C134.123 27.974 132.756 28.4553 131.146 28.4553C128.897 28.4553 126.892 27.6131 125.494 25.8384C123.974 24.0035 123.519 21.5972 123.519 19.281C123.519 16.8145 124.035 14.1073 125.615 12.1221C127.013 10.4075 129.14 9.47506 131.358 9.47506C132.574 9.47506 133.759 9.77586 134.61 10.6783C134.458 9.80594 134.458 8.93364 134.458 8.06133V1.83484L139.167 2.58683V21.4167C139.167 23.5523 139.015 26.0189 139.836 28.0342H135.643ZM134.579 14.6187C133.819 13.9269 132.938 13.4456 131.905 13.4456C129.049 13.4456 128.897 17.2958 128.897 19.3111C128.897 21.5069 129.019 24.4848 132.057 24.4848C133.06 24.4848 133.941 24.0938 134.61 23.3117V14.6187H134.579ZM171.437 14.0472C169.979 13.1147 168.125 14.0472 167.122 15.2203V28.0342H162.321V15.9121C162.321 14.1675 162.23 12.2725 161.653 10.588L165.937 9.44499C166.424 10.2271 166.636 11.1294 166.697 12.0318C168.095 10.2271 170.495 8.66292 172.774 9.83602L171.437 14.0472ZM148.344 20.4541C148.344 23.0109 149.499 24.9059 152.264 24.9059C153.965 24.9059 155.545 24.1539 156.852 23.1011L158.706 25.9286C156.761 27.5229 154.33 28.4553 151.808 28.4553C149.499 28.4553 147.25 27.6732 145.609 26.0489C143.756 24.1238 143.148 21.5069 143.148 18.9201C143.148 17.2055 143.361 15.7918 143.786 14.7089C145.032 11.4904 147.706 9.47506 151.2 9.47506C156.062 9.47506 158.523 12.9042 158.857 17.5665C158.918 18.529 158.918 19.4916 158.918 20.4541H148.344Z" fill="#737373"/>
<path d="M200 22.7402C200 26.1693 198.45 29.2374 195.776 31.4031C192.738 33.8095 188.757 34.8021 184.929 34.8021C183.075 34.8021 181.161 34.4712 179.429 33.7493L179.793 29.6886C181.282 30.1999 182.893 30.4406 184.382 30.4406C188.575 30.4406 193.042 28.0643 193.042 23.5223C193.042 20.8452 191.34 18.9201 188.696 18.5591C186.114 18.1982 182.984 19.1607 180.826 19.8225L182.407 1.83484H198.724L198.207 7.24917H188.362L187.694 13.7765C193.862 12.6334 200 16.3332 200 22.7402Z" fill="#737373"/>
</g>
<defs>
<clipPath id="clip0_1_783">
<rect width="200" height="38.5621" fill="white"/>
</clipPath>
</defs>
</svg>
