<svg width="16" height="16" viewBox="0 0 16 16" fill="none" xmlns="http://www.w3.org/2000/svg">
<path d="M8 0C3.58167 0 0 3.58167 0 8C0 12.4183 3.58167 16 8 16C12.4183 16 16 12.4183 16 8C15.9948 3.58386 12.4161 0.00524903 8 0ZM8 15C4.13403 15 1 11.866 1 8C1 4.13403 4.13403 1 8 1C11.866 1 15 4.13403 15 8C14.9958 11.8643 11.8643 14.9958 8 15Z" fill="#E52525"/>
<path d="M11.889 4.11096C11.6937 3.91577 11.3772 3.91577 11.182 4.11096L8 7.29297L4.81799 4.11096C4.6261 3.91235 4.30957 3.90686 4.11096 4.09875C3.91235 4.29053 3.90686 4.60706 4.09875 4.80566C4.10278 4.80981 4.10681 4.81396 4.11096 4.81799L7.29297 8L4.11096 11.182C3.91235 11.3738 3.90686 11.6903 4.09875 11.889C4.29053 12.0876 4.60706 12.0931 4.80566 11.9012C4.80981 11.8972 4.81396 11.8932 4.81799 11.889L8 8.70703L11.182 11.889C11.3806 12.0808 11.6971 12.0753 11.8889 11.8767C12.076 11.683 12.076 11.3757 11.8889 11.182L8.70703 8L11.889 4.81799C12.0842 4.6228 12.0842 4.30627 11.889 4.11096Z" fill="#E52525"/>
</svg>
