<svg width="50" height="50" viewBox="0 0 50 50" fill="none" xmlns="http://www.w3.org/2000/svg">
<path d="M42.6776 7.32227C37.9558 2.60049 31.6777 0 25 0C18.3222 0 12.044 2.60049 7.32227 7.32227C2.60039 12.0441 0 18.3223 0 25C0 31.6777 2.60039 37.9558 7.32227 42.6776C12.0441 47.3995 18.3222 50 25 50C31.6777 50 37.9558 47.3995 42.6776 42.6776C47.3995 37.9558 50 31.6777 50 25C50 18.3223 47.3995 12.0442 42.6776 7.32227ZM25 47.0703C12.8304 47.0703 2.92969 37.1696 2.92969 25C2.92969 12.8304 12.8304 2.92969 25 2.92969C37.1696 2.92969 47.0703 12.8304 47.0703 25C47.0703 37.1696 37.1696 47.0703 25 47.0703Z" fill="#B2B2B2"/>
<path d="M36.944 16.9785C36.3721 16.4066 35.4445 16.4066 34.8725 16.9786L21.9371 29.914L15.1278 23.1047C14.5559 22.5328 13.6283 22.5328 13.0562 23.1047C12.4842 23.6767 12.4842 24.6043 13.0562 25.1763L20.9013 33.0213C21.1873 33.3074 21.5622 33.4503 21.937 33.4503C22.3118 33.4503 22.6868 33.3073 22.9727 33.0213L36.944 19.0501C37.5161 18.4781 37.5161 17.5506 36.944 16.9785Z" fill="#B2B2B2"/>
</svg>
