<svg width="80" height="26" viewBox="0 0 80 26" fill="none" xmlns="http://www.w3.org/2000/svg">
<path d="M32.7002 0L28.6851 24.9851H35.1026L39.1152 0H32.7002ZM52.0577 10.1775C49.8151 9.07006 48.4403 8.32261 48.4403 7.18992C48.4677 6.16004 49.6028 5.10494 52.1378 5.10494C54.2227 5.05257 55.7552 5.54256 56.9178 6.03007L57.5002 6.29001L58.3727 1.0625C57.1051 0.572517 55.0952 0.0326279 52.6127 0.0326279C46.2752 0.0326279 41.8127 3.32762 41.785 8.04019C41.7327 11.5178 44.9799 13.4476 47.4101 14.6052C49.8927 15.7928 50.7377 16.5627 50.7377 17.6178C50.7103 19.2377 48.7304 19.9852 46.8828 19.9852C44.323 19.9852 42.9479 19.6002 40.8604 18.6976L40.0154 18.3126L39.1179 23.7452C40.6255 24.4153 43.3978 25.0051 46.2755 25.0353C53.0105 25.0353 57.393 21.7902 57.4481 16.7678C57.47 14.0127 55.7577 11.9025 52.0577 10.1775ZM74.8251 0.0773221H69.86C68.33 0.0773221 67.1674 0.517404 66.505 2.08744L56.9724 24.9851H63.7074L65.5623 20.0277H73.0974L74.0599 25.0051H80L74.8251 0.0773221ZM67.4301 15.0247C67.5601 15.0373 70.0152 6.93217 70.0152 6.93217L71.9702 15.0247C71.9702 15.0247 68.6977 15.0247 67.4301 15.0247ZM23.3227 0L17.0352 16.9751L16.3502 13.6274C15.1877 9.76487 11.5428 5.56751 7.47513 3.48254L13.2327 24.9602H20.0228L30.1129 0.00274043H23.3227V0Z" fill="white"/>
<path d="M14.2351 3.22325C13.7451 1.31815 12.1824 0.0332788 10.0602 0.00585938H0.102549L0 0.46815C7.76764 2.38312 14.2874 8.27555 16.4026 13.8181L14.2351 3.22325Z" fill="white"/>
</svg>
